<?xml version="1.0" encoding="utf-8"?>
<!-- Generator: Adobe Illustrator 27.5.0, SVG Export Plug-In . SVG Version: 6.00 Build 0)  -->
<svg version="1.1" id="Layer_1" xmlns="http://www.w3.org/2000/svg" xmlns:xlink="http://www.w3.org/1999/xlink" x="0px" y="0px"
	 viewBox="0 0 905.367 400" style="enable-background:new 0 0 905.367 400;" xml:space="preserve">
<g>
	<g>
		<path style="fill:#DDD7E0;" d="M187.258,183.472H77.785c-3.82,0-6.917-3.097-6.917-6.917V58.292c0-3.82,3.097-6.917,6.917-6.917
			h109.473c3.82,0,6.917,3.097,6.917,6.917v118.263C194.175,180.375,191.078,183.472,187.258,183.472z"/>
	</g>
	<g>
		<path style="fill:#FFFFFF;" d="M187.258,64.859v105c0,3.39-2.75,6.14-6.14,6.14h-97.19c-3.39,0-6.14-2.75-6.14-6.14v-105
			c0-3.39,2.75-6.14,6.14-6.14h97.19C184.508,58.719,187.258,61.469,187.258,64.859z"/>
	</g>
	<g>
		<path style="fill:#EBE8ED;" d="M187.258,143.909v25.95c0,3.39-2.75,6.14-6.14,6.14h-97.19c-3.39,0-6.14-2.75-6.14-6.14v-49.18
			h20.41v24.94h12v9.25h11.34v-27.32h26v32.33h17.33v-15.97H187.258z"/>
	</g>
	<g>
		<rect x="128.566" y="51.312" style="fill:#DDD7E0;" width="5.381" height="132.096"/>
	</g>
</g>
<g>
	<g>
		<path style="fill:#DDD7E0;" d="M826.498,183.38H717.025c-3.82,0-6.917-3.097-6.917-6.917V58.201c0-3.82,3.097-6.917,6.917-6.917
			h109.473c3.82,0,6.917,3.097,6.917,6.917v118.263C833.415,180.283,830.318,183.38,826.498,183.38z"/>
	</g>
	<g>
		<path style="fill:#FFFFFF;" d="M826.498,64.768v105c0,3.39-2.75,6.14-6.14,6.14h-97.19c-3.39,0-6.14-2.75-6.14-6.14v-105
			c0-3.39,2.75-6.14,6.14-6.14h97.19C823.748,58.628,826.498,61.378,826.498,64.768z"/>
	</g>
	<g>
		<path style="fill:#EBE8ED;" d="M826.498,123.818v45.95c0,3.39-2.75,6.14-6.14,6.14h-97.19c-3.39,0-6.14-2.75-6.14-6.14v-36.18
			h20.41v11.94h12v9.25h11.34v-39.32h26v24.33h17.33v-15.97H826.498z"/>
	</g>
	<g>
		<rect x="767.806" y="51.22" style="fill:#DDD7E0;" width="5.381" height="132.096"/>
	</g>
</g>
<rect x="0" y="332.333" style="fill:#EEECF1;" width="905.367" height="67.667"/>
<g>
	<ellipse style="fill:#E1DAE5;" cx="457.372" cy="359.285" rx="374.161" ry="8.288"/>
</g>
<g>
	<g>
		<path style="fill:#DDD7E0;" d="M320.767,309.695h-57.662c-0.83,0-1.503-0.673-1.503-1.503v-30.747c0-0.83,0.673-1.503,1.503-1.503
			h57.662c0.83,0,1.503,0.673,1.503,1.503v30.747C322.27,309.023,321.597,309.695,320.767,309.695z"/>
	</g>
	<g>
		<path style="fill:#EBE8ED;" d="M309.311,309.695h-57.662c-0.83,0-1.503-0.673-1.503-1.503v-30.747c0-0.83,0.673-1.503,1.503-1.503
			h57.662c0.83,0,1.503,0.673,1.503,1.503v30.747C310.814,309.023,310.141,309.695,309.311,309.695z"/>
	</g>
	<g>
		<path style="fill:#DDD7E0;" d="M240.225,309.695h-57.662c-0.83,0-1.503-0.673-1.503-1.503v-30.747c0-0.83,0.673-1.503,1.503-1.503
			h57.662c0.83,0,1.503,0.673,1.503,1.503v30.747C241.727,309.023,241.055,309.695,240.225,309.695z"/>
	</g>
	<g>
		<path style="fill:#EBE8ED;" d="M228.768,309.695h-57.662c-0.83,0-1.503-0.673-1.503-1.503v-30.747c0-0.83,0.673-1.503,1.503-1.503
			h57.662c0.83,0,1.503,0.673,1.503,1.503v30.747C230.271,309.023,229.598,309.695,228.768,309.695z"/>
	</g>
	<g>
		<path style="fill:#DDD7E0;" d="M303.182,270.268h-40.052c-0.695,0-1.259-0.564-1.259-1.259v-31.235
			c0-0.695,0.564-1.259,1.259-1.259h40.052c0.695,0,1.259,0.564,1.259,1.259v31.235C304.44,269.704,303.877,270.268,303.182,270.268
			z"/>
	</g>
	<g>
		<path style="fill:#EBE8ED;" d="M295.143,270.268h-40.052c-0.695,0-1.259-0.564-1.259-1.259v-31.235
			c0-0.695,0.564-1.259,1.259-1.259h40.052c0.695,0,1.259,0.564,1.259,1.259v31.235
			C296.402,269.704,295.838,270.268,295.143,270.268z"/>
	</g>
	<g>
		<path style="fill:#DDD7E0;" d="M202.747,264.674h-40.15c-0.668,0-1.21-0.542-1.21-1.21v-28.755c0-0.668,0.542-1.21,1.21-1.21
			h40.15c0.668,0,1.21,0.542,1.21,1.21v28.755C203.957,264.132,203.415,264.674,202.747,264.674z"/>
	</g>
	<g>
		<path style="fill:#EBE8ED;" d="M194.708,264.674h-40.15c-0.668,0-1.21-0.542-1.21-1.21v-28.755c0-0.668,0.542-1.21,1.21-1.21
			h40.15c0.668,0,1.21,0.542,1.21,1.21v28.755C195.918,264.132,195.376,264.674,194.708,264.674z"/>
	</g>
	<g>
		<path style="fill:#C7BFCE;" d="M197.766,220.725h-40.248c-0.641,0-1.161-0.52-1.161-1.161v-26.387c0-0.641,0.52-1.161,1.161-1.161
			h40.248c0.641,0,1.161,0.52,1.161,1.161v26.387C198.927,220.206,198.407,220.725,197.766,220.725z"/>
	</g>
	<g>
		<path style="fill:#DDD7E0;" d="M189.728,220.725H149.48c-0.641,0-1.161-0.52-1.161-1.161v-26.387c0-0.641,0.52-1.161,1.161-1.161
			h40.248c0.641,0,1.161,0.52,1.161,1.161v26.387C190.888,220.206,190.369,220.725,189.728,220.725z"/>
	</g>
	<g>
		<path style="fill:#DDD7E0;" d="M257.226,222.8h-39.451c-0.537,0-0.972-0.435-0.972-0.972v-18.751c0-0.537,0.435-0.972,0.972-0.972
			h39.451c0.537,0,0.972,0.435,0.972,0.972v18.751C258.198,222.365,257.763,222.8,257.226,222.8z"/>
	</g>
	<g>
		<path style="fill:#EBE8ED;" d="M249.409,222.8h-39.451c-0.537,0-0.972-0.435-0.972-0.972v-18.751c0-0.537,0.435-0.972,0.972-0.972
			h39.451c0.537,0,0.972,0.435,0.972,0.972v18.751C250.381,222.365,249.946,222.8,249.409,222.8z"/>
	</g>
	<g>
		<path style="fill:#DDD7E0;" d="M207.484,177.695h-57.662c-0.83,0-1.503-0.673-1.503-1.503v-30.747c0-0.83,0.673-1.503,1.503-1.503
			h57.662c0.83,0,1.503,0.673,1.503,1.503v30.747C208.986,177.023,208.314,177.695,207.484,177.695z"/>
	</g>
	<g>
		<path style="fill:#EBE8ED;" d="M196.027,177.695h-57.662c-0.83,0-1.503-0.673-1.503-1.503v-30.747c0-0.83,0.673-1.503,1.503-1.503
			h57.662c0.83,0,1.503,0.673,1.503,1.503v30.747C197.53,177.023,196.857,177.695,196.027,177.695z"/>
	</g>
	<g>
		<path style="fill:#DDD7E0;" d="M276.911,177.695h-40.052c-0.695,0-1.259-0.564-1.259-1.259v-31.235
			c0-0.695,0.563-1.259,1.259-1.259h40.052c0.695,0,1.259,0.564,1.259,1.259v31.235
			C278.169,177.132,277.606,177.695,276.911,177.695z"/>
	</g>
	<g>
		<path style="fill:#EBE8ED;" d="M268.872,177.695H228.82c-0.695,0-1.259-0.564-1.259-1.259v-31.235
			c0-0.695,0.564-1.259,1.259-1.259h40.052c0.695,0,1.259,0.564,1.259,1.259v31.235
			C270.131,177.132,269.567,177.695,268.872,177.695z"/>
	</g>
	<g>
		<path style="fill:#C7BFCE;" d="M332.505,177.695h-40.052c-0.695,0-1.259-0.564-1.259-1.259v-31.235
			c0-0.695,0.564-1.259,1.259-1.259h40.052c0.695,0,1.259,0.564,1.259,1.259v31.235C333.764,177.132,333.2,177.695,332.505,177.695z
			"/>
	</g>
	<g>
		<path style="fill:#DDD7E0;" d="M324.466,177.695h-40.052c-0.695,0-1.259-0.564-1.259-1.259v-31.235
			c0-0.695,0.564-1.259,1.259-1.259h40.052c0.695,0,1.259,0.564,1.259,1.259v31.235
			C325.725,177.132,325.162,177.695,324.466,177.695z"/>
	</g>
	<g>
		<path style="fill:#BBAFC0;" d="M356.152,136.566H120.105c-3.353,0-6.071-2.718-6.071-6.071v-16.124
			c0-3.353,2.718-6.071,6.071-6.071h236.047c3.353,0,6.071,2.718,6.071,6.071v16.124
			C362.223,133.848,359.505,136.566,356.152,136.566z"/>
	</g>
	<g>
		<rect x="120.105" y="220.725" style="fill:#BDB2C2;" width="236.047" height="8.79"/>
	</g>
	<g>
		<rect x="120.105" y="177.274" style="fill:#BDB2C2;" width="236.047" height="8.79"/>
	</g>
	<g>
		<rect x="120.105" y="264.674" style="fill:#BDB2C2;" width="236.047" height="8.79"/>
	</g>
	<g>
		<rect x="120.105" y="308.623" style="fill:#BDB2C2;" width="236.047" height="8.79"/>
	</g>
	<g>
		<path style="fill:#BBAFC0;" d="M122.182,358.698h-0.052c-1.761,0-3.188-1.427-3.188-3.188V112.328h6.429V355.51
			C125.37,357.271,123.943,358.698,122.182,358.698z"/>
	</g>
	<g>
		<path style="fill:#BBAFC0;" d="M353.44,359.105h-0.307c-1.831,0-3.314-1.484-3.314-3.314V112.328h6.936V355.79
			C356.754,357.621,355.27,359.105,353.44,359.105z"/>
	</g>
	<g>
		<path style="fill:#C7BFCE;" d="M245.712,202.365h-24.518c-0.426,0-0.771-0.345-0.771-0.771V182.44
			c0-0.426,0.345-0.771,0.771-0.771h24.518c0.426,0,0.771,0.345,0.771,0.771v19.153
			C246.483,202.019,246.138,202.365,245.712,202.365z"/>
	</g>
	<g>
		<path style="fill:#DDD7E0;" d="M240.791,202.365h-24.518c-0.426,0-0.771-0.345-0.771-0.771V182.44
			c0-0.426,0.345-0.771,0.771-0.771h24.518c0.426,0,0.771,0.345,0.771,0.771v19.153
			C241.562,202.019,241.217,202.365,240.791,202.365z"/>
	</g>
	<g>
		<path style="fill:#C7BFCE;" d="M334.365,264.674h-25.667c-0.607,0-1.099-0.492-1.099-1.099V226.47
			c0-0.607,0.492-1.099,1.099-1.099h25.667c0.607,0,1.099,0.492,1.099,1.099v37.105
			C335.464,264.182,334.972,264.674,334.365,264.674z"/>
	</g>
	<g>
		<path style="fill:#EBE8ED;" d="M329.103,264.674h-25.667c-0.607,0-1.099-0.492-1.099-1.099V226.47
			c0-0.607,0.492-1.099,1.099-1.099h25.667c0.607,0,1.099,0.492,1.099,1.099v37.105C330.202,264.182,329.71,264.674,329.103,264.674
			z"/>
	</g>
	<g>
		<path style="fill:#DDD7E0;" d="M306.178,220.725h-39.939c-0.726,0-1.315-0.589-1.315-1.315v-34.212
			c0-0.726,0.589-1.315,1.315-1.315h39.939c0.726,0,1.315,0.589,1.315,1.315v34.212
			C307.493,220.136,306.904,220.725,306.178,220.725z"/>
	</g>
	<g>
		<path style="fill:#EBE8ED;" d="M298.139,220.725H258.2c-0.726,0-1.315-0.589-1.315-1.315v-34.212c0-0.726,0.589-1.315,1.315-1.315
			h39.939c0.726,0,1.315,0.589,1.315,1.315v34.212C299.454,220.136,298.865,220.725,298.139,220.725z"/>
	</g>
</g>
<g>
	<path style="fill:#E0DFE5;" d="M696.932,290.994H456.443V124.749c0-8.231,6.673-14.904,14.904-14.904h210.681
		c8.231,0,14.904,6.673,14.904,14.904V290.994z"/>
</g>
<g>
	<g>
		<path style="fill:#ED8F29;" d="M588.827,148.175h-57.662c-0.83,0-1.503-0.673-1.503-1.503v-30.747c0-0.83,0.673-1.503,1.503-1.503
			h57.662c0.83,0,1.503,0.673,1.503,1.503v30.747C590.33,147.502,589.657,148.175,588.827,148.175z"/>
	</g>
	<g>
		<path style="fill:#FCA338;" d="M577.371,148.175h-57.662c-0.83,0-1.503-0.673-1.503-1.503v-30.747c0-0.83,0.673-1.503,1.503-1.503
			h57.662c0.83,0,1.503,0.673,1.503,1.503v30.747C578.874,147.502,578.201,148.175,577.371,148.175z"/>
	</g>
	<g>
		<path style="fill:#ED8F29;" d="M645.371,148.175h-39.451c-0.537,0-0.972-0.435-0.972-0.972v-18.751
			c0-0.537,0.435-0.972,0.972-0.972h39.451c0.537,0,0.972,0.435,0.972,0.972v18.751C646.343,147.74,645.908,148.175,645.371,148.175
			z"/>
	</g>
	<g>
		<path style="fill:#FCA338;" d="M637.555,148.175h-39.451c-0.537,0-0.972-0.435-0.972-0.972v-18.751
			c0-0.537,0.435-0.972,0.972-0.972h39.451c0.537,0,0.972,0.435,0.972,0.972v18.751C638.527,147.74,638.091,148.175,637.555,148.175
			z"/>
	</g>
	<g>
		<path style="fill:#ED8F29;" d="M632.858,127.74H608.34c-0.426,0-0.771-0.345-0.771-0.771v-19.153c0-0.426,0.345-0.771,0.771-0.771
			h24.518c0.426,0,0.771,0.345,0.771,0.771v19.153C633.629,127.394,633.284,127.74,632.858,127.74z"/>
	</g>
	<g>
		<path style="fill:#FFB655;" d="M627.936,127.74h-24.518c-0.426,0-0.771-0.345-0.771-0.771v-19.153
			c0-0.426,0.345-0.771,0.771-0.771h24.518c0.426,0,0.771,0.345,0.771,0.771v19.153C628.708,127.394,628.362,127.74,627.936,127.74z
			"/>
	</g>
	<g>
		<path style="fill:#ED8F29;" d="M553.216,209.518h-24.518c-0.426,0-0.771-0.345-0.771-0.771v-19.153
			c0-0.426,0.345-0.771,0.771-0.771h24.518c0.426,0,0.771,0.345,0.771,0.771v19.153
			C553.987,209.172,553.642,209.518,553.216,209.518z"/>
	</g>
	<g>
		<path style="fill:#FCA338;" d="M548.295,209.518h-24.518c-0.426,0-0.771-0.345-0.771-0.771v-19.153
			c0-0.426,0.345-0.771,0.771-0.771h24.518c0.426,0,0.771,0.345,0.771,0.771v19.153
			C549.066,209.172,548.721,209.518,548.295,209.518z"/>
	</g>
	<g>
		<path style="fill:#ED8F29;" d="M645.244,204.933h-25.667c-0.607,0-1.099-0.492-1.099-1.099v-37.105
			c0-0.607,0.492-1.099,1.099-1.099h25.667c0.607,0,1.099,0.492,1.099,1.099v37.105
			C646.343,204.441,645.851,204.933,645.244,204.933z"/>
	</g>
	<g>
		<path style="fill:#FCA338;" d="M639.983,204.933h-25.667c-0.607,0-1.099-0.492-1.099-1.099v-37.105
			c0-0.607,0.492-1.099,1.099-1.099h25.667c0.607,0,1.099,0.492,1.099,1.099v37.105
			C641.082,204.441,640.589,204.933,639.983,204.933z"/>
	</g>
	<g>
		<path style="fill:#FCA338;" d="M582.099,205.792h-30.52v-31.13c0-0.876,0.711-1.587,1.587-1.587h27.346
			c0.877,0,1.587,0.711,1.587,1.587V205.792z"/>
	</g>
	<g>
		<rect x="505.283" y="205.1" style="fill:#C7BFCE;" width="149.918" height="4.678"/>
	</g>
	<g>
		<rect x="504.636" y="148.027" style="fill:#C7BFCE;" width="149.918" height="4.678"/>
	</g>
	<g>
		<rect x="502.534" y="109.845" style="fill:#C7BFCE;" width="8.667" height="134.809"/>
	</g>
	<g>
		<rect x="650.867" y="109.845" style="fill:#C7BFCE;" width="8.667" height="134.809"/>
	</g>
</g>
<g>
	<g>
		<path style="fill:#F48462;" d="M540.394,204.416c0,0-6.591-5.061-8.408-3.758c-1.817,1.303,3.813,5.317,3.813,5.317l-6.114,2.098
			c0,0-6.501,2.934-7.167,4.268c-0.666,1.335,2.489,1.603,2.489,1.603s-4.696,2.009-2.641,3.4c2.055,1.391,5.504,0.298,5.504,0.298
			s-4.757,1.764-2.137,3.217c1.417,0.786,13.569-1.068,18.863-5.784s-0.38-7.099-0.38-7.099L540.394,204.416z"/>
	</g>
	<g>
		<path d="M530.747,217.127c-0.018,0-0.036-0.002-0.055-0.005c-0.179-0.03-0.299-0.199-0.269-0.378l1.309-7.717
			c0.03-0.179,0.19-0.3,0.378-0.268c0.179,0.03,0.299,0.199,0.268,0.378l-1.309,7.717
			C531.042,217.014,530.904,217.127,530.747,217.127z"/>
	</g>
	<g>
		<path d="M539.549,211.828c-0.564,0-1.197-0.116-1.802-0.48c-1.362-0.819-2.128-2.621-2.275-5.355
			c-0.01-0.181,0.129-0.335,0.31-0.345c0.19-0.027,0.336,0.129,0.345,0.31c0.135,2.503,0.794,4.127,1.959,4.828
			c1.35,0.813,2.955,0.086,2.972,0.078c0.166-0.075,0.359-0.004,0.436,0.16c0.076,0.164,0.004,0.359-0.16,0.436
			C541.283,211.482,540.52,211.828,539.549,211.828z"/>
	</g>
	<g>
		<path style="fill:#A37B90;" d="M573.851,176.765c0,0-8.027,13.101-16.48,17.765c-8.453,4.664-16.867,8.836-16.867,8.836
			l3.751,16.378c0,0,21.715,0.806,30.314-10.382C583.168,198.173,573.851,176.765,573.851,176.765z"/>
	</g>
	<g>
		<path style="fill:#92B4EA;" d="M567.678,219.985c0,0,3.394-42.213,7.11-44.655c3.716-2.443,29.125-2.143,29.125-2.143
			s-3.11,10.194-1.361,17.627s5.407,9.182,5.407,9.182l-0.871,22.288L567.678,219.985z"/>
	</g>
	<g>
		<path style="fill:#92B4EA;" d="M568.836,216.293c0,0-5.021,9.441-7.468,29.837c-1.568,13.066-0.784,33.31,0.953,34.064
			c1.737,0.754,16.188,0.252,16.188,0.252s6.897,1.68,18.867,1.315c8.688-0.265,12.089-1.094,12.089-1.094s2.559-57.28-5.565-69.084
			C599.097,204.606,568.836,216.293,568.836,216.293z"/>
	</g>
	<g>
		<path style="fill:#92B4EA;" d="M569.541,213.112l-1.863,6.873c0,0,12.851,2.949,23.766,2.165
			c10.915-0.783,15.235-1.856,15.235-1.856l-5.147-28.753l-4.399-18.355l-14.393,0.815L569.541,213.112z"/>
	</g>
	<g>
		<path style="fill:#8B558E;" d="M583.489,175.666c0,0-0.497-4.181,0.651-4.337c1.148-0.155,2.419,0.662,5.104,0.252
			c2.686-0.41,4.142-1.241,4.985-1.218c0.843,0.023,0.119,5.176,0.119,5.176l-6.73,2.1L583.489,175.666z"/>
	</g>
	<g>
		<path style="fill:#6373AD;" d="M603.913,231.75c-0.03,0-0.06-0.004-0.092-0.014c-6.115-1.778-7.005-7.495-7.013-7.553
			c-0.026-0.18,0.098-0.346,0.277-0.371c0.173-0.023,0.346,0.098,0.371,0.277c0.032,0.218,0.848,5.359,6.548,7.018
			c0.174,0.05,0.273,0.232,0.223,0.406C604.186,231.657,604.055,231.75,603.913,231.75z"/>
	</g>
	<g>
		<path style="fill:#FFB655;" d="M593.371,169.491c0,0,2.309,0.673,3.037,1.713c0.816,1.166-0.533,4.352-4.585,6.929
			c-2.96,1.883-5.487,2.597-5.487,2.597s-2.749-3.549-3.326-5.742c-0.577-2.194,1.178-5.154,1.178-5.154L593.371,169.491z"/>
	</g>
	<g>
		<path style="fill:#FFB655;" d="M588.748,178.18c0,0,2.038,2.604,2.573,6.776c0.535,4.173-1.74,8.957-1.74,8.957
			s-4.042-4.29-4.668-7.608c-0.626-3.318,1.002-8.113,1.002-8.113s-1.634,4.076-1.989,6.549c-0.355,2.473-0.853,5.653-0.853,5.653
			s-2.468-3.056-2.449-6.782c0.018-3.726,3.934-6.301,3.934-6.301L588.748,178.18z"/>
	</g>
	<g>
		<path style="fill:#6373AD;" d="M588.317,185.08c-0.279,0-0.526-0.116-0.716-0.336c-0.96-1.118-0.23-5.123-0.145-5.576
			c0.027-0.143,0.146-0.251,0.291-0.265c0.133-0.017,0.281,0.068,0.336,0.204c0.293,0.73,1.718,4.43,0.971,5.581
			c-0.159,0.245-0.401,0.38-0.699,0.391C588.342,185.079,588.33,185.08,588.317,185.08z M587.908,180.533
			c-0.189,1.51-0.248,3.272,0.191,3.783c0.067,0.079,0.142,0.104,0.232,0.107c0.096-0.003,0.137-0.038,0.172-0.093
			C588.829,183.83,588.424,182.078,587.908,180.533z"/>
	</g>
	<g>
		<path d="M592.029,148.065c0,0,3.128-11.719,9.2-7.784s-0.036,14.91-4.743,14.122C591.779,153.616,592.029,148.065,592.029,148.065
			z"/>
	</g>
	<g>
		<path d="M580.364,160.38c0,0-2.72-3.005-1.936-7.662c0.531-3.157,1.936-4.179,1.936-4.179s-2.14-4.31,4.23-4.048
			s10.119,3.389,10.119,3.389s2.912-1.43,4.218,1.965c1.306,3.395,0,8.405,0,8.405L580.364,160.38z"/>
	</g>
	<g>
		<g>
			<g>
				<g>
					<path style="fill:#F48462;" d="M594.349,165.63l-0.195,7.777c0,0-1.458,2.2-6.017,2.456c-3.396,0.19-4.425-1.577-4.425-1.577
						l0.992-6.785l8.26-1.601L594.349,165.63z"/>
				</g>
			</g>
		</g>
	</g>
	<g>
		<g>
			<g>
				<g>
					<path d="M594.349,165.155c-0.025,0.212-0.112,0.461-0.245,0.745c-1.838,3.841-8.002,5.304-9.963,5.43l0.562-3.829
						L594.349,165.155z"/>
				</g>
			</g>
		</g>
	</g>
	<g>
		<g>
			<g>
				<g>
					<path style="fill:#F48462;" d="M583.414,149.732c0,0-4.326,9.648-2.853,15.105c1.473,5.458,6.44,4.648,9.417,3.625
						c2.977-1.024,4.372-2.83,4.372-2.83s2.763,0.966,4.641-1.593c1.878-2.559,0.765-5.53-0.811-6.224
						c-1.576-0.693-3.469,0.431-3.469,0.431l1.502-2.801C596.213,155.444,590.145,141.076,583.414,149.732z"/>
				</g>
			</g>
		</g>
	</g>
	<g>
		<g>
			<g>
				<g>
					<path d="M594.711,158.246c0,0-4.166,0.841-7.061-3.796c-2.894-4.636-2.629-6.54-2.629-6.54l-2.884,4.786
						c0,0-0.645-3.319,0.683-5.435c1.327-2.116,2.705-1.677,2.705-1.677l9.186,2.295l2.419,7.363L594.711,158.246z"/>
				</g>
			</g>
		</g>
	</g>
	<g>
		<path d="M583.744,162.065c-0.141,0-0.271-0.091-0.314-0.232c-0.638-2.082,0.834-4.193,0.896-4.282
			c0.105-0.148,0.31-0.182,0.457-0.078c0.148,0.104,0.183,0.309,0.078,0.457c-0.014,0.019-1.347,1.939-0.805,3.71
			c0.053,0.173-0.044,0.357-0.218,0.41C583.808,162.061,583.775,162.065,583.744,162.065z"/>
	</g>
	<g>
		<path d="M595.111,162.811c-0.081,0-0.162-0.03-0.225-0.09c-0.132-0.124-0.137-0.332-0.013-0.463l2.64-2.781
			c0.125-0.132,0.332-0.137,0.464-0.012c0.132,0.125,0.137,0.332,0.013,0.463l-2.64,2.781
			C595.285,162.776,595.198,162.811,595.111,162.811z"/>
	</g>
	<g>
		<path d="M597.899,162.071c-0.017,0-0.033-0.002-0.05-0.004l-1.819-0.281c-0.18-0.028-0.302-0.195-0.274-0.374
			c0.028-0.179,0.198-0.297,0.374-0.274l1.819,0.281c0.18,0.028,0.302,0.195,0.274,0.375
			C598.198,161.955,598.058,162.071,597.899,162.071z"/>
	</g>
	<g>
		<path d="M587.346,164.896c-0.785,0-1.599-0.3-1.736-0.353c-0.109-0.042-0.188-0.141-0.206-0.257
			c-0.018-0.117,0.029-0.234,0.122-0.307l2.604-2.043c0.076-0.061,0.181-0.083,0.271-0.063c0.096,0.021,0.177,0.083,0.222,0.17
			c0.032,0.061,0.765,1.509-0.047,2.413C588.276,164.789,587.816,164.896,587.346,164.896z M586.42,164.111
			c0.637,0.159,1.384,0.223,1.668-0.093c0.314-0.35,0.217-0.917,0.099-1.294L586.42,164.111z"/>
	</g>
	<g>
		<path d="M581.878,154.131c-0.157,0-0.295-0.112-0.323-0.272c-0.031-0.178,0.089-0.348,0.267-0.379l1.721-0.299
			c0.183-0.031,0.348,0.088,0.38,0.267c0.031,0.178-0.089,0.348-0.267,0.379l-1.721,0.299
			C581.915,154.129,581.897,154.131,581.878,154.131z"/>
	</g>
	<g>
		<path d="M589.03,155.261c-0.05,0-0.101-0.012-0.148-0.036l-2.821-1.429c-0.161-0.082-0.226-0.279-0.145-0.44
			c0.083-0.163,0.278-0.226,0.441-0.145l2.821,1.429c0.161,0.082,0.226,0.279,0.145,0.44
			C589.264,155.195,589.149,155.261,589.03,155.261z"/>
	</g>
	<g>
		<path d="M581.878,158.108c-0.032,0-0.064-0.005-0.097-0.015c-0.173-0.053-0.269-0.237-0.217-0.41l0.485-1.581l-0.426-0.521
			c-0.114-0.14-0.094-0.347,0.047-0.462c0.14-0.113,0.347-0.094,0.461,0.046l0.537,0.657c0.069,0.085,0.092,0.199,0.06,0.304
			l-0.537,1.749C582.149,158.017,582.019,158.108,581.878,158.108z"/>
	</g>
	<g>
		<path d="M586.773,158.578c-0.032,0-0.065-0.005-0.097-0.015c-0.173-0.053-0.27-0.237-0.217-0.41l0.484-1.577l-0.625-0.729
			c-0.118-0.137-0.102-0.344,0.035-0.462c0.139-0.117,0.346-0.102,0.463,0.036l0.742,0.866c0.073,0.086,0.098,0.202,0.064,0.31
			l-0.537,1.749C587.043,158.487,586.914,158.578,586.773,158.578z"/>
	</g>
	<g>
		<path style="fill:#FFB655;" d="M594.23,170.364c0,0-5.353,3.921-7.957,4.032c-2.604,0.11-2.31-2.068-2.31-2.068l-0.58,1.674
			l1.756,6.294l7.42-4.815l3.109-3.719L594.23,170.364z"/>
	</g>
	<g>
		<path style="fill:#6373AD;" d="M588.123,179.407c-1.042,0-2.303-0.296-2.496-0.344c-0.095-0.022-0.179-0.086-0.224-0.182
			c-0.253-0.546-1.48-3.324-0.786-4.354c0.132-0.196,0.398-0.417,0.882-0.402c0.391,0.019,0.704,0.192,0.906,0.501
			c0.616,0.941,0.018,3.018-0.271,3.879c0.76,0.157,2.079,0.363,2.682,0.168c0.633-0.206,0.925-2.399,0.631-3.621
			c-0.043-0.176,0.065-0.353,0.241-0.395c0.181-0.042,0.354,0.066,0.396,0.242c0.263,1.09,0.215,3.982-1.065,4.398
			C588.772,179.376,588.459,179.407,588.123,179.407z M585.429,174.779c-0.166,0-0.229,0.057-0.268,0.115
			c-0.289,0.429,0.062,1.774,0.503,2.919c0.303-1.045,0.521-2.326,0.192-2.829c-0.087-0.133-0.207-0.196-0.389-0.205
			C585.455,174.779,585.441,174.779,585.429,174.779z"/>
	</g>
	<g>
		<path style="fill:#F48462;" d="M580.255,209.531c0,0-14.593,2.671-17.148,4.486c-2.555,1.816,1.312,12.534,3.935,13.554
			c2.623,1.02,2.04-2.04,2.04-2.04s9.473-0.312,12.825-4.456C585.259,216.932,580.255,209.531,580.255,209.531z"/>
	</g>
	<g>
		<path style="fill:#A37B90;" d="M603.912,173.187c0,0,8.258-0.239,11.974,8.803c3.716,9.042,10.056,27.371-5.833,36.587
			c-12.507,7.255-29.8,6.558-29.8,6.558l-0.876-15.774l21.143-12.645C600.522,196.716,599.59,180.045,603.912,173.187z"/>
	</g>
	<g>
		<path d="M569.082,225.859c-0.086,0-0.169-0.034-0.231-0.096l-1.404-1.395c-0.128-0.127-0.129-0.335-0.001-0.464
			c0.127-0.129,0.335-0.128,0.464-0.001l1.078,1.071l0.477-0.982c0.08-0.162,0.273-0.229,0.439-0.151
			c0.163,0.079,0.23,0.275,0.151,0.439l-0.678,1.395c-0.046,0.095-0.136,0.162-0.24,0.18
			C569.119,225.857,569.101,225.859,569.082,225.859z"/>
	</g>
	<g>
		<path style="fill:#FFFFFF;" d="M562.147,200.777c-0.425,0-0.816-0.157-1.166-0.469c-1.761-1.566-1.943-6.801-1.95-7.023
			c-0.004-0.141,0.082-0.269,0.214-0.318c0.132-0.05,0.28-0.009,0.369,0.102c0.726,0.9,4.31,5.474,3.617,7.098
			c-0.107,0.248-0.354,0.554-0.933,0.604C562.248,200.775,562.197,200.777,562.147,200.777z M559.757,194.321
			c0.141,1.587,0.546,4.507,1.659,5.497c0.256,0.227,0.53,0.323,0.825,0.299c0.309-0.026,0.362-0.154,0.386-0.208
			C562.974,199.098,561.317,196.398,559.757,194.321z"/>
	</g>
	<g>
		<path style="fill:#FFFFFF;" d="M602.278,197.096c-0.801,0-1.456-0.033-1.776-0.053c-0.15-0.009-0.275-0.12-0.302-0.269
			c-0.027-0.148,0.051-0.296,0.188-0.358c1.512-0.677,6.535-2.817,7.642-1.937c0.13,0.103,0.334,0.338,0.251,0.768
			C607.976,196.831,604.543,197.096,602.278,197.096z M602.014,196.436c2.605,0.037,5.436-0.342,5.622-1.312
			c0.021-0.103-0.003-0.122-0.014-0.129C607.16,194.626,604.575,195.395,602.014,196.436z"/>
	</g>
</g>
<g>
	<path style="fill:#FFFFFF;" d="M691.534,211.232h-26.666c-0.276,0-0.5-0.224-0.5-0.5c0-0.276,0.224-0.5,0.5-0.5h26.666
		c0.276,0,0.5,0.224,0.5,0.5C692.034,211.009,691.81,211.232,691.534,211.232z"/>
</g>
<g>
	<path style="fill:#FFFFFF;" d="M691.534,193.669h-26.666c-0.276,0-0.5-0.224-0.5-0.5c0-0.276,0.224-0.5,0.5-0.5h26.666
		c0.276,0,0.5,0.224,0.5,0.5C692.034,193.445,691.81,193.669,691.534,193.669z"/>
</g>
<g>
	<path style="fill:#FFFFFF;" d="M691.534,176.105h-26.666c-0.276,0-0.5-0.224-0.5-0.5c0-0.276,0.224-0.5,0.5-0.5h26.666
		c0.276,0,0.5,0.224,0.5,0.5C692.034,175.881,691.81,176.105,691.534,176.105z"/>
</g>
<g>
	<path style="fill:#FFFFFF;" d="M492.966,165.237H466.3c-0.276,0-0.5-0.224-0.5-0.5s0.224-0.5,0.5-0.5h26.666
		c0.276,0,0.5,0.224,0.5,0.5S493.243,165.237,492.966,165.237z"/>
</g>
<g>
	<path style="fill:#FFFFFF;" d="M492.966,147.673H466.3c-0.276,0-0.5-0.224-0.5-0.5c0-0.276,0.224-0.5,0.5-0.5h26.666
		c0.276,0,0.5,0.224,0.5,0.5C493.466,147.449,493.243,147.673,492.966,147.673z"/>
</g>
<g>
	<path style="fill:#FFFFFF;" d="M492.966,130.109H466.3c-0.276,0-0.5-0.224-0.5-0.5c0-0.276,0.224-0.5,0.5-0.5h26.666
		c0.276,0,0.5,0.224,0.5,0.5C493.466,129.886,493.243,130.109,492.966,130.109z"/>
</g>
<g>
	<path style="fill:#E0DFE5;" d="M438.522,203.271H409.18c-4.048,0-7.329-3.281-7.329-7.329v-65.121c0-4.048,3.281-7.329,7.329-7.329
		h29.342c4.048,0,7.329,3.281,7.329,7.329v65.121C445.851,199.99,442.569,203.271,438.522,203.271z"/>
</g>
<g>
	<g>
		<polygon style="fill:#F48462;" points="755.458,325.067 756.858,337.443 773.183,336.116 773.182,327.514 		"/>
	</g>
	<g>
		<polygon style="fill:#F48462;" points="783.954,322.903 785.599,337.443 801.924,336.116 799.897,327.234 		"/>
	</g>
	<g>
		<path style="fill:#966E85;" d="M757.146,333.529c-0.871,0.062-1.668,0.481-2.197,1.159c-1.67,2.14-5.398,6.822-6.499,7.423
			c-1.433,0.783-16.515,6.765-19.29,9.766c-2.774,3.001-2.631,8.566-1.754,9.038c0.749,0.402,37.745-2.112,48.574-2.857
			c1.643-0.113,2.895-1.48,2.828-3.088l-0.823-19.838c-0.07-1.684-1.554-2.978-3.275-2.855L757.146,333.529z"/>
	</g>
	<g>
		<path style="fill:#FFFFFF;" d="M750.961,338.957c0,0,7.572,7.492,5.996,8.231c-1.575,0.739-15.354-0.491-15.092-1.938
			C742.127,343.802,749.317,338.937,750.961,338.957z"/>
	</g>
	<g>
		<path style="fill:#A37B90;" d="M784.326,333.528c-0.873,0.045-1.681,0.448-2.225,1.115c-1.72,2.106-5.557,6.713-6.672,7.292
			c-1.452,0.754-16.685,6.435-19.529,9.38c-2.845,2.945-2.826,8.512-1.958,9c0.741,0.417,37.834-1.361,48.692-1.891
			c1.648-0.08,2.931-1.422,2.9-3.031l-0.38-19.85c-0.032-1.685-1.489-3.008-3.215-2.92L784.326,333.528z"/>
	</g>
	<g>
		<path style="fill:#FFFFFF;" d="M778.013,338.831c0,0,7.413,7.641,5.819,8.349c-1.594,0.707-15.36-0.797-15.065-2.238
			C769.061,343.5,776.368,338.779,778.013,338.831z"/>
	</g>
	<g>
		<path style="fill:#6373AD;" d="M748.828,232.637c0,0-14.842,32.913-16.113,48.022c-1.271,15.109,19.075,51.921,19.075,51.921
			h26.468c0,0-14.567-43.954-14.632-57.965c-0.065-14.01,6.279-43.537,6.279-43.537L748.828,232.637z"/>
	</g>
	<g>
		<polygon style="fill:#6373AD;" points="768.882,248.186 765.631,246.226 745.592,240.147 748.828,232.637 771.683,235.618 		"/>
	</g>
	<g>
		<path style="fill:#6373AD;" d="M795.948,232.637c0,0-1.498,30.441,0,42.528s13.543,54.991,12.789,56.089
			c-0.754,1.099-30.479,1.326-30.479,1.326s-14.108-34.889-16.465-54.668c-2.357-19.78,5.598-45.275,5.598-45.275H795.948z"/>
	</g>
	<g>
		<path style="fill:#68B6D8;" d="M734.321,216.999l43.941,3.978l1.061,3.249c2.002-0.358,3.898-0.252,5.344,0.716
			c3.633,2.426,0.318,10.183,0.318,10.183s-0.517,0.623-1.618,1.485l1.75,3.421c0,0,12.713-2.354,20.881-12.736
			c8.181-10.382,11.572-31.285,2.516-43.881c-9.056-12.596-21.619-14.055-21.619-14.055s-19.876-3.62-34.461,9.639
			C737.848,192.257,734.321,216.999,734.321,216.999z"/>
	</g>
	<g>
		<g>
			<g>
				<g>
					<path style="fill:#F48462;" d="M788.235,163.787l-0.168,7.555c0,0-1.411,2.142-5.838,2.403
						c-3.298,0.195-4.438-0.576-4.438-0.576l0.544-3.816l0.535-3.721l8.02-1.578L788.235,163.787z"/>
				</g>
			</g>
		</g>
	</g>
	<g>
		<g>
			<g>
				<g>
					<path d="M786.89,164.053c-0.024,0.206-0.107,0.448-0.236,0.724c-1.774,3.736-6.414,4.447-8.319,4.575l0.535-3.721
						L786.89,164.053z"/>
				</g>
			</g>
		</g>
	</g>
	<g>
		<g>
			<g>
				<g>
					<path style="fill:#F48462;" d="M777.568,148.374c0,0-4.175,9.384-2.729,14.682c1.446,5.298,6.269,4.498,9.158,3.495
						c2.889-1.003,4.239-2.762,4.239-2.762s2.686,0.931,4.504-1.561c1.818-2.492,0.728-5.374-0.805-6.044
						c-1.533-0.669-3.369,0.429-3.369,0.429l1.451-2.726C790.018,153.887,784.083,139.947,777.568,148.374z"/>
				</g>
			</g>
		</g>
	</g>
	<g>
		<path d="M777.922,160.364c-0.14,0-0.27-0.09-0.313-0.232c-0.626-2.025,0.799-4.083,0.859-4.17c0.106-0.148,0.31-0.183,0.457-0.079
			c0.147,0.104,0.184,0.308,0.08,0.456c-0.014,0.019-1.3,1.884-0.77,3.599c0.054,0.173-0.044,0.356-0.217,0.41
			C777.987,160.359,777.955,160.364,777.922,160.364z"/>
	</g>
	<g>
		<path d="M788.967,161.056c-0.081,0-0.162-0.03-0.225-0.09c-0.132-0.124-0.138-0.332-0.014-0.463l2.557-2.709
			c0.124-0.132,0.333-0.138,0.463-0.013c0.132,0.124,0.138,0.331,0.014,0.463l-2.557,2.709
			C789.141,161.021,789.054,161.056,788.967,161.056z"/>
	</g>
	<g>
		<path d="M791.673,160.33c-0.049-0.004-1.817-0.271-1.817-0.271c-0.18-0.027-0.303-0.194-0.275-0.373
			c0.026-0.179,0.187-0.301,0.373-0.275l1.769,0.268c0.18,0.027,0.303,0.194,0.275,0.373
			C791.973,160.213,791.833,160.33,791.673,160.33z"/>
	</g>
	<g>
		<path d="M780.898,163.258c-0.974,0-1.758-0.788-1.799-0.83c-0.079-0.081-0.111-0.197-0.084-0.307
			c0.026-0.11,0.107-0.198,0.215-0.234l3.68-1.223c0.119-0.038,0.244-0.008,0.331,0.075c0.088,0.085,0.121,0.211,0.087,0.328
			c-0.017,0.056-0.419,1.392-1.638,2.001C781.42,163.205,781.153,163.258,780.898,163.258z M780.021,162.316
			c0.357,0.218,0.877,0.415,1.376,0.166c0.47-0.235,0.791-0.621,0.996-0.955L780.021,162.316z"/>
	</g>
	<g>
		<path d="M782.187,156.853c-0.221-0.026-0.349-0.19-0.325-0.37l0.224-1.754c0.023-0.18,0.188-0.313,0.366-0.284
			c0.18,0.023,0.308,0.187,0.284,0.367l-0.224,1.754C782.491,156.732,782.35,156.853,782.187,156.853z"/>
	</g>
	<g>
		<path d="M776.981,156.435c-0.227-0.03-0.351-0.197-0.324-0.376l0.257-1.749c0.025-0.178,0.187-0.303,0.372-0.276
			c0.179,0.026,0.303,0.193,0.276,0.372l-0.257,1.749C777.282,156.317,777.141,156.435,776.981,156.435z"/>
	</g>
	<g>
		<path d="M783.821,153.491c-0.119,0-0.233-0.065-0.292-0.178c-0.416-0.81-1.538-0.586-1.586-0.575
			c-0.183,0.038-0.352-0.077-0.389-0.253c-0.037-0.176,0.074-0.35,0.251-0.388c0.066-0.015,1.661-0.341,2.308,0.916
			c0.082,0.161,0.019,0.358-0.142,0.441C783.923,153.48,783.872,153.491,783.821,153.491z"/>
	</g>
	<g>
		<path d="M778.737,152.408c-0.104,0-0.207-0.05-0.27-0.143c-0.157-0.229-0.339-0.354-0.557-0.382
			c-0.436-0.05-0.96,0.301-1.122,0.443c-0.137,0.118-0.343,0.106-0.463-0.03c-0.119-0.136-0.106-0.342,0.029-0.462
			c0.032-0.029,0.799-0.711,1.635-0.602c0.41,0.051,0.753,0.274,1.018,0.663c0.103,0.149,0.065,0.354-0.085,0.456
			C778.866,152.389,778.801,152.408,778.737,152.408z"/>
	</g>
	<g>
		<path style="fill:#6373AD;" d="M798.291,173.796c0,0-5.438,6.076-8.046,16.832c-2.608,10.756-0.342,19.443-0.342,19.443
			l-10.58,14.155l-7.034-26.352l0.893-8.739l9.039-0.299c0,0,4.157-10.247,5.52-12.573c2.163-3.693,4.047-5.621,4.047-5.621
			L798.291,173.796z"/>
	</g>
	<g>
		<g>
			<g>
				<g>
					<path style="fill:#F48462;" d="M732.049,204.708c0,0,5.633-9.292,6.998-6.207c1.365,3.085-2.14,8.291-2.14,8.291
						L732.049,204.708z"/>
				</g>
			</g>
		</g>
	</g>
	<g>
		<path d="M788.567,156.613c0,0,0.289,1.707-1.677,0c-1.966-1.707-1.884-4.053-2.778-6.939c-0.895-2.885-3.013-4.848-4.778-3.074
			s-1.765,1.773-1.765,1.773l3.945-4.374c0,0,5.378-4.095,10.16,0.52c5.474,5.282,3.416,8.251,3.416,8.251
			S792.431,155.227,788.567,156.613z"/>
	</g>
	<g>
		<path style="fill:#FCA338;" d="M735.457,238.556h34.741c0.682,0,1.236-0.553,1.236-1.236v-34.741c0-0.682-0.553-1.236-1.236-1.236
			h-34.741c-0.682,0-1.236,0.553-1.236,1.236v34.741C734.221,238.003,734.774,238.556,735.457,238.556z"/>
	</g>
	<g>
		<path style="fill:#FFB655;" d="M745.898,238.698h34.741c0.683,0,1.236-0.553,1.236-1.236v-34.741c0-0.683-0.553-1.236-1.236-1.236
			h-34.741c-0.682,0-1.236,0.553-1.236,1.236v34.741C744.662,238.145,745.215,238.698,745.898,238.698z"/>
	</g>
	<g>
		<path style="fill:#68B6D8;" d="M779.323,224.226l4.044,12.384c3.349,0,6.878-3.764,6.878-3.764s-0.244-8.333-3.877-10.759
			C784.923,221.118,781.173,221.881,779.323,224.226z"/>
	</g>
	<g>
		<path style="fill:#F48462;" d="M769.87,241.423c6.961-0.504,11.337-3.116,13.498-4.813l-4.044-12.384
			c-3.05,0.53-6.351,2.148-8.685,3.461c-3.885,2.174-2.426,2.904-0.729,3.394c1.697,0.477,7.332-0.888,4.296,1.618
			c-1.724,1.419-10.886,0.477-12.331,2.426c-1.459,1.936,4.124,2.904,4.124,2.904s-4.614-0.477-5.821,0.239
			C758.957,238.997,764.221,241.847,769.87,241.423z"/>
	</g>
	<g>
		<g>
			<g>
				<g>
					<path style="fill:#F48462;" d="M730.215,209.59c0,0-5.532-2.902-2.722-4.876c2.81-1.974,13.773,0.801,13.681,4.359
						C741.083,212.629,730.215,209.59,730.215,209.59z"/>
				</g>
			</g>
		</g>
	</g>
	<g>
		<g>
			<g>
				<g>
					<path style="fill:#F48462;" d="M728.994,214.611c0,0-5.532-2.902-2.722-4.876c2.81-1.974,13.773,0.801,13.681,4.359
						C739.862,217.651,728.994,214.611,728.994,214.611z"/>
				</g>
			</g>
		</g>
	</g>
	<g>
		<g>
			<g>
				<g>
					<path style="fill:#F48462;" d="M730.834,219.907c-1.416-0.068-2.813-0.448-3.995-1.23c-1.046-0.692-1.823-1.653-0.747-2.725
						c2.153-2.145,12.131-1.378,12.587,1.738C739.017,220.002,733.633,220.04,730.834,219.907z"/>
				</g>
			</g>
		</g>
	</g>
	<g>
		<path style="fill:#FFFFFF;" d="M790.248,210.115c-0.061,0-0.124-0.018-0.179-0.054c-0.127-0.082-0.181-0.239-0.131-0.382
			c0.092-0.266,2.284-6.521,4.378-7.524c0.355-0.169,0.699-0.196,1.021-0.081c0.411,0.146,0.552,0.44,0.598,0.66
			c0.362,1.754-4.488,6.383-5.464,7.293C790.41,210.085,790.33,210.115,790.248,210.115z M794.937,202.66
			c-0.105,0-0.216,0.029-0.337,0.087c-1.225,0.587-2.685,3.683-3.531,5.792c2.04-2.032,4.414-4.756,4.225-5.672
			c-0.012-0.059-0.037-0.126-0.176-0.176C795.06,202.671,794.999,202.66,794.937,202.66z"/>
	</g>
	<g>
		<path d="M736.751,211.128c-0.023,0-0.047-0.003-0.071-0.008l-7.752-1.717c-0.177-0.039-0.288-0.215-0.249-0.392
			c0.04-0.176,0.208-0.284,0.392-0.249l7.752,1.717c0.177,0.039,0.288,0.215,0.249,0.392
			C737.038,211.023,736.902,211.128,736.751,211.128z"/>
	</g>
	<g>
		<path d="M736.274,215.904c-0.043-0.003-7.323-0.968-7.323-0.968c-0.18-0.023-0.306-0.188-0.282-0.368
			c0.024-0.18,0.176-0.312,0.368-0.282l7.28,0.965c0.18,0.023,0.306,0.188,0.282,0.368
			C736.577,215.784,736.436,215.904,736.274,215.904z"/>
	</g>
	<g>
		<path d="M767.902,239.029c-1.252,0-2.628-0.193-3.745-0.837c-0.156-0.091-0.211-0.291-0.12-0.448
			c0.091-0.157,0.292-0.209,0.448-0.12c2.499,1.442,6.677,0.348,6.719,0.337c0.17-0.05,0.355,0.057,0.401,0.231
			s-0.057,0.355-0.232,0.401C771.266,238.623,769.716,239.029,767.902,239.029z"/>
	</g>
	<g>
		<path d="M774.843,231.407c-0.169,0-0.312-0.129-0.327-0.3c-0.016-0.181,0.118-0.339,0.299-0.355l2.868-0.249
			c0.204,0.005,0.34,0.119,0.355,0.299c0.016,0.181-0.118,0.339-0.299,0.355l-2.868,0.249
			C774.862,231.406,774.852,231.407,774.843,231.407z"/>
	</g>
	<g>
		<path style="fill:#FFB655;" d="M777.793,331.741c-0.132,0-0.257-0.081-0.307-0.212c-0.16-0.42-16.016-42.228-16.236-55.797
			c-0.203-12.603,2.153-27.566,2.525-29.841l-12.07-3.254c-0.175-0.047-0.278-0.227-0.232-0.401
			c0.046-0.176,0.228-0.281,0.401-0.231l12.357,3.331c0.164,0.044,0.267,0.205,0.238,0.372c-0.028,0.163-2.783,16.465-2.565,30.015
			c0.218,13.454,16.033,55.154,16.193,55.574c0.064,0.169-0.021,0.358-0.19,0.423C777.872,331.734,777.832,331.741,777.793,331.741z
			"/>
	</g>
	<g>
		<path style="fill:#FFB655;" d="M755.853,283.506c-2.462,0-4.936-0.32-6.069-1.442c-0.366-0.363-0.472-0.695-0.313-0.987
			c0.713-1.315,9.298,0.41,12.954,1.213c0.153,0.033,0.261,0.171,0.258,0.328c-0.004,0.156-0.118,0.289-0.273,0.315
			C762.181,282.973,759.027,283.506,755.853,283.506z M750.056,281.384c0.019,0.01,0.06,0.086,0.188,0.213
			c1.719,1.701,7.283,1.299,10.211,0.947C755.559,281.553,750.615,280.883,750.056,281.384z"/>
	</g>
	<g>
		<path style="fill:#ED8F29;" d="M737.755,201.486h24.49c0.554,0,1.003-0.449,1.003-1.003v-32.777c0-0.554-0.449-1.003-1.003-1.003
			h-24.49c-0.554,0-1.003,0.449-1.003,1.003v32.777C736.752,201.037,737.201,201.486,737.755,201.486z"/>
	</g>
	<g>
		<path style="fill:#FCA338;" d="M753.83,201.486h24.49c0.554,0,1.003-0.449,1.003-1.003v-32.777c0-0.554-0.449-1.003-1.003-1.003
			h-24.49c-0.554,0-1.003,0.449-1.003,1.003v32.777C752.827,201.037,753.276,201.486,753.83,201.486z"/>
	</g>
	<g>
		<path d="M789.768,154.358c0,0-1.629,5.627-2.878,5.015c-1.248-0.612,1.039-6.21,1.039-6.21L789.768,154.358z"/>
	</g>
	<g>
		<path style="fill:#FFFFFF;" d="M780.299,174.124c-0.271,0-0.55-0.006-0.835-0.02c-0.181-0.009-0.32-0.163-0.311-0.344
			c0.009-0.175,0.153-0.312,0.327-0.312c5.418,0.265,8.336-2.321,8.365-2.348c0.135-0.122,0.342-0.113,0.463,0.021
			c0.122,0.133,0.114,0.34-0.02,0.462C788.171,171.692,785.464,174.124,780.299,174.124z"/>
	</g>
	<g>
		<path style="fill:#FFB655;" d="M793.356,157.569c0,0-20.405-9.803-21.469-11.814s5.682,0.649,5.682,0.649
			s4.848-8.157,13.832-2.714C799.589,148.65,793.356,157.569,793.356,157.569z"/>
	</g>
</g>
<g>
	<g>
		<g>
			<path style="fill:#59AAC6;" d="M424.533,364.25c-0.839-0.008-1.795,1.069-3.833,0.167c-2.018-0.878-37.074-22.169-37.302-23.889
				c-0.047-0.403,0.657-1.942,1.772-4.061c0.075-0.142,0.155-0.292,0.23-0.434c3.681-6.903,11.698-15.705,12.8-15.783
				c1.476-0.096,16.461,4.584,16.739,4.917c0.294,0.343-0.589,5.494,0,6.333c0.594,0.831,5.261,13.667,5.261,13.667
				s7.27,4.483,9.189,8.732c1.75,3.854-0.548,7.969-0.982,8.7c-0.061,0.08-0.078,0.128-0.078,0.128s-0.097,0.198-0.259,0.521
				C427.425,364.518,425.197,364.256,424.533,364.25z"/>
		</g>
	</g>
	<g>
		<path style="fill:#FFFFFF;" d="M416.956,336.241c-0.048-0.004-6.606-0.98-6.606-0.98c-0.18-0.026-0.303-0.193-0.276-0.372
			c0.026-0.179,0.198-0.311,0.372-0.276l6.559,0.977c0.18,0.026,0.303,0.193,0.276,0.372
			C417.256,336.124,417.117,336.241,416.956,336.241z"/>
	</g>
	<g>
		<path style="fill:#FFFFFF;" d="M418.218,340.142c-0.048-0.004-6.607-0.98-6.607-0.98c-0.18-0.026-0.303-0.193-0.276-0.372
			c0.026-0.179,0.194-0.311,0.372-0.276l6.559,0.977c0.18,0.026,0.303,0.193,0.276,0.372
			C418.518,340.024,418.378,340.142,418.218,340.142z"/>
	</g>
	<g>
		<path d="M397.02,159.796c0,0,11.265,9.109,6.395,15.634c-4.87,6.525-13.026-0.518-13.026-0.518L397.02,159.796z"/>
	</g>
	<g>
		<path d="M379.017,157.384c-0.305-0.298-9.764,3.821-11.671,16.408c-1.907,12.587,8.239,14.875,8.239,14.875l13.956-7.857
			l-5.377-23.98L379.017,157.384z"/>
	</g>
	<g>
		<g>
			<path style="fill:#F48462;" d="M450.611,199.531c0,0,2.446-4.676,5.708-6.235c3.262-1.559,6.795-2.182,5.708-0.312
				c-1.087,1.871-3.805,4.676-3.805,4.676h5.164c0,0,3.534-0.624,5.98-0.624c2.446,0,2.718,1.871,2.718,1.871s2.446,0,3.262,0.935
				c0.815,0.935-0.272,2.182-0.272,2.182s3.262,0.935,1.359,3.118c-1.903,2.182-9.513,4.676-13.047,5.3
				c-3.533,0.624-10.872-0.312-10.872-0.312S444.631,203.584,450.611,199.531z"/>
		</g>
	</g>
	<g>
		<path d="M468.028,205.375c-0.08,0-0.161-0.029-0.224-0.089l-7.171-6.713c-0.133-0.123-0.14-0.331-0.016-0.463
			c0.123-0.131,0.332-0.141,0.463-0.015l7.171,6.713c0.133,0.124,0.14,0.331,0.016,0.463
			C468.203,205.34,468.116,205.375,468.028,205.375z"/>
	</g>
	<g>
		<path d="M451.134,203.744c-0.036,0-0.072,0-0.109,0c-0.182-0.001-0.327-0.149-0.326-0.33c0.001-0.182,0.17-0.323,0.33-0.326
			c2.684-0.009,4.593-0.599,5.639-1.832c1.097-1.292,0.845-2.85,0.842-2.866c-0.03-0.178,0.089-0.348,0.267-0.379
			c0.174-0.028,0.348,0.087,0.38,0.266c0.013,0.075,0.311,1.862-0.98,3.394C456.014,203.047,453.982,203.744,451.134,203.744z"/>
	</g>
	<g>
		<g>
			<path style="fill:#445584;" d="M409.304,177.042c0,0,5.472,8.158,18.001,15.459c8.997,5.242,22.918,3.331,22.918,3.331
				l7.342,19.193c0,0-36.426,10.118-48.12-3.047C394.367,195.003,409.304,177.042,409.304,177.042z"/>
		</g>
	</g>
	<g>
		<g>
			<path d="M391.791,145.98c0,0-9.337-4.32-13.518,3.345c-4.059,7.442,1.951,14.355,1.951,14.355l10.313-10.731L391.791,145.98z"/>
		</g>
	</g>
	<g>
		<g>
			
				<rect x="381.443" y="330.258" transform="matrix(0.9997 0.0229 -0.0229 0.9997 7.9184 -8.8679)" style="fill:#F48462;" width="18.453" height="21.221"/>
		</g>
	</g>
	<g>
		<g>
			<path style="fill:#A37B90;" d="M379.763,230.925c0,0-3.388,12.057-3.583,35.738c-0.168,20.446-4.001,65.86-2.404,67.968
				c0.924,1.219,33.507,0.794,34.138,0.308c1.09-0.839,1.538-14.762,1.538-14.762s20.913-35.061,23.681-40.904
				c2.768-5.843-15.377-56.782-15.377-56.782L379.763,230.925z"/>
		</g>
	</g>
	<g>
		<g>
			<path style="fill:#445584;" d="M387.001,173.358c0,0-14.762,5.396-16.608,13.632c-1.845,8.236,11.072,41.181,14.455,42.317
				c3.383,1.136,30.447-4.828,32.908-6.816c2.46-1.988-0.308-22.437-0.923-25.277c-0.615-2.84-3.075-14.2-6.459-19.028
				c-3.383-4.828-6.151-5.147-9.534-5.147C397.458,173.038,387.001,173.358,387.001,173.358z"/>
		</g>
	</g>
	<g>
		<g>
			<path style="fill:#F48462;" d="M384.163,167.394l0.786,8.036c0,0,1.675,2.168,6.413,2.09c3.53-0.058,4.683-0.97,4.683-0.97
				l-0.886-4.022l-0.87-3.922l-8.671-1.037L384.163,167.394z"/>
		</g>
	</g>
	<g>
		<g>
			<path d="M385.618,167.57c0.042,0.217,0.151,0.468,0.309,0.753c2.191,3.838,7.191,4.223,9.231,4.206l-0.87-3.922L385.618,167.57z"
				/>
		</g>
	</g>
	<g>
		<g>
			<path style="fill:#F48462;" d="M394.29,150.115c0,0,5.203,9.663,4.088,15.423c-1.115,5.76-6.318,5.296-9.477,4.46
				c-3.159-0.836-4.738-2.601-4.738-2.601s-2.787,1.208-4.924-1.301c-2.137-2.509-1.208-5.667,0.372-6.504
				c1.579-0.836,3.624,0.186,3.624,0.186l-1.765-2.787C381.468,156.99,386.671,141.66,394.29,150.115z"/>
		</g>
	</g>
	<g>
		<g>
			<path d="M395.061,162.199c-0.191,0-0.346-0.155-0.346-0.346c0-3.239-1.455-4.39-1.47-4.402c-0.151-0.115-0.182-0.332-0.067-0.484
				c0.115-0.151,0.328-0.182,0.482-0.07c0.071,0.053,1.747,1.34,1.747,4.956C395.407,162.044,395.252,162.199,395.061,162.199z"/>
		</g>
	</g>
	<g>
		<g>
			<path d="M392.766,165.698c-0.787,0-1.815-0.293-2.527-1.362c-0.106-0.159-0.063-0.374,0.096-0.48
				c0.159-0.106,0.374-0.063,0.48,0.096c0.953,1.43,2.475,0.996,2.538,0.976c0.18-0.055,0.376,0.049,0.431,0.231
				c0.055,0.182-0.046,0.375-0.228,0.431C393.353,165.652,393.078,165.698,392.766,165.698z"/>
		</g>
	</g>
	<g>
		<g>
			<path d="M383.279,164.49c-0.075,0-0.151-0.024-0.214-0.075l-3.345-2.648c-0.15-0.119-0.175-0.336-0.056-0.486
				c0.118-0.149,0.336-0.175,0.486-0.056l3.345,2.648c0.15,0.118,0.175,0.336,0.056,0.486
				C383.483,164.445,383.382,164.49,383.279,164.49z"/>
		</g>
	</g>
	<g>
		<g>
			<path d="M379.936,164.49c-0.12,0-0.236-0.062-0.3-0.173c-0.095-0.165-0.038-0.377,0.128-0.473l1.936-1.115
				c0.166-0.094,0.376-0.038,0.473,0.128c0.095,0.165,0.038,0.377-0.127,0.473l-1.936,1.115
				C380.053,164.475,379.994,164.49,379.936,164.49z"/>
		</g>
	</g>
	<g>
		<g>
			<path d="M383.233,159.777c0,0,4.376,0.557,7.024-4.46c2.648-5.017,2.23-6.968,2.23-6.968l3.345,4.738
				c0,0,0.418-3.484-1.115-5.575c-1.533-2.09-2.927-1.533-2.927-1.533l-9.337,3.066l-1.951,7.804L383.233,159.777z"/>
		</g>
	</g>
	<g>
		<g>
			<path d="M390.443,159.101c-0.145,0-0.28-0.091-0.328-0.237l-0.557-1.672c-0.032-0.096-0.02-0.201,0.032-0.288l0.641-1.069
				c0.098-0.164,0.309-0.218,0.475-0.119c0.164,0.098,0.217,0.311,0.119,0.475l-0.559,0.932l0.507,1.521
				c0.06,0.181-0.038,0.377-0.219,0.438C390.516,159.095,390.479,159.101,390.443,159.101z"/>
		</g>
	</g>
	<g>
		<g>
			<path d="M396.204,157.986c-0.145,0-0.28-0.091-0.328-0.236l-0.557-1.672c-0.03-0.091-0.021-0.19,0.024-0.274l0.714-1.32
				c0.09-0.167,0.299-0.231,0.469-0.139c0.168,0.091,0.23,0.301,0.139,0.469l-0.642,1.188l0.51,1.53
				c0.06,0.182-0.038,0.377-0.219,0.438C396.277,157.98,396.24,157.986,396.204,157.986z"/>
		</g>
	</g>
	<g>
		<g>
			<path d="M395.832,153.434c-0.017,0-0.035-0.001-0.052-0.004l-1.543-0.234c-0.189-0.028-0.319-0.205-0.29-0.394
				c0.028-0.189,0.205-0.321,0.394-0.29l1.543,0.234c0.189,0.028,0.319,0.205,0.29,0.394
				C396.148,153.311,396,153.434,395.832,153.434z"/>
		</g>
	</g>
	<g>
		<g>
			<path d="M390.207,154.569c-0.108,0-0.214-0.05-0.282-0.145c-0.111-0.155-0.076-0.371,0.08-0.483l1.584-1.135
				c0.154-0.113,0.371-0.076,0.483,0.08c0.111,0.155,0.076,0.371-0.08,0.482l-1.584,1.135
				C390.347,154.548,390.277,154.569,390.207,154.569z"/>
		</g>
	</g>
	<g>
		<path style="fill:#FCA338;" d="M420.411,229.115h-30.389c-1.082,0-1.958-0.877-1.958-1.958v-34.928
			c0-1.082,0.877-1.958,1.958-1.958h30.389c1.082,0,1.958,0.877,1.958,1.958v34.928C422.37,228.238,421.493,229.115,420.411,229.115
			z"/>
	</g>
	<g>
		<path style="fill:#FFB655;" d="M434.08,229.115h-30.389c-1.082,0-1.958-0.877-1.958-1.958v-34.928
			c0-1.082,0.877-1.958,1.958-1.958h30.389c1.082,0,1.958,0.877,1.958,1.958v34.928C436.038,228.238,435.162,229.115,434.08,229.115
			z"/>
	</g>
	<g>
		<path style="fill:#F48462;" d="M413.064,210.487c0,0,3.902-4.925,6.755-6.112c1.409-0.586,6.739-1.572,7.23-0.281
			c0.491,1.291-4.578,4.111-4.578,4.111s12.314-4.651,14.378-3.653c2.484,1.202-1.1,2.794-1.1,2.794s3.967,0.194,3.329,1.55
			c-0.638,1.356-3.04,2.76-3.04,2.76s4.411-0.737,2.084,2.343c-2.327,3.081-21.016,12.746-26.962,7.51
			C408.224,218.924,413.064,210.487,413.064,210.487z"/>
	</g>
	<g>
		<path d="M426.468,211.311c-0.131,0-0.255-0.079-0.306-0.208c-0.065-0.169,0.018-0.359,0.185-0.426l9.28-3.637
			c0.17-0.061,0.359,0.017,0.426,0.186c0.065,0.169-0.018,0.359-0.186,0.426l-9.28,3.637
			C426.548,211.304,426.508,211.311,426.468,211.311z"/>
	</g>
	<g>
		<path d="M428.389,215.054c-0.13,0-0.253-0.078-0.305-0.206c-0.067-0.168,0.015-0.359,0.183-0.427l7.649-3.068
			c0.167-0.065,0.359,0.015,0.427,0.183c0.067,0.168-0.015,0.359-0.183,0.427l-7.649,3.068
			C428.471,215.046,428.43,215.054,428.389,215.054z"/>
	</g>
	<g>
		<path d="M419.59,208.936c-0.161,0-0.302-0.119-0.325-0.283c-0.024-0.179,0.101-0.345,0.28-0.37l2.88-0.402
			c0.174-0.027,0.345,0.1,0.37,0.28c0.024,0.179-0.101,0.345-0.28,0.37l-2.88,0.402C419.621,208.936,419.605,208.936,419.59,208.936
			z"/>
	</g>
	<g>
		<g>
			<path style="fill:#445584;" d="M371.831,183.747c0,0-14.555,18.054-5.461,39.999c7.38,17.809,26.475,15.545,36.316,12.47
				c9.841-3.076,18.453-11.072,18.453-11.072l-9.074-15.944c0,0-15.425,2.706-25.267,1.783
				C376.957,210.06,371.831,183.747,371.831,183.747z"/>
		</g>
	</g>
	<g>
		<path style="fill:#6373AD;" d="M410.073,317.152c-0.183-0.001-0.328-0.148-0.328-0.329l0.229-71.46
			c0.001-0.087,0.035-0.169,0.096-0.23l7.019-7.041c0.129-0.129,0.337-0.128,0.464-0.001c0.128,0.128,0.129,0.336,0.001,0.464
			l-6.924,6.945l-0.229,71.325C410.4,317.006,410.253,317.152,410.073,317.152z"/>
	</g>
	<g>
		<path style="fill:#6373AD;" d="M381.254,251.154c-0.161,0-0.302-0.119-0.325-0.283c-0.024-0.179,0.101-0.345,0.28-0.37
			c2.964-0.413,5.192-1.598,6.624-3.52c2.35-3.155,1.752-7.282,1.745-7.323c-0.027-0.179,0.096-0.347,0.274-0.374
			c0.177-0.02,0.346,0.096,0.374,0.274c0.027,0.179,0.649,4.43-1.864,7.81c-1.539,2.07-3.916,3.344-7.064,3.783
			C381.285,251.153,381.269,251.154,381.254,251.154z"/>
	</g>
	<g>
		<path style="fill:#FFB655;" d="M387.773,211.311c-2.202-0.089-9.374-0.496-9.757-2.029c-0.102-0.405,0.162-0.795,0.782-1.158
			c3.717-2.176,8.97,2.418,9.191,2.614c0.104,0.092,0.14,0.238,0.088,0.367C388.027,211.23,387.907,211.311,387.773,211.311z
			 M381.035,208.202c-0.666,0-1.314,0.142-1.904,0.488c-0.425,0.248-0.485,0.404-0.478,0.433c0.147,0.592,3.765,1.239,8.117,1.483
			C385.576,209.721,383.21,208.202,381.035,208.202z"/>
	</g>
	<g>
		<path style="fill:#FFB655;" d="M391.174,178.158c-3.936,0-6.425-2.464-6.458-2.499c-0.127-0.129-0.126-0.336,0.003-0.463
			c0.13-0.128,0.337-0.126,0.464,0.003c0.178,0.179,4.423,4.354,10.71,1.06c0.16-0.083,0.358-0.022,0.442,0.138
			c0.085,0.161,0.022,0.359-0.138,0.443C394.353,177.807,392.66,178.158,391.174,178.158z"/>
	</g>
	<g>
		<g>
			<path style="fill:#68B6D8;" d="M429.177,365.92c-0.72,0.43,0,0-2.21,0.29c-2.18,0.3-46.44-0.4-47.53-1.75
				c-0.25-0.32-0.45-2-0.6-4.39c-0.01-0.16-0.02-0.33-0.03-0.49c-0.45-7.81,0.03-22.58,0.57-22.9
				c0.846-0.501,21.58-0.473,21.99-0.333c0.43,0.14,0.5,3.213,1.44,3.623c0.94,0.4,12.3,8.28,12.3,8.28s6.71,1.06,10.56,3.69
				c3.5,2.38,3.68,7.09,3.69,7.94c-0.01,0.1,0,0.15,0,0.15s0.02,0.22,0.05,0.58C429.517,362.03,429.747,365.58,429.177,365.92z"/>
		</g>
	</g>
	<g>
		<g>
			<path style="fill:#FFB655;" d="M429.177,365.92c-0.72,0.43,0,0-2.21,0.29c-2.18,0.3-46.44-0.4-47.53-1.75
				c-0.25-0.32-0.45-2-0.6-4.39c2.69,0.11,5.96,0.23,9.9,0.37c12.56,0.43,32.27,0.27,40.67,0.17
				C429.517,362.03,429.747,365.58,429.177,365.92z"/>
		</g>
	</g>
	<g>
		<path style="fill:#FFFFFF;" d="M399.073,345.127c-0.128,0-0.249-0.075-0.302-0.2c-0.07-0.167,0.008-0.359,0.174-0.43l6.109-2.58
			c0.168-0.068,0.359,0.007,0.43,0.174c0.07,0.167-0.008,0.359-0.174,0.43l-6.109,2.58
			C399.159,345.118,399.116,345.127,399.073,345.127z"/>
	</g>
	<g>
		<path style="fill:#FFFFFF;" d="M402.745,347.456c-0.128,0-0.249-0.075-0.302-0.2c-0.07-0.167,0.008-0.359,0.174-0.43l6.109-2.579
			c0.168-0.068,0.359,0.008,0.43,0.174c0.07,0.167-0.008,0.359-0.174,0.43l-6.109,2.579
			C402.831,347.447,402.788,347.456,402.745,347.456z"/>
	</g>
</g>
<g>
	<rect x="501.757" y="215.305" style="fill:#A89FB3;" width="9.556" height="16.85"/>
</g>
<g>
	<path style="fill:#A89FB3;" d="M533.378,219.243h-48.219c-1.979,0-3.583-1.604-3.583-3.583v-25.5c0-1.979,1.604-3.583,3.583-3.583
		h48.219c1.979,0,3.583,1.604,3.583,3.583v25.5C536.961,217.639,535.357,219.243,533.378,219.243z"/>
</g>
<g>
	<g>
		<polygon style="fill:#FCA338;" points="661.112,190.151 681.608,190.151 676.197,197.363 662.33,198.503 		"/>
	</g>
	<g>
		<path style="fill:#FCA338;" d="M674.908,228.286h-32.319c-0.712,0-1.289-0.577-1.289-1.289v-29.634
			c0-0.712,0.577-1.289,1.289-1.289h32.319c0.712,0,1.289,0.577,1.289,1.289v29.634C676.197,227.709,675.62,228.286,674.908,228.286
			z"/>
	</g>
	<g>
		<path style="fill:#FFB655;" d="M666.196,228.311h-32.319c-0.712,0-1.289-0.577-1.289-1.289v-29.634
			c0-0.712,0.577-1.289,1.289-1.289h32.319c0.712,0,1.289,0.577,1.289,1.289v29.634
			C667.485,227.734,666.908,228.311,666.196,228.311z"/>
	</g>
	<g>
		<path style="fill:#FFB655;" d="M632.589,197.388l-5.724-8.317c-0.263-0.382,0.011-0.902,0.474-0.902h35.189l4.957,9.22H632.589z"
			/>
	</g>
	<g>
		<path style="fill:#FFFFFF;" d="M667.485,197.173c-0.181,0-0.327-0.146-0.328-0.327c0-0.181,0.146-0.328,0.327-0.329l8.712-0.025
			c0.182,0,0.328,0.146,0.329,0.327c0,0.181-0.147,0.328-0.327,0.329L667.485,197.173L667.485,197.173z"/>
	</g>
</g>
<g>
	<g>
		
			<rect x="106.901" y="327.498" transform="matrix(0.5327 -0.8463 0.8463 0.5327 -231.9769 252.6681)" style="fill:#F48462;" width="11.813" height="17.792"/>
	</g>
	<g>
		
			<rect x="145.549" y="331.159" transform="matrix(0.8676 -0.4973 0.4973 0.8676 -148.5649 121.8014)" style="fill:#F48462;" width="17.792" height="17.453"/>
	</g>
	<g>
		<path style="fill:#68B6D8;" d="M154.643,221.664c0,0,5.414,18.121,0.879,40.823c-4.535,22.702-24.217,79.957-26.269,79.264
			c-2.052-0.693-27.35-13.575-29.124-15.729c-1.774-2.154,23.049-60.172,23.049-60.172l11.856-43.802L154.643,221.664z"/>
	</g>
	<g>
		<path style="fill:#68B6D8;" d="M114.55,218.851c0,0-5.567,10.802,0,49.049c4.079,28.022,27.329,76.023,27.329,76.023
			s28.133-15.794,28.834-16.527c0.701-0.733-25.562-80.746-25.562-80.746l9.493-27.799H114.55z"/>
	</g>
	<g>
		<path style="fill:#6373AD;" d="M156.191,177.225c0,0,13.466,12.882,25.689,17.111c12.007,4.154-5.163,22.403-5.163,22.403
			s-20.062,3.734-23.131-3.983C150.516,205.039,156.191,177.225,156.191,177.225z"/>
	</g>
	<g>
		<path style="fill:#6373AD;" d="M140.714,171.749c0,0,12.374,1.096,17.02,7.07c4.647,5.974-1.493,43.431-1.825,43.953
			c-0.332,0.522-8.95,4.339-23.974,4.007c-15.024-0.332-18.675-3.201-19.173-4.007c-0.498-0.806-3.651-43.092,0-46.675
			C116.413,172.513,131.659,170.654,140.714,171.749z"/>
	</g>
	<g>
		<g>
			<g>
				<g>
					<path style="fill:#F48462;" d="M133.343,165.287l0.179,8.049c0,0,1.503,2.282,6.221,2.56c3.514,0.207,4.729-0.613,4.729-0.613
						l-0.58-4.066l-0.571-3.965l-8.544-1.682L133.343,165.287z"/>
				</g>
			</g>
		</g>
	</g>
	<g>
		<g>
			<g>
				<g>
					<path d="M134.776,165.571c0.025,0.219,0.115,0.477,0.251,0.771c1.89,3.981,6.834,4.738,8.864,4.875l-0.571-3.965
						L134.776,165.571z"/>
				</g>
			</g>
		</g>
	</g>
	<g>
		<g>
			<g>
				<g>
					<path style="fill:#F48462;" d="M144.708,148.865c0,0,4.449,9.998,2.908,15.643c-1.541,5.644-6.679,4.792-9.758,3.724
						c-3.078-1.069-4.516-2.942-4.516-2.942s-2.862,0.992-4.799-1.663c-1.937-2.655-0.776-5.726,0.857-6.439
						c1.633-0.713,3.589,0.457,3.589,0.457l-1.546-2.904C131.443,154.74,137.767,139.887,144.708,148.865z"/>
				</g>
			</g>
		</g>
	</g>
	<g>
		<path d="M144.331,161.619c-0.032,0-0.064-0.005-0.097-0.015c-0.173-0.054-0.27-0.237-0.217-0.41
			c0.568-1.837-0.81-3.833-0.823-3.854c-0.104-0.148-0.068-0.353,0.08-0.456c0.148-0.104,0.352-0.069,0.457,0.079
			c0.065,0.092,1.578,2.276,0.914,4.424C144.601,161.528,144.471,161.619,144.331,161.619z"/>
	</g>
	<g>
		<path d="M132.563,162.356c-0.087,0-0.174-0.035-0.238-0.103l-2.724-2.887c-0.124-0.132-0.119-0.339,0.013-0.463
			c0.131-0.126,0.339-0.119,0.463,0.013l2.724,2.887c0.124,0.132,0.119,0.339-0.013,0.463
			C132.725,162.326,132.644,162.356,132.563,162.356z"/>
	</g>
	<g>
		<path d="M129.679,161.583c-0.159,0-0.299-0.117-0.324-0.279c-0.027-0.179,0.096-0.346,0.275-0.373l1.884-0.286
			c0.174-0.027,0.346,0.096,0.374,0.275c0.027,0.179-0.096,0.346-0.275,0.374l-1.884,0.286
			C129.712,161.581,129.696,161.583,129.679,161.583z"/>
	</g>
	<g>
		<path d="M139.787,157.878c-0.163,0-0.304-0.121-0.325-0.287l-0.238-1.869c-0.023-0.18,0.104-0.344,0.284-0.367
			c0.183-0.022,0.344,0.104,0.367,0.284l0.238,1.869c0.023,0.18-0.104,0.344-0.284,0.367
			C139.814,157.877,139.8,157.878,139.787,157.878z"/>
	</g>
	<g>
		<path d="M145.333,157.433c-0.16,0-0.3-0.117-0.324-0.28l-0.274-1.863c-0.026-0.179,0.097-0.346,0.276-0.372
			c0.173-0.028,0.346,0.097,0.372,0.276l0.274,1.863c0.026,0.179-0.097,0.346-0.276,0.372
			C145.366,157.431,145.35,157.433,145.333,157.433z"/>
	</g>
	<g>
		<path d="M138.044,154.85c-0.054,0-0.108-0.013-0.159-0.042c-0.158-0.087-0.215-0.287-0.128-0.446
			c0.723-1.305,2.393-0.907,2.463-0.889c0.176,0.044,0.282,0.221,0.239,0.396c-0.042,0.176-0.221,0.284-0.396,0.24
			c-0.051-0.012-1.254-0.294-1.732,0.57C138.271,154.789,138.16,154.85,138.044,154.85z"/>
	</g>
	<g>
		<path d="M145.772,153.556c-0.082,0-0.164-0.03-0.228-0.091c-0.004-0.004-0.421-0.4-0.89-0.389
			c-0.211,0.011-0.399,0.115-0.573,0.32c-0.119,0.138-0.325,0.153-0.462,0.037c-0.138-0.118-0.154-0.325-0.037-0.462
			c0.295-0.346,0.647-0.531,1.044-0.549c0.74-0.038,1.349,0.548,1.375,0.574c0.129,0.126,0.132,0.333,0.007,0.462
			C145.944,153.523,145.858,153.556,145.772,153.556z"/>
	</g>
	<g>
		<path d="M133.953,158.319c0,0,2.718-1.839,2.556-4.628c-0.163-2.789-0.776-3.501-0.776-3.501s3.174-0.165,5.797-1.019
			c1.709-0.557,2.443-1.17,2.443-1.17l0.735,0.864c0.801-0.036,2.632-4.893,1.426-5.756c-1.206-0.863-7.663,1.388-7.663,1.388
			s-6.801-1.6-10.774,3.236c-3.972,4.836,0.478,10.532,0.478,10.532S129.351,155.773,133.953,158.319z"/>
	</g>
	<g>
		<path style="fill:#FCA338;" d="M146.999,191.657v29.707c0,1.956,1.598,3.555,3.555,3.555h44.806c1.956,0,3.555-1.598,3.555-3.555
			v-29.707c0-1.956-1.598-3.54-3.555-3.54h-44.806C148.597,188.117,146.999,189.701,146.999,191.657z"/>
	</g>
	<g>
		<path style="fill:#FFB655;" d="M153.098,191.657v29.707c0,1.956,1.507,3.555,3.352,3.555h42.247c1.845,0,3.352-1.598,3.352-3.555
			v-29.707c0-1.956-1.507-3.54-3.352-3.54h-42.247C154.604,188.117,153.098,189.701,153.098,191.657z"/>
	</g>
	<g>
		<path style="fill:#F48462;" d="M137.688,203.919c0,0,13.183,0.439,18.024,2.922c4.842,2.483,8.266,8.786,7.737,10.726
			c-0.529,1.941-3.144,1.788-3.144,1.788s0.174,1.201-1.715,1.557c-1.89,0.356-4.387-1.066-4.387-1.066s-3.898,1.309-8.909,0.829
			c-5.01-0.48-8.531-2.605-8.531-2.605L137.688,203.919z"/>
	</g>
	<g>
		<path style="fill:#6373AD;" d="M112.762,176.096c0,0-24.512,22.449-21.027,37.634c3.485,15.184,44.141,9.042,44.141,9.042
			l3.217-21.964l-20.938-2.128L112.762,176.096z"/>
	</g>
	<g>
		<g>
			<g>
				<g>
					<path style="fill:#F48462;" d="M202.463,198.734c0,0,4.745-4.667,1.27-5.813c-3.475-1.145-13.798,5.07-12.605,8.669
						S202.463,198.734,202.463,198.734z"/>
				</g>
			</g>
		</g>
	</g>
	<g>
		<g>
			<g>
				<g>
					<path style="fill:#F48462;" d="M205.258,203.478c0,0,4.745-4.667,1.27-5.813c-3.475-1.146-13.798,5.07-12.605,8.669
						C195.115,209.934,205.258,203.478,205.258,203.478z"/>
				</g>
			</g>
		</g>
	</g>
	<g>
		<g>
			<g>
				<g>
					<path style="fill:#F48462;" d="M206.648,208.826c0,0,4.841-3.354,1.984-4.877c-2.857-1.523-12.796,2.34-12.299,5.659
						C196.83,212.925,206.648,208.826,206.648,208.826z"/>
				</g>
			</g>
		</g>
	</g>
	<g>
		<path style="fill:#FFFFFF;" d="M151.936,270.737c-0.131,0-0.255-0.08-0.306-0.21c-0.933-2.405-9.118-23.551-9.13-25.212
			c-0.001-0.143,0.091-0.27,0.228-0.314l9.544-3.061c0.172-0.055,0.357,0.04,0.413,0.212c0.055,0.173-0.04,0.357-0.212,0.413
			l-9.283,2.977c0.454,2.201,5.567,15.763,9.053,24.749c0.065,0.168-0.018,0.358-0.187,0.424
			C152.015,270.73,151.975,270.737,151.936,270.737z"/>
	</g>
	<g>
		<path style="fill:#FFFFFF;" d="M134.196,328.03c-0.122,0-0.239-0.068-0.296-0.186c-0.608-1.269-14.916-31.175-16.41-39.944
			c-0.03-0.178,0.09-0.348,0.268-0.378c0.173-0.029,0.348,0.089,0.378,0.268c1.479,8.678,16.206,39.46,16.355,39.77
			c0.078,0.163,0.009,0.359-0.154,0.438C134.292,328.02,134.244,328.03,134.196,328.03z"/>
	</g>
	<g>
		<path style="fill:#A37B90;" d="M147.599,350.24c0,0,0.341-4.336,4.772-6.133c3.268-1.325,7.656,0,7.656,0s0.241-6.976,2.708-8.86
			c2.467-1.884,6.474,1.558,6.474,1.558s21.953-4.803,24.464,1.177c2.51,5.98-3.98,8.955-3.98,8.955s-32.692,19.064-33.887,18.828
			C154.612,365.53,147.599,350.24,147.599,350.24z"/>
	</g>
	<g>
		<path style="fill:#FFB655;" d="M172.27,344.435c-0.032,0-0.064-0.005-0.097-0.015c-0.173-0.054-0.27-0.237-0.217-0.41
			c0.022-0.073,2.327-7.317,9.098-9.081c0.173-0.042,0.354,0.06,0.4,0.234c0.045,0.176-0.06,0.354-0.235,0.4
			c-6.412,1.67-8.614,8.57-8.636,8.64C172.54,344.345,172.411,344.435,172.27,344.435z"/>
	</g>
	<g>
		<path style="fill:#A37B90;" d="M114.29,341.802c0,0-0.351-4.035-3.22-7.843c-2.869-3.808-6.512-3.221-6.512-3.221l-5.802,9.81
			c-0.551,0.931-0.572,2.082-0.054,3.031c2.639,4.835,10.672,19.473,11.325,19.691c0.782,0.261,32.878,2.091,34.172,1.046
			c1.294-1.046-1.91-10.694-8.001-12.52c-6.091-1.825-6.091-1.825-6.091-1.825l-4.103-4.269c0,0-0.33-6.214-4.503-7.231
			C117.329,337.453,114.29,341.802,114.29,341.802z"/>
	</g>
	<g>
		<path style="fill:#FFB655;" d="M126.005,352.209c-0.105,0-0.209-0.051-0.272-0.145c-0.102-0.15-0.062-0.354,0.088-0.455
			c0.785-0.531,3.416-2.235,4.381-1.953c0.173,0.053,0.272,0.235,0.22,0.408c-0.052,0.174-0.237,0.268-0.408,0.221
			c-0.46-0.148-2.34,0.862-3.825,1.867C126.132,352.19,126.068,352.209,126.005,352.209z"/>
	</g>
	<g>
		<path style="fill:#FFB655;" d="M140.71,176.249c-2.096,0-4.782-0.551-7.394-2.658c-0.141-0.114-0.163-0.32-0.049-0.461
			c0.115-0.14,0.32-0.163,0.461-0.049c5.15,4.154,10.563,1.924,10.615,1.9c0.165-0.071,0.358,0.006,0.43,0.173
			c0.071,0.167-0.007,0.359-0.173,0.43C144.569,175.598,142.988,176.249,140.71,176.249z"/>
	</g>
	<g>
		<path style="fill:#FFB655;" d="M110.872,198.707c-1.417,0-2.558-0.182-2.848-0.717c-0.193-0.356-0.072-0.772,0.36-1.235
			c2.637-2.827,8.97,0.487,9.238,0.63c0.123,0.065,0.192,0.203,0.17,0.341c-0.022,0.139-0.129,0.247-0.267,0.272
			C116.26,198.218,113.195,198.707,110.872,198.707z M111.447,196.27c-1.014,0-1.945,0.248-2.584,0.932
			c-0.26,0.279-0.287,0.43-0.263,0.476c0.338,0.624,4.114,0.411,7.775-0.156C115.225,197.02,113.211,196.27,111.447,196.27z"/>
	</g>
	<g>
		<path style="fill:#FFB655;" d="M115.849,223.458c-0.202,0-0.404-0.001-0.607-0.002c-0.181-0.002-0.327-0.15-0.326-0.331
			c0.001-0.18,0.148-0.325,0.328-0.325c10.628,0.096,19.439-2.126,19.526-2.148c0.178-0.044,0.354,0.061,0.399,0.236
			c0.044,0.176-0.062,0.354-0.237,0.398C134.846,221.31,126.297,223.458,115.849,223.458z"/>
	</g>
	<g>
		<path d="M196.811,201.767c-0.112,0-0.222-0.058-0.283-0.161c-0.092-0.156-0.04-0.357,0.116-0.449l6.791-4.005
			c0.155-0.094,0.356-0.041,0.449,0.116c0.092,0.156,0.041,0.357-0.116,0.449l-6.791,4.005
			C196.925,201.752,196.868,201.767,196.811,201.767z"/>
	</g>
	<g>
		<path d="M198.018,207.125c-0.126,0-0.246-0.073-0.3-0.195c-0.073-0.166,0.001-0.359,0.167-0.433l6.579-2.914
			c0.165-0.074,0.36,0.002,0.433,0.167c0.073,0.166-0.001,0.359-0.167,0.433l-6.58,2.914
			C198.108,207.116,198.063,207.125,198.018,207.125z"/>
	</g>
	<g>
		<path d="M161.778,214.059c-0.054,0-0.108-0.014-0.159-0.042l-5.726-3.184c-0.159-0.088-0.215-0.287-0.128-0.445
			c0.088-0.159,0.288-0.216,0.446-0.127l5.726,3.184c0.159,0.088,0.215,0.287,0.127,0.445
			C162.005,213.998,161.894,214.059,161.778,214.059z"/>
	</g>
	<g>
		<path d="M160.304,219.684c-0.053,0-0.107-0.014-0.158-0.041l-7.629-4.195c-0.159-0.087-0.216-0.286-0.129-0.445
			c0.087-0.158,0.287-0.215,0.445-0.129l7.629,4.195c0.159,0.087,0.216,0.286,0.129,0.445
			C160.532,219.622,160.419,219.684,160.304,219.684z"/>
	</g>
	<g>
		<path d="M142.31,164.616c-0.092,0-0.186-0.006-0.283-0.018c-0.401-0.053-0.711-0.225-0.92-0.51
			c-0.366-0.497-0.27-1.135-0.257-1.206c0.015-0.088,0.065-0.165,0.139-0.216c0.073-0.049,0.164-0.068,0.251-0.05l2.719,0.563
			c0.111,0.023,0.203,0.102,0.242,0.209c0.039,0.107,0.02,0.226-0.05,0.315C144.118,163.743,143.419,164.616,142.31,164.616z
			 M141.498,163.339c0.018,0.121,0.057,0.253,0.138,0.362c0.102,0.137,0.258,0.217,0.477,0.246c0.44,0.06,0.806-0.089,1.07-0.259
			L141.498,163.339z"/>
	</g>
</g>
<g>
	<rect x="496.467" y="0.136" style="fill:#E0DFE5;" width="3.525" height="51.321"/>
	<rect x="613.271" y="0.136" style="fill:#E0DFE5;" width="3.525" height="50.688"/>
	<path style="fill:#BBB0C1;" d="M632.903,71.496H481.058c-2.225,0-4.028-1.804-4.028-4.028v-24c0-2.225,1.804-4.028,4.028-4.028
		h151.846c2.225,0,4.029,1.804,4.029,4.028v24C636.932,69.693,635.128,71.496,632.903,71.496z"/>
</g>
<g>
	<g>
		<polygon style="fill:#F48462;" points="275.451,335.818 275.451,348.652 293.461,346.617 293.461,343.113 293.461,334.593 		"/>
	</g>
	<g>
		<g>
			<g>
				<g>
					<path style="fill:#556A99;" d="M324.013,365.186c0.452-0.049,0.765-0.482,0.696-0.949c-0.326-2.212-1.521-8.4-4.978-11.094
						c-4.249-3.31-13.275-4.802-16.519-7.019c-3.244-2.216-6.811-7.469-8.798-6.536c-1.988,0.934-5.795,5.345-11.132,4.58
						c-5.337-0.765-7.777-2.106-9.247-0.854c-1.47,1.252-2.705,19.217-2.112,20.302c0.593,1.085,8.153,0.268,8.805,0.457
						c0.652,0.188,2.603-4.051,3.823-3.381c1.22,0.671,2.681,2.714,4.479,3.678C290.708,365.27,318.601,365.78,324.013,365.186z"/>
				</g>
			</g>
		</g>
	</g>
	<g>
		<polygon style="fill:#F48462;" points="249.764,327.239 244.856,339.41 262.337,344.216 263.677,340.893 266.936,332.813 		"/>
	</g>
	<g>
		<path style="fill:#FFB655;" d="M293.461,240.761c0,0,9.87,94.879,9.562,96.29c-0.308,1.411-29.484,0.873-29.484,0.873
			l-2.248-8.723l1.205-88.44H293.461z"/>
	</g>
	<g>
		<path style="fill:#FFB655;" d="M252.694,225.192c0,0-4.002,13.226-3.694,26.77c0.308,13.544,4.31,34.168,3.694,35.708
			c-0.616,1.539-9.85,41.53-9.85,41.53l30.571,8.723c0,0,9.6-39.172,9.831-49.945c0.231-10.774-4.264-41.249-4.264-41.249
			l14.48-5.969l-1.463-13.116L252.694,225.192z"/>
	</g>
	<g>
		<path style="fill:#445584;" d="M274.039,335.188c-0.029,0-0.06-0.004-0.09-0.012c-0.184-0.05-0.293-0.239-0.244-0.424
			c0.093-0.345,9.264-34.589,8.827-42.462c-0.44-7.924-3.86-45.153-3.895-45.529c-0.012-0.125,0.046-0.246,0.15-0.317l9.366-6.367
			c0.158-0.107,0.374-0.066,0.48,0.092s0.066,0.373-0.092,0.48l-9.198,6.252c0.275,2.993,3.454,37.72,3.878,45.351
			c0.443,7.984-8.47,41.268-8.85,42.681C274.331,335.086,274.191,335.188,274.039,335.188z"/>
	</g>
	<g>
		<path style="fill:#445584;" d="M252.694,288.016c-0.129,0-0.248-0.071-0.308-0.189c-0.067-0.131-0.043-0.29,0.059-0.396
			c0.215-0.225,5.309-5.486,8.587-3.478c0.54,0.33,0.769,0.706,0.683,1.118c-0.342,1.636-6.955,2.665-8.973,2.941
			C252.725,288.015,252.709,288.016,252.694,288.016z M259.334,284.186c-2.001,0-4.4,1.896-5.611,2.982
			c3.583-0.568,7.163-1.517,7.314-2.238c0.019-0.087-0.125-0.239-0.366-0.387C260.262,284.293,259.809,284.186,259.334,284.186z"/>
	</g>
	<g>
		<path style="fill:#9898A8;" d="M264.105,155.02c0,0-10.316-3.478-11.51,7.138c-1.194,10.617,15.036,14.852,17.332,5.583
			C272.222,158.471,264.105,155.02,264.105,155.02z"/>
	</g>
	<g>
		<path style="fill:#F48462;" d="M325.875,201.966l2.604-3.312c0,0,2.042,0.64,4.12-1.625c1.352-1.474,1.995-4.393,1.995-4.393
			s0.694,3.123,2.497,2.429c1.803-0.694,4.084-10.188,2.099-11.225c-1.078-0.563-2.932,0.158-2.932,0.158s0.554-2.832-1.663-3.365
			c-2.223-0.535-2.882,2.033-2.882,2.033s-0.81-3.667-4.014-2.107c-3.484,1.696-9.742,14.505-9.742,14.505L325.875,201.966z"/>
	</g>
	<g>
		<path d="M325.718,198.194c-0.134,0-0.26-0.084-0.309-0.217c-0.061-0.171,0.027-0.358,0.198-0.419
			c3.65-1.314,2.78-6.345,2.77-6.396c-0.01-0.059-0.005-0.119,0.016-0.174c0.466-1.245,1.399-4.65,0.133-5.443
			c-0.169-0.105-0.334-0.124-0.519-0.057c-1.088,0.394-2.235,3.251-2.585,4.319c-0.057,0.171-0.244,0.265-0.414,0.209
			c-0.172-0.056-0.266-0.242-0.209-0.413c0.139-0.424,1.402-4.158,2.985-4.731c0.374-0.135,0.75-0.094,1.089,0.118
			c1.864,1.167,0.45,5.358,0.164,6.147c0.108,0.737,0.669,5.643-3.209,7.039C325.792,198.188,325.755,198.194,325.718,198.194z"/>
	</g>
	<g>
		<path style="fill:#92B4EA;" d="M280.401,176.011c0,0,7.092,3.331,13.211,10.773c6.119,7.442,7.284,10.053,8.659,10.705
			c1.375,0.653,15.693-8.648,17.182-8.403c1.489,0.245,12.258,15.541,12.258,15.541s-22.172,17.174-32.624,15.787
			c-10.452-1.387-18.686-12.172-18.686-12.172V176.011z"/>
	</g>
	<g>
		<path style="fill:#6373AD;" d="M273.298,173.233c0,0,8.743,0.8,13.611,10.101c4.868,9.3,4.623,23.129,4.623,23.129
			s2.914,20.08,0.466,21.182c-2.448,1.101-14.003,2.698-23.266,1.499c-8.996-1.165-14.892-4.202-14.892-4.202
			s-3.671-39.425-0.612-46.635C256.288,171.097,273.298,173.233,273.298,173.233z"/>
	</g>
	<g>
		<path style="fill:#92B4EA;" d="M275.494,173.709c0,0,2.944,0.02,5.636,1.641c2.692,1.621,4.983,4.272,4.983,4.272l5.487,13.747
			c0,0,7.452,46.365,7.207,46.976c-0.245,0.612-4.531-0.963-5.333-0.841c-0.802,0.122-5.735-35.489-5.735-35.856
			s1.523-6.975-0.829-12.238C284.556,186.149,280.121,176.214,275.494,173.709z"/>
	</g>
	<g>
		<path style="fill:#6373AD;" d="M301.111,205.38c-0.348,0-0.577-0.142-0.722-0.288c-1.233-1.244,0.676-6.492,1.071-7.531
			c0.05-0.129,0.167-0.236,0.313-0.211c0.138,0.002,0.26,0.091,0.305,0.222c0.234,0.687,2.216,6.736-0.353,7.685
			C301.487,205.344,301.284,205.38,301.111,205.38z M301.741,198.718c-0.801,2.35-1.492,5.302-0.886,5.913
			c0.044,0.045,0.18,0.184,0.642,0.011C302.906,204.121,302.292,200.717,301.741,198.718z"/>
	</g>
	<g>
		<path style="fill:#92B4EA;" d="M260.712,172.846c1.224-0.353,2.509-0.51,3.778-0.398c0.602,0.053,1.117,0.168,1.221,0.401
			c0.279,0.621,5.24,71.66,4.762,72.154c-0.478,0.494-9.412,1.945-15.653,0.494c-6.241-1.451-8.689-3.684-9.056-4.354
			c-0.367-0.67,2.703-55.267,3.059-57.489C249.163,181.533,250.469,175.795,260.712,172.846z"/>
	</g>
	<g>
		<path style="fill:#9898A8;" d="M280.695,160.908c0,0,2.968-3.122,2.257-8.091c-0.482-3.368-1.948-4.491-1.948-4.491
			s2.387-4.523-4.389-4.412c-6.776,0.111-10.84,3.336-10.84,3.336s-3.057-1.596-4.533,1.978c-1.476,3.574-0.22,8.93-0.22,8.93
			L280.695,160.908z"/>
	</g>
	<g>
		<g>
			<g>
				<g>
					<path style="fill:#F48462;" d="M265.698,166.12l0.004,8.268c0,0,1.492,2.376,6.329,2.767c3.603,0.291,4.743-1.56,4.743-1.56
						l-0.876-7.234l-8.735-1.917L265.698,166.12z"/>
				</g>
			</g>
		</g>
	</g>
	<g>
		<g>
			<g>
				<g>
					<path d="M265.711,165.616c0.021,0.226,0.107,0.492,0.241,0.798c1.852,4.129,8.363,5.845,10.444,6.03l-0.497-4.083
						L265.711,165.616z"/>
				</g>
			</g>
		</g>
	</g>
	<g>
		<g>
			<g>
				<g>
					<path style="fill:#F48462;" d="M277.733,149.514c0,0,4.344,10.364,2.637,16.124s-6.964,4.771-10.101,3.605
						c-3.137-1.166-4.571-3.121-4.571-3.121s-2.96,0.955-4.89-1.814c-1.929-2.769-0.669-5.896,1.024-6.592
						c1.693-0.696,3.674,0.549,3.674,0.549l-1.523-3.016C263.983,155.249,270.807,140.141,277.733,149.514z"/>
				</g>
			</g>
		</g>
	</g>
	<g>
		<g>
			<g>
				<g>
					<path style="fill:#9898A8;" d="M265.506,158.265c0,0,4.405,1.002,7.601-3.849c3.196-4.851,2.964-6.881,2.964-6.881l2.939,5.161
						c0,0,0.772-3.51-0.583-5.792c-1.355-2.283-2.831-1.853-2.831-1.853l-9.821,2.199l-2.763,7.761L265.506,158.265z"/>
				</g>
			</g>
		</g>
	</g>
	<g>
		<path d="M277.068,162.59c-0.034,0-0.069-0.005-0.104-0.017c-0.172-0.057-0.265-0.243-0.207-0.415
			c0.625-1.877-0.747-3.961-0.761-3.982c-0.101-0.15-0.061-0.354,0.09-0.455c0.15-0.102,0.354-0.061,0.455,0.089
			c0.065,0.096,1.567,2.369,0.838,4.555C277.333,162.503,277.206,162.59,277.068,162.59z"/>
	</g>
	<g>
		<path d="M264.971,163.085c-0.089,0-0.179-0.037-0.243-0.108l-2.732-3.024c-0.122-0.134-0.111-0.342,0.023-0.463
			c0.132-0.122,0.342-0.111,0.463,0.023l2.733,3.024c0.122,0.134,0.111,0.342-0.023,0.463
			C265.128,163.056,265.049,163.085,264.971,163.085z"/>
	</g>
	<g>
		<path d="M262.027,162.226c-0.162,0-0.303-0.121-0.325-0.286c-0.023-0.18,0.104-0.344,0.283-0.367l1.941-0.251
			c0.176-0.026,0.343,0.103,0.367,0.283c0.023,0.18-0.104,0.344-0.283,0.367l-1.941,0.251
			C262.055,162.225,262.041,162.226,262.027,162.226z"/>
	</g>
	<g>
		<path style="fill:#858496;" d="M279.258,154.208c-0.022,0-0.043-0.002-0.065-0.006l-1.821-0.363
			c-0.178-0.036-0.293-0.208-0.258-0.386c0.036-0.179,0.212-0.292,0.386-0.258l1.821,0.363c0.178,0.036,0.293,0.208,0.258,0.386
			C279.548,154.1,279.411,154.208,279.258,154.208z"/>
	</g>
	<g>
		<path style="fill:#858496;" d="M271.629,155.221c-0.123,0-0.24-0.069-0.296-0.187c-0.078-0.164-0.008-0.359,0.155-0.437
			l2.426-1.154c0.165-0.079,0.359-0.009,0.437,0.155c0.078,0.163,0.008,0.359-0.155,0.437l-2.426,1.154
			C271.724,155.211,271.676,155.221,271.629,155.221z"/>
	</g>
	<g>
		<path d="M279.154,158.434c-0.143,0-0.275-0.095-0.316-0.24l-0.525-1.872c-0.029-0.105-0.004-0.219,0.067-0.302l0.588-0.684
			c0.116-0.137,0.325-0.153,0.462-0.035c0.137,0.118,0.153,0.325,0.035,0.462l-0.473,0.551l0.478,1.704
			c0.049,0.174-0.053,0.355-0.228,0.404C279.213,158.43,279.183,158.434,279.154,158.434z"/>
	</g>
	<g>
		<path d="M273.941,158.805c-0.143,0-0.275-0.095-0.316-0.24l-0.525-1.872c-0.03-0.108-0.003-0.224,0.072-0.308l0.811-0.901
			c0.12-0.136,0.329-0.146,0.463-0.024c0.135,0.121,0.146,0.329,0.024,0.463l-0.69,0.767l0.477,1.699
			c0.049,0.174-0.053,0.355-0.228,0.404C274,158.801,273.97,158.805,273.941,158.805z"/>
	</g>
	<g>
		<path style="fill:#FFB655;" d="M280.707,162.256c-0.036,0-0.072-0.001-0.108-0.002c-0.826-0.032-1.586-0.428-2.14-1.116
			c-0.543-0.674-0.823-1.55-0.787-2.468c0.074-1.911,1.51-3.401,3.194-3.348c0.826,0.032,1.586,0.428,2.14,1.116
			c0.543,0.674,0.823,1.551,0.787,2.468c-0.035,0.917-0.382,1.77-0.975,2.4C282.24,161.921,281.494,162.256,280.707,162.256z
			 M280.761,155.977c-1.292,0-2.375,1.201-2.434,2.719c-0.029,0.759,0.199,1.48,0.643,2.031c0.433,0.538,1.021,0.847,1.654,0.872
			c0.622,0.026,1.243-0.238,1.716-0.741c0.485-0.515,0.768-1.217,0.797-1.976l0.328,0.013l-0.328-0.013
			c0.029-0.759-0.199-1.481-0.643-2.032c-0.433-0.538-1.021-0.847-1.654-0.872C280.814,155.977,280.788,155.977,280.761,155.977z"/>
	</g>
	<g>
		<path style="fill:#FFB655;" d="M272.919,162.48c-0.045,0-0.09-0.001-0.136-0.003c-0.926-0.036-1.782-0.43-2.411-1.109
			c-0.629-0.68-0.956-1.564-0.92-2.49c0.036-0.926,0.43-1.782,1.109-2.412c0.68-0.629,1.565-0.961,2.49-0.92
			c0.926,0.036,1.782,0.43,2.412,1.109c0.629,0.68,0.956,1.564,0.92,2.49l-0.328-0.013l0.328,0.013
			C276.311,161.012,274.77,162.48,272.919,162.48z M272.915,156.2c-0.71,0-1.384,0.263-1.908,0.749
			c-0.551,0.51-0.871,1.205-0.9,1.956c-0.06,1.549,1.152,2.858,2.702,2.919c0.747,0.024,1.468-0.236,2.019-0.747
			c0.551-0.51,0.871-1.205,0.9-1.956c0.029-0.751-0.236-1.467-0.746-2.019c-0.51-0.551-1.205-0.871-1.956-0.9
			C272.988,156.201,272.951,156.2,272.915,156.2z"/>
	</g>
	<g>
		<path style="fill:#FFB655;" d="M277.792,158.777c-0.067,0-0.136-0.021-0.195-0.064c-0.376-0.28-1.238-0.103-1.51-0.02
			c-0.177,0.05-0.357-0.045-0.41-0.217c-0.053-0.173,0.044-0.357,0.217-0.41c0.14-0.043,1.386-0.405,2.094,0.119
			c0.145,0.108,0.176,0.313,0.068,0.459C277.991,158.731,277.892,158.777,277.792,158.777z"/>
	</g>
	<g>
		<path style="fill:#FFB655;" d="M269.78,159.22c-0.101,0-0.2-0.046-0.264-0.133c-0.833-1.129-4.433-1.285-5.758-1.248
			c-0.19,0.002-0.332-0.138-0.336-0.319c-0.005-0.181,0.138-0.331,0.319-0.336c0.52-0.014,5.118-0.093,6.303,1.514
			c0.108,0.146,0.077,0.351-0.069,0.459C269.915,159.199,269.847,159.22,269.78,159.22z"/>
	</g>
	<g>
		<path d="M275.949,165.309c-1.079,0-1.974-0.833-2.021-0.877c-0.131-0.124-0.137-0.331-0.013-0.463
			c0.125-0.132,0.332-0.137,0.463-0.014c0.011,0.011,1.139,1.056,2.152,0.566c0.162-0.079,0.359-0.011,0.438,0.153
			c0.079,0.163,0.01,0.359-0.153,0.438C276.522,165.253,276.229,165.309,275.949,165.309z"/>
	</g>
	<g>
		<path style="fill:#FFB655;" d="M272.159,177.183c-1.91,0-4.23-0.586-6.662-2.539c-0.141-0.114-0.164-0.32-0.05-0.461
			c0.114-0.141,0.321-0.163,0.461-0.05c5.657,4.546,10.48,1.332,10.681,1.193c0.15-0.103,0.354-0.065,0.456,0.085
			c0.103,0.149,0.065,0.353-0.083,0.456C276.929,175.887,274.999,177.183,272.159,177.183z"/>
	</g>
	<g>
		<path style="fill:#936781;" d="M280.401,231.623c-0.593-0.024-1.02-0.487-1-1.035c0.004-0.192,0.021-4.214-5.68-7.558
			c-0.477-0.279-0.636-0.892-0.357-1.368c0.279-0.476,0.892-0.638,1.369-0.356c6.816,3.997,6.676,9.143,6.667,9.36
			C281.377,231.203,280.934,231.623,280.401,231.623z"/>
	</g>
	<g>
		<path style="fill:#F48462;" d="M283.846,211.958c0,0,10.889-1.998,15.173,0.198c4.284,2.197,5.851,11.04,5.358,11.879
			c-0.493,0.839-1.903,0.65-1.903,0.65s0.068,1.652-0.73,2.259c-0.797,0.608-2.213-0.249-2.213-0.249s-1.315,1.754-2.907,1.293
			c-1.592-0.461-2.176-2.196-2.038-3.04c0.092-0.564-0.103-1.393-0.103-1.393l-0.832,0.292c0,0-1.325,1.793-5.142,1.757
			c-3.817-0.036-7.861-5.361-7.861-5.361L283.846,211.958z"/>
	</g>
	<g>
		<path style="fill:#92B4EA;" d="M285.414,208.619l-0.532,17.818c0,0-27.97,6.985-40.24-8.243c-11.138-13.824,3.213-40,9.689-42.29
			c5.173-1.83,10.719,26.838,10.719,26.838L285.414,208.619z"/>
	</g>
	<g>
		<path style="fill:#6373AD;" d="M270.693,204.698c-0.022,0-0.044-0.002-0.067-0.007l-9.532-1.967
			c-0.177-0.037-0.292-0.21-0.255-0.388c0.037-0.178,0.207-0.296,0.388-0.255l9.532,1.967c0.177,0.037,0.291,0.21,0.255,0.388
			C270.982,204.592,270.846,204.698,270.693,204.698z"/>
	</g>
	<g>
		<path style="fill:#6373AD;" d="M268.083,203.945c-0.053,0-0.107-0.013-0.156-0.04c-0.614-0.331-6.009-3.297-6.395-5.318
			c-0.069-0.36,0.014-0.692,0.239-0.96c0.226-0.269,0.526-0.396,0.878-0.371c1.943,0.143,5.333,5.571,5.713,6.189
			c0.078,0.127,0.061,0.289-0.041,0.398C268.258,203.91,268.171,203.945,268.083,203.945z M262.561,197.908
			c-0.119,0-0.206,0.044-0.288,0.141c-0.099,0.118-0.129,0.246-0.096,0.416c0.224,1.175,3.004,3.066,4.904,4.202
			c-1.431-2.131-3.457-4.681-4.48-4.756C262.588,197.909,262.574,197.908,262.561,197.908z"/>
	</g>
	<g>
		<path d="M294.135,223.841c-0.064,0-0.128-0.019-0.184-0.058c-0.15-0.102-0.189-0.306-0.087-0.455l0.917-1.345
			c0.102-0.148,0.306-0.188,0.456-0.086c0.15,0.101,0.189,0.306,0.086,0.455l-0.916,1.345
			C294.343,223.79,294.24,223.841,294.135,223.841z"/>
	</g>
	<g>
		<path d="M302.852,225.029c-0.172,0-0.316-0.135-0.327-0.309c-0.004-0.062-0.391-6.167-2.771-8.013
			c-0.143-0.11-0.169-0.316-0.058-0.46c0.111-0.143,0.317-0.17,0.46-0.058c2.615,2.027,3.008,8.229,3.023,8.491
			c0.011,0.181-0.127,0.336-0.308,0.347C302.865,225.029,302.859,225.029,302.852,225.029z"/>
	</g>
	<g>
		<path d="M299.532,227.024c-0.198-0.01-0.337-0.164-0.328-0.345c0.002-0.042,0.179-4.312-2.529-8.725
			c-0.095-0.154-0.046-0.356,0.108-0.451c0.154-0.096,0.357-0.046,0.451,0.107c2.819,4.595,2.635,8.92,2.626,9.102
			C299.85,226.888,299.706,227.024,299.532,227.024z"/>
	</g>
	<g>
		<path style="fill:#A37B90;" d="M248.491,231.287c-0.568-0.009-1.008-0.463-1.001-1.015c0.004-0.256,0.618-25.642,21.492-27.88
			c0.548-0.06,1.042,0.339,1.101,0.888c0.059,0.549-0.338,1.042-0.888,1.101c-19.107,2.049-19.689,24.947-19.705,25.922
			C249.482,230.85,249.036,231.287,248.491,231.287z"/>
	</g>
	<g>
		<path style="fill:#936781;" d="M285.889,254.621h-35.928c-2.317,0-4.195-1.878-4.195-4.195v-16.936
			c0-2.317,1.878-4.195,4.195-4.195h35.928c2.317,0,4.195,1.878,4.195,4.195v16.936
			C290.084,252.743,288.206,254.621,285.889,254.621z"/>
	</g>
	<g>
		<path style="fill:#A37B90;" d="M282.966,254.621h-35.928c-2.317,0-4.195-1.878-4.195-4.195v-16.936
			c0-2.317,1.878-4.195,4.195-4.195h35.928c2.317,0,4.195,1.878,4.195,4.195v16.936C287.16,252.743,285.282,254.621,282.966,254.621
			z"/>
	</g>
	<g>
		<path style="fill:#FFFFFF;" d="M287.153,241.089h-44.31c-0.181,0-0.328-0.147-0.328-0.328c0-0.181,0.147-0.328,0.328-0.328h44.31
			c0.181,0,0.328,0.147,0.328,0.328C287.481,240.941,287.335,241.089,287.153,241.089z"/>
	</g>
	<g>
		<g>
			<g>
				<g>
					<path style="fill:#6373AD;" d="M285.427,371.07c0.443,0.102,0.881-0.204,0.97-0.667c0.421-2.196,1.328-8.432-1.05-12.114
						c-2.922-4.524-10.955-8.904-13.289-12.064c-2.334-3.161-3.973-9.295-6.157-9.067c-2.184,0.228-7.232,3.14-12.019,0.661
						c-4.788-2.479-6.651-4.548-8.451-3.85c-1.8,0.698-8.879,17.256-8.676,18.475c0.203,1.219,7.61,2.937,8.165,3.329
						c0.554,0.393,3.791-2.969,4.723-1.934c0.932,1.035,1.638,3.445,3.019,4.947C253.95,360.188,280.121,369.849,285.427,371.07z"/>
				</g>
			</g>
		</g>
	</g>
	<g>
		<path style="fill:#FFFFFF;" d="M264.742,246.452h-0.884c-1.295,0-2.35-1.054-2.35-2.35v-3.342c0-0.181,0.147-0.328,0.328-0.328
			h4.927c0.181,0,0.328,0.147,0.328,0.328v3.342C267.092,245.398,266.038,246.452,264.742,246.452z M262.165,241.089v3.014
			c0,0.934,0.76,1.693,1.693,1.693h0.884c0.934,0,1.693-0.76,1.693-1.693v-3.014H262.165z"/>
	</g>
	<g>
		<path d="M329.744,194.411c-0.868-0.001-1.262-0.645-1.278-0.673c-0.093-0.156-0.042-0.357,0.114-0.45
			c0.155-0.093,0.354-0.043,0.448,0.111c0.013,0.02,0.234,0.355,0.716,0.355c0.743,0,1.364-0.437,1.665-1.17
			c0.227-0.556,0.221-1.413,0.216-2.102l-0.002-0.296v-6.936c0-0.181,0.147-0.328,0.328-0.328c0.181,0,0.328,0.147,0.328,0.328
			l0.001,7.227c0.005,0.747,0.013,1.678-0.265,2.355C331.616,193.806,330.746,194.411,329.744,194.411z"/>
	</g>
	<g>
		<path d="M332.591,194.758c-0.22,0-0.429-0.037-0.627-0.112c-0.765-0.288-1.049-1.03-1.061-1.061
			c-0.064-0.17,0.023-0.359,0.192-0.422c0.17-0.063,0.357,0.022,0.421,0.191c0.003,0.008,0.201,0.502,0.684,0.68
			c0.378,0.14,0.853,0.06,1.407-0.238c1.293-0.697,2.101-6.289,2.306-9.649c0.01-0.181,0.157-0.321,0.347-0.307
			c0.181,0.011,0.318,0.167,0.307,0.347c-0.057,0.927-0.611,9.089-2.649,10.187C333.444,194.629,333,194.758,332.591,194.758z"/>
	</g>
</g>
<g>
	<g>
		<path style="fill:#A89FB3;" d="M694.033,361.363H537.855V228.296h156.178c1.601,0,2.899,1.298,2.899,2.899v127.269
			C696.932,360.065,695.634,361.363,694.033,361.363z"/>
	</g>
	<g>
		<path style="fill:#BBB0C1;" d="M677.685,361.363H458.654c-1.723,0-3.12-1.397-3.12-3.12V249.915c0-11.94,9.679-21.62,21.62-21.62
			h200.531c1.741,0,3.153,1.412,3.153,3.153V358.21C680.838,359.952,679.426,361.363,677.685,361.363z"/>
	</g>
	<g>
		<path style="fill:#EBE8ED;" d="M611.334,326.911H514.66c-3.587,0-6.495-2.908-6.495-6.496v-45.18c0-3.587,2.908-6.496,6.495-6.496
			h96.673c3.587,0,6.496,2.908,6.496,6.496v45.18C617.829,324.003,614.921,326.911,611.334,326.911z"/>
	</g>
	<g>
		<path style="fill:#BBB0C1;" d="M562.997,298.153c-0.049,0-0.099-0.012-0.144-0.033l-53.729-26.212
			c-0.163-0.08-0.23-0.276-0.151-0.439c0.079-0.165,0.278-0.229,0.439-0.151l53.585,26.142l53.585-26.142
			c0.159-0.078,0.359-0.014,0.439,0.151c0.079,0.162,0.012,0.358-0.151,0.439L563.14,298.12
			C563.095,298.142,563.045,298.153,562.997,298.153z"/>
	</g>
	<g>
		<path style="fill:#BBB0C1;" d="M509.268,324.366c-0.105,0-0.207-0.05-0.271-0.143c-0.103-0.149-0.065-0.354,0.085-0.456
			l44.72-30.608c0.148-0.103,0.353-0.065,0.456,0.085c0.102,0.149,0.065,0.354-0.085,0.456l-44.72,30.608
			C509.397,324.348,509.332,324.366,509.268,324.366z"/>
	</g>
	<g>
		<path style="fill:#BBB0C1;" d="M616.998,324.255c-0.064,0-0.129-0.019-0.186-0.058l-44.719-30.608
			c-0.149-0.103-0.188-0.307-0.085-0.456c0.102-0.15,0.307-0.188,0.456-0.085l44.719,30.608c0.149,0.102,0.188,0.307,0.085,0.456
			C617.205,324.205,617.102,324.255,616.998,324.255z"/>
	</g>
</g>
</svg>
