<?xml version="1.0" encoding="utf-8"?>
<!-- Generator: Adobe Illustrator 27.5.0, SVG Export Plug-In . SVG Version: 6.00 Build 0)  -->
<svg version="1.1" xmlns="http://www.w3.org/2000/svg" xmlns:xlink="http://www.w3.org/1999/xlink" x="0px" y="0px"
	 viewBox="0 0 1000 1000" style="enable-background:new 0 0 1000 1000;" xml:space="preserve">
<g id="Layer_2">
	<rect style="fill:#FFFFFF;" width="1000" height="1000"/>
</g>
<g id="Layer_3">
	<defs>
		<filter id="Adobe_OpacityMaskFilter" filterUnits="userSpaceOnUse" x="69.997" y="689.184" width="827.003" height="165.416">
			<feFlood  style="flood-color:white;flood-opacity:1" result="back"/>
			<feBlend  in="SourceGraphic" in2="back" mode="normal"/>
		</filter>
	</defs>
	<mask maskUnits="userSpaceOnUse" x="69.997" y="689.184" width="827.003" height="165.416" id="SVGID_1_">
		<g style="filter:url(#Adobe_OpacityMaskFilter);">
			<defs>
				
					<filter id="Adobe_OpacityMaskFilter_00000142172810188528898120000006900457559881234061_" filterUnits="userSpaceOnUse" x="69.997" y="689.184" width="827.003" height="165.416">
					<feFlood  style="flood-color:white;flood-opacity:1" result="back"/>
					<feBlend  in="SourceGraphic" in2="back" mode="normal"/>
				</filter>
			</defs>
			<mask maskUnits="userSpaceOnUse" x="69.997" y="689.184" width="827.003" height="165.416" id="SVGID_1_">
				<g style="filter:url(#Adobe_OpacityMaskFilter_00000142172810188528898120000006900457559881234061_);">
				</g>
			</mask>
			
				<radialGradient id="SVGID_00000023972983597589133980000012729981839366742968_" cx="385.8877" cy="599.5126" r="204.3188" gradientTransform="matrix(2.0238 0 0 0.4048 -297.461 529.2089)" gradientUnits="userSpaceOnUse">
				<stop  offset="0" style="stop-color:#616161"/>
				<stop  offset="0.2984" style="stop-color:#404040"/>
				<stop  offset="0.7656" style="stop-color:#121212"/>
				<stop  offset="1" style="stop-color:#000000"/>
			</radialGradient>
			
				<ellipse style="mask:url(#SVGID_1_);fill:url(#SVGID_00000023972983597589133980000012729981839366742968_);" cx="483.499" cy="771.892" rx="413.502" ry="82.708"/>
		</g>
	</mask>
	
		<radialGradient id="SVGID_00000134240301167781338630000013222457555595739807_" cx="385.8877" cy="599.5126" r="204.3188" gradientTransform="matrix(2.0238 0 0 0.4048 -297.461 529.2089)" gradientUnits="userSpaceOnUse">
		<stop  offset="0" style="stop-color:#231F20"/>
		<stop  offset="1" style="stop-color:#231F20"/>
	</radialGradient>
	
		<ellipse style="fill:url(#SVGID_00000134240301167781338630000013222457555595739807_);" cx="483.499" cy="771.892" rx="413.502" ry="82.708"/>
</g>
<g id="Layer_1">
	<g>
		<g>
			<path style="fill:none;" d="M336.5,632.308c8.648,8.371,17.295,16.74,25.944,25.109c-50.547-48.92-69.084-128.368-41.486-212.556
				c41.761-127.392,173.328-217.396,293.884-201.042c40.876,5.546,75.235,22.61,101.171,47.709l0,0
				c-8.648-8.368-17.296-16.738-25.942-25.109c-25.935-25.1-60.294-42.163-101.172-47.709
				c-120.555-16.353-252.121,73.65-293.882,201.043C267.417,503.94,285.953,583.388,336.5,632.308z"/>
			<g>
				
					<linearGradient id="SVGID_00000005240381488631440780000011627243228673923479_" gradientUnits="userSpaceOnUse" x1="647.4825" y1="62.1654" x2="730.217" y2="488.159" gradientTransform="matrix(-1 0 0 1 1208.9258 0)">
					<stop  offset="0" style="stop-color:#1A171B"/>
					<stop  offset="0.12" style="stop-color:#707173"/>
					<stop  offset="0.34" style="stop-color:#FFFFFF"/>
					<stop  offset="0.45" style="stop-color:#1A171B"/>
					<stop  offset="0.55" style="stop-color:#A3A4A6"/>
					<stop  offset="0.74" style="stop-color:#D9DADB"/>
					<stop  offset="0.86" style="stop-color:#B1B3B4"/>
					<stop  offset="1" style="stop-color:#1A171B"/>
				</linearGradient>
				<path style="fill:url(#SVGID_00000005240381488631440780000011627243228673923479_);" d="M336.5,632.308l25.944,25.109
					c-50.547-48.92-69.084-128.368-41.486-212.556c41.761-127.392,173.328-217.396,293.884-201.042
					c40.876,5.546,75.235,22.61,101.171,47.709l-25.942-25.109c-25.935-25.1-60.294-42.163-101.172-47.709
					c-120.555-16.353-252.121,73.65-293.882,201.043C267.417,503.94,285.953,583.388,336.5,632.308"/>
			</g>
			<path style="fill:none;" d="M302.249,667.987c8.648,8.372,17.295,16.74,25.942,25.108c30.974,29.977,71.968,50.36,120.692,56.971
				c143.81,19.511,301.327-88.245,351.147-240.214c32.94-100.486,10.671-195.524-49.774-254.025l0,0
				c-8.648-8.369-17.296-16.74-25.944-25.108c60.446,58.501,82.716,153.538,49.774,254.025
				C724.268,636.716,566.752,744.47,422.941,724.958C374.217,718.348,333.221,697.965,302.249,667.987z"/>
			<g>
				
					<linearGradient id="SVGID_00000007408739536357526520000006118134631304181922_" gradientUnits="userSpaceOnUse" x1="393.6687" y1="491.5337" x2="906.6773" y2="491.5337" gradientTransform="matrix(-1 0 0 1 1208.9258 0)">
					<stop  offset="0" style="stop-color:#1A171B"/>
					<stop  offset="0.12" style="stop-color:#707173"/>
					<stop  offset="0.34" style="stop-color:#FFFFFF"/>
					<stop  offset="0.45" style="stop-color:#1A171B"/>
					<stop  offset="0.55" style="stop-color:#A3A4A6"/>
					<stop  offset="0.74" style="stop-color:#D9DADB"/>
					<stop  offset="0.86" style="stop-color:#B1B3B4"/>
					<stop  offset="1" style="stop-color:#1A171B"/>
				</linearGradient>
				<path style="fill:url(#SVGID_00000007408739536357526520000006118134631304181922_);" d="M302.249,667.987l25.942,25.108
					c30.974,29.977,71.968,50.36,120.692,56.971c143.81,19.511,301.327-88.245,351.147-240.214
					c32.94-100.486,10.671-195.524-49.774-254.025l-25.944-25.108c60.446,58.501,82.716,153.538,49.774,254.025
					C724.268,636.716,566.752,744.47,422.941,724.958C374.217,718.348,333.221,697.965,302.249,667.987"/>
			</g>
			<g>
				<g>
					
						<linearGradient id="SVGID_00000137814734242177311530000018180007146624808092_" gradientUnits="userSpaceOnUse" x1="419.6125" y1="449.3579" x2="971.6785" y2="449.3579" gradientTransform="matrix(-1 0 0 1 1208.9258 0)">
						<stop  offset="0" style="stop-color:#1A171B"/>
						<stop  offset="0.12" style="stop-color:#ECEDED"/>
						<stop  offset="0.29" style="stop-color:#1A171B"/>
						<stop  offset="0.34" style="stop-color:#C6C7C8"/>
						<stop  offset="0.45" style="stop-color:#FFFFFF"/>
						<stop  offset="0.55" style="stop-color:#A3A4A6"/>
						<stop  offset="0.69" style="stop-color:#ECEDED"/>
						<stop  offset="0.84" style="stop-color:#E1E2E3"/>
						<stop  offset="1" style="stop-color:#C6C7C8"/>
					</linearGradient>
					<path style="fill:url(#SVGID_00000137814734242177311530000018180007146624808092_);" d="M774.086,484.744
						C724.268,636.716,566.752,744.47,422.941,724.958c-143.81-19.509-220.287-159.006-170.468-310.978
						c49.818-151.969,207.353-259.733,351.163-240.223C747.446,193.266,823.904,332.775,774.086,484.744z M437.674,680.018
						c120.542,16.352,252.123-73.662,293.882-201.043c41.763-127.391-22.116-243.912-142.657-260.265
						c-120.555-16.353-252.121,73.65-293.882,201.043C253.258,547.133,317.118,663.661,437.674,680.018"/>
					<path style="fill:#FFFFFF;" d="M457.08,728.015c-11.524,0-23.045-0.768-34.243-2.289
						c-65.057-8.826-119.115-42.788-152.214-95.63c-37.468-59.816-44.351-138.674-18.886-216.356
						c45.421-138.555,182.029-243.038,317.765-243.038c11.522,0,23.042,0.77,34.238,2.289
						c65.049,8.824,119.099,42.783,152.196,95.62c37.47,59.819,44.353,138.685,18.885,216.375
						C729.403,623.535,592.805,728.015,457.08,728.015z M569.502,172.251c-135.096,0-271.072,104.025-316.293,241.972
						c-25.322,77.243-18.496,155.626,18.727,215.052c32.851,52.444,86.516,86.152,151.109,94.916
						c11.128,1.51,22.58,2.276,34.034,2.276c135.084,0,271.052-104.023,316.269-241.964c25.325-77.251,18.5-155.642-18.724-215.071
						c-32.849-52.44-86.508-86.146-151.094-94.908C592.405,173.015,580.955,172.251,569.502,172.251z M466.37,682.71
						c-0.006,0-0.005,0-0.011,0c-9.691,0-19.377-0.65-28.79-1.927c-54.579-7.404-99.889-35.832-127.583-80.045
						c-31.337-50.029-37.061-116.083-15.706-181.226C332.31,303.5,446.634,216.018,560.209,216.018
						c9.688,0,19.375,0.647,28.794,1.926c54.577,7.403,99.888,35.832,127.582,80.049c31.338,50.029,37.061,116.082,15.708,181.223
						C694.262,595.226,579.936,682.71,466.37,682.71z M560.209,217.567c-112.936,0-226.626,87.024-264.457,202.427
						c-21.211,64.705-15.546,130.283,15.546,179.921c27.446,43.819,72.364,71.991,126.48,79.335
						c9.344,1.268,18.96,1.911,28.581,1.911c112.933,0.006,226.627-87.019,264.461-202.429
						c21.211-64.702,15.546-130.28-15.546-179.918c-27.447-43.819-72.366-71.995-126.481-79.337
						C579.445,218.21,569.827,217.567,560.209,217.567z"/>
				</g>
			</g>
		</g>
		<g>
			<path style="fill:none;" d="M581.226,487.357c-12.94,12.519-25.88,25.037-38.82,37.555c21.13-20.44,28.866-53.678,17.26-88.747
				c-17.486-52.829-72.349-90.085-122.315-83.063c-16.798,2.36-30.936,9.431-41.637,19.784c12.94-12.52,25.88-25.039,38.82-37.556
				c10.702-10.354,24.84-17.424,41.638-19.787c49.966-7.022,104.828,30.237,122.313,83.065
				C610.092,433.675,602.352,466.914,581.226,487.357z"/>
			<g>
				<g>
					
						<linearGradient id="SVGID_00000150089861808616152210000013529506753744532900_" gradientUnits="userSpaceOnUse" x1="395.7129" y1="419.8027" x2="603.8803" y2="419.8027">
						<stop  offset="0" style="stop-color:#F37E5F"/>
						<stop  offset="0.5" style="stop-color:#EC1C24"/>
						<stop  offset="1" style="stop-color:#CF232A"/>
					</linearGradient>
					<path style="fill:url(#SVGID_00000150089861808616152210000013529506753744532900_);" d="M581.226,487.357l-38.82,37.555
						c21.13-20.44,28.866-53.678,17.26-88.747c-17.486-52.829-72.349-90.085-122.315-83.063
						c-16.798,2.36-30.936,9.431-41.637,19.784l38.82-37.556c10.702-10.354,24.84-17.424,41.638-19.787
						c49.966-7.022,104.828,30.237,122.313,83.065C610.092,433.675,602.352,466.914,581.226,487.357"/>
					<path style="fill:#FFFFFF;" d="M542.943,525.47L542.943,525.47l-1.077-1.113l0.037-0.036
						c21.545-20.871,28.067-54.551,17.027-87.912c-15.736-47.536-62.724-83.381-109.297-83.381c-4.102,0-8.198,0.282-12.176,0.842
						c-16.034,2.253-30.268,9.008-41.168,19.537l-0.038,0.037l-1.077-1.113l38.821-37.556c11.14-10.778,25.686-17.693,42.067-19.997
						c4.05-0.569,8.218-0.857,12.391-0.857c47.213,0,94.831,36.305,110.766,84.447c11.236,33.943,4.549,68.255-17.455,89.548
						L542.943,525.47z M449.634,351.478c47.211,0,94.831,36.303,110.767,84.444c9.411,28.435,6.245,57.127-7.96,78.206
						l28.246-27.327c21.573-20.874,28.111-54.574,17.062-87.947c-15.733-47.537-62.721-83.385-109.295-83.385
						c-4.1,0-8.196,0.283-12.175,0.843c-16.054,2.259-30.302,9.028-41.207,19.577l-28.26,27.34
						c8.96-5.614,19.269-9.325,30.431-10.892C441.292,351.767,445.461,351.478,449.634,351.478z"/>
				</g>
			</g>
			<g>
				
					<linearGradient id="SVGID_00000050658839792334044370000000874560217815579039_" gradientUnits="userSpaceOnUse" x1="326.8945" y1="410.1173" x2="693.965" y2="410.1173">
					<stop  offset="0" style="stop-color:#F37E5F"/>
					<stop  offset="0.5" style="stop-color:#EC1C24"/>
					<stop  offset="1" style="stop-color:#CF232A"/>
				</linearGradient>
				<path style="fill:url(#SVGID_00000050658839792334044370000000874560217815579039_);" d="M650.047,558.687
					c-12.94,12.519-25.88,25.036-38.82,37.556c40.957-39.622,55.957-104.057,33.459-172.025
					c-33.894-102.399-140.248-174.633-237.091-161.021c-32.558,4.575-59.957,18.277-80.7,38.345l0,0
					c12.94-12.519,25.88-25.036,38.82-37.556c20.743-20.068,48.143-33.771,80.7-38.345
					c96.846-13.612,203.197,58.623,237.091,161.018C706.004,454.629,691.004,519.065,650.047,558.687z"/>
				<path style="fill:#FFFFFF;" d="M611.765,596.799l-1.077-1.113c42.021-40.651,54.767-106.261,33.264-171.225
					c-30.598-92.434-121.975-162.138-212.554-162.138c-7.98,0-15.952,0.553-23.696,1.64c-31.266,4.393-59.022,17.58-80.269,38.135
					l-1.077-1.113l38.82-37.556c21.482-20.784,49.537-34.117,81.131-38.556c7.813-1.098,15.858-1.655,23.911-1.655
					c91.216,0,183.227,70.159,214.023,163.196c21.691,65.536,8.796,131.759-33.656,172.828L611.765,596.799z M431.397,260.774
					c91.216,0,183.227,70.16,214.023,163.2c19.165,57.897,11.33,116.335-20.03,157.486l24.117-23.331
					c42.02-40.65,54.766-106.261,33.264-171.227c-30.598-92.433-121.975-162.135-212.554-162.135c-7.979,0-15.952,0.553-23.696,1.64
					c-31.266,4.393-59.022,17.58-80.269,38.135l-24.134,23.35c18.759-13.333,41.011-22.04,65.368-25.462
					C415.3,261.331,423.345,260.774,431.397,260.774z"/>
			</g>
			<g style="enable-background:new    ;">
				<g>
					
						<linearGradient id="SVGID_00000054949635584537355690000009605673067016367292_" gradientUnits="userSpaceOnUse" x1="709.6271" y1="305.3919" x2="607.5294" y2="361.721">
						<stop  offset="0" style="stop-color:#F37E5F"/>
						<stop  offset="0.5" style="stop-color:#EC1C24"/>
						<stop  offset="1" style="stop-color:#CF232A"/>
					</linearGradient>
					<path style="fill:url(#SVGID_00000054949635584537355690000009605673067016367292_);" d="M650.047,558.687l-38.82,37.556
						c40.957-39.622,55.957-104.057,33.459-172.025c-33.894-102.399-140.248-174.633-237.091-161.021
						c-32.558,4.575-59.957,18.277-80.7,38.345l38.82-37.556c20.743-20.068,48.143-33.771,80.7-38.345
						c96.846-13.612,203.197,58.623,237.091,161.018C706.004,454.629,691.004,519.065,650.047,558.687"/>
					<path style="fill:#FFFFFF;" d="M611.765,596.799l-1.077-1.113c42.021-40.651,54.767-106.261,33.264-171.225
						c-30.598-92.434-121.975-162.138-212.554-162.138c-7.98,0-15.952,0.553-23.696,1.64c-31.266,4.393-59.022,17.58-80.269,38.135
						l-1.077-1.113l38.82-37.556c21.482-20.784,49.537-34.117,81.131-38.556c7.813-1.098,15.858-1.655,23.911-1.655
						c91.216,0,183.227,70.159,214.023,163.196c21.691,65.536,8.796,131.759-33.656,172.828L611.765,596.799z M431.397,260.774
						c91.216,0,183.227,70.16,214.023,163.2c19.165,57.897,11.33,116.335-20.03,157.486l24.117-23.331
						c42.02-40.65,54.766-106.261,33.264-171.227c-30.598-92.433-121.975-162.135-212.554-162.135
						c-7.979,0-15.952,0.553-23.696,1.64c-31.266,4.393-59.022,17.58-80.269,38.135l-24.136,23.35
						c18.761-13.333,41.013-22.04,65.37-25.462C415.3,261.331,423.345,260.774,431.397,260.774z"/>
				</g>
			</g>
			<g>
				<g>
					
						<linearGradient id="SVGID_00000043449885612450899280000012920612552895942531_" gradientUnits="userSpaceOnUse" x1="456.9154" y1="411.3423" x2="558.843" y2="411.3423">
						<stop  offset="0" style="stop-color:#F3B35F"/>
						<stop  offset="0.5" style="stop-color:#EC6324"/>
						<stop  offset="1" style="stop-color:#B5232A"/>
					</linearGradient>
					<path style="fill:url(#SVGID_00000043449885612450899280000012920612552895942531_);" d="M491.047,360.485
						c26.518-3.725,55.651,16.059,64.934,44.097c9.279,28.041-4.75,53.89-31.269,57.618c-26.519,3.728-55.651-16.06-64.934-44.097
						C450.498,390.065,464.528,364.212,491.047,360.485z"/>
					<path style="fill:#FFFFFF;" d="M518.195,463.425c-25.214,0-50.645-19.38-59.152-45.079
						c-4.806-14.519-3.553-29.299,3.434-40.549c6.176-9.946,16.285-16.368,28.462-18.079c2.164-0.304,4.393-0.458,6.62-0.458
						c25.216,0,50.648,19.38,59.157,45.079c4.806,14.521,3.553,29.301-3.435,40.551c-6.177,9.945-16.285,16.367-28.462,18.078
						C522.655,463.271,520.427,463.425,518.195,463.425z M497.56,360.809c-2.157,0-4.314,0.149-6.405,0.443
						c-11.713,1.646-21.431,7.812-27.362,17.362c-6.745,10.86-7.94,25.163-3.278,39.246c8.308,25.093,33.104,44.016,57.682,44.016
						c2.158,0,4.315-0.148,6.409-0.443c11.714-1.646,21.432-7.813,27.362-17.362c6.744-10.858,7.94-25.163,3.278-39.246
						C546.938,379.731,522.138,360.809,497.56,360.809z"/>
				</g>
			</g>
			<g>
				
					<linearGradient id="SVGID_00000132061618383826935490000004611526891646925991_" gradientUnits="userSpaceOnUse" x1="514.6912" y1="405.3298" x2="417.8737" y2="496.867">
					<stop  offset="0" style="stop-color:#F3B35F"/>
					<stop  offset="0.5" style="stop-color:#EC6324"/>
					<stop  offset="1" style="stop-color:#B5232A"/>
				</linearGradient>
				<path style="fill:url(#SVGID_00000132061618383826935490000004611526891646925991_);" d="M546.813,451.698
					c-12.943,12.52-25.883,25.039-38.824,37.556c-5.678,5.497-13.181,9.249-22.099,10.504c-26.518,3.724-55.65-16.06-64.933-44.1
					c-6.16-18.613-2.048-36.261,9.17-47.114l38.821-37.559c-11.219,10.855-15.331,28.503-9.171,47.116
					c9.283,28.037,38.416,47.825,64.934,44.097C533.629,460.947,541.132,457.192,546.813,451.698z"/>
				<path style="fill:#FFFFFF;" d="M479.379,500.983c-25.217,0-50.648-19.381-59.156-45.082
					c-6.007-18.153-2.419-36.512,9.367-47.914l38.821-37.558l1.077,1.113l-0.001,0.001c-11.352,10.987-14.79,28.734-8.972,46.315
					c8.308,25.093,33.104,44.016,57.682,44.016h0.001c2.159,0,4.314-0.148,6.408-0.443c8.433-1.185,15.92-4.738,21.655-10.276
					l0.016-0.015l0,0l1.077,1.113l-38.825,37.556c-5.964,5.774-13.754,9.479-22.528,10.715
					C483.835,500.829,481.608,500.983,479.379,500.983z M461.766,379.013l-31.1,30.089c-11.354,10.984-14.793,28.73-8.974,46.313
					c8.308,25.095,33.107,44.02,57.686,44.02c2.156,0,4.313-0.15,6.405-0.443c8.445-1.189,15.939-4.749,21.667-10.294l31.116-30.1
					c-4.173,2.194-8.805,3.675-13.747,4.369c-2.165,0.304-4.394,0.458-6.624,0.458c0,0,0,0-0.001,0
					c-25.215,0-50.645-19.38-59.152-45.079C454.374,404.24,455.502,390.007,461.766,379.013z"/>
			</g>
			<g>
				<g>
					
						<linearGradient id="SVGID_00000127758766315649217780000006217127290301662349_" gradientUnits="userSpaceOnUse" x1="514.6912" y1="405.3298" x2="417.8737" y2="496.867">
						<stop  offset="0" style="stop-color:#F3B35F"/>
						<stop  offset="0.5" style="stop-color:#EC6324"/>
						<stop  offset="1" style="stop-color:#B5232A"/>
					</linearGradient>
					<path style="fill:url(#SVGID_00000127758766315649217780000006217127290301662349_);" d="M546.813,451.698l-38.824,37.556
						c-5.678,5.497-13.181,9.249-22.099,10.504c-26.518,3.724-55.65-16.06-64.933-44.1c-6.16-18.613-2.048-36.261,9.17-47.114
						l38.821-37.559c-11.219,10.855-15.331,28.503-9.171,47.116c9.283,28.037,38.416,47.825,64.934,44.097
						C533.629,460.947,541.132,457.192,546.813,451.698"/>
					<path style="fill:#FFFFFF;" d="M479.379,500.983c-25.217,0-50.648-19.381-59.156-45.082
						c-6.007-18.153-2.419-36.512,9.367-47.914l38.821-37.558l1.077,1.113l-0.001,0.001c-11.352,10.987-14.79,28.734-8.972,46.315
						c8.308,25.093,33.104,44.016,57.682,44.016h0.001c2.159,0,4.314-0.148,6.408-0.443c8.434-1.185,15.922-4.738,21.655-10.278
						l0.016-0.014l0,0l1.077,1.113l-38.825,37.556c-5.964,5.774-13.754,9.479-22.528,10.715
						C483.835,500.829,481.608,500.983,479.379,500.983z M461.766,379.013l-31.1,30.089c-11.354,10.984-14.793,28.73-8.974,46.313
						c8.308,25.095,33.107,44.02,57.686,44.02c2.156,0,4.313-0.15,6.405-0.443c8.445-1.189,15.939-4.749,21.667-10.294l31.116-30.1
						c-4.173,2.194-8.805,3.675-13.747,4.369c-2.165,0.304-4.394,0.458-6.624,0.458c0,0,0,0-0.001,0
						c-25.215,0-50.645-19.38-59.152-45.079C454.374,404.24,455.502,390.007,461.766,379.013z"/>
				</g>
			</g>
			<path style="fill:none;" d="M615.632,523.027c-12.94,12.521-25.88,25.039-38.82,37.559
				c-15.721,15.209-36.488,25.596-61.163,29.064c-73.403,10.317-154.024-44.432-179.71-122.041
				c-17.052-51.519-5.676-100.359,25.369-130.394c12.939-12.52,25.88-25.039,38.82-37.559
				c-31.045,30.037-42.421,78.878-25.369,130.394c25.686,77.608,106.307,132.36,179.711,122.044
				C579.144,548.626,599.911,538.24,615.632,523.027z"/>
			<g>
				<g>
					
						<linearGradient id="SVGID_00000116221155986635986300000001137489031887048090_" gradientUnits="userSpaceOnUse" x1="456.325" y1="467.6467" x2="387.6721" y2="548.6212">
						<stop  offset="0" style="stop-color:#F3B35F"/>
						<stop  offset="0.5" style="stop-color:#EC6324"/>
						<stop  offset="1" style="stop-color:#B5232A"/>
					</linearGradient>
					<path style="fill:url(#SVGID_00000116221155986635986300000001137489031887048090_);" d="M615.632,523.027l-38.82,37.556
						c-15.721,15.212-36.488,25.599-61.163,29.066c-73.403,10.317-154.024-44.432-179.71-122.041
						c-17.052-51.519-5.676-100.359,25.369-130.394l38.82-37.559c-31.045,30.037-42.421,78.878-25.369,130.394
						c25.686,77.608,106.307,132.36,179.711,122.044C579.144,548.626,599.911,538.24,615.632,523.027"/>
					<path style="fill:#FFFFFF;" d="M497.605,591.672c-69.22,0.001-139.038-53.228-162.403-123.819
						c-16.464-49.74-6.667-100.01,25.566-131.194l38.82-37.559l1.077,1.113l-0.049,0.049
						c-31.761,30.774-41.388,80.404-25.123,129.545c23.162,69.979,92.348,122.754,160.934,122.76c0.005,0,0.009,0,0.012,0
						c6.033,0,12.062-0.417,17.922-1.239c23.658-3.325,44.659-13.304,60.732-28.855l1.077,1.113
						c-0.018,0.018-0.037,0.037-0.059,0.056L577.35,561.14c-16.311,15.783-37.608,25.907-61.595,29.276
						C509.825,591.25,503.718,591.672,497.605,591.672z M387.859,312.603l-26.014,25.169
						c-31.801,30.767-41.446,80.423-25.172,129.593c23.163,69.984,92.349,122.759,160.933,122.758
						c6.041,0,12.076-0.418,17.934-1.241c23.658-3.325,44.659-13.303,60.732-28.855l26.024-25.177
						c-13.835,9.379-30.048,15.528-47.722,18.012c-5.93,0.833-12.032,1.254-18.137,1.254c-0.004,0-0.007,0-0.012,0
						c-69.224-0.005-139.042-53.237-162.404-123.821C359.764,387.213,365.202,343.737,387.859,312.603z"/>
				</g>
			</g>
			<g>
				
					<linearGradient id="SVGID_00000103952906154200994820000015136253194863895461_" gradientUnits="userSpaceOnUse" x1="366.8328" y1="411.3423" x2="648.9265" y2="411.3423">
					<stop  offset="0" style="stop-color:#F3B35F"/>
					<stop  offset="0.5" style="stop-color:#EC6324"/>
					<stop  offset="1" style="stop-color:#B5232A"/>
				</linearGradient>
				<path style="fill:url(#SVGID_00000103952906154200994820000015136253194863895461_);" d="M461.291,270.59
					c73.399-10.314,154.024,44.436,179.71,122.043c25.687,77.604-13.134,149.143-86.532,159.46
					c-73.403,10.316-154.024-44.436-179.711-122.044C349.072,352.446,387.892,280.907,461.291,270.59z M539.589,507.141
					c49.967-7.022,76.382-55.703,58.895-108.532c-17.484-52.828-72.347-90.088-122.313-83.065
					c-49.964,7.022-76.382,55.703-58.895,108.531C434.761,476.906,489.622,514.163,539.589,507.141"/>
				<path style="fill:#FFFFFF;" d="M536.427,554.115c-69.221,0-139.039-53.23-162.404-123.821
					c-13.173-39.801-9.763-80.284,9.356-111.071c16.878-27.176,44.509-44.719,77.805-49.399c5.929-0.834,12.034-1.255,18.145-1.255
					c69.223,0,139.043,53.232,162.408,123.822c13.173,39.801,9.764,80.284-9.357,111.071c-16.878,27.176-44.508,44.72-77.804,49.4
					C548.646,553.694,542.539,554.115,536.427,554.115z M479.328,270.117c-6.04,0-12.071,0.417-17.93,1.24
					c-32.831,4.615-60.072,21.905-76.703,48.682c-18.876,30.396-22.231,70.405-9.202,109.768
					c23.163,69.984,92.351,122.76,160.934,122.76c6.04,0,12.073-0.417,17.934-1.239c32.831-4.616,60.071-21.905,76.703-48.683
					c18.876-30.396,22.231-70.405,9.202-109.767C617.102,322.893,547.913,270.117,479.328,270.117z M527.31,508.765
					c-0.003,0-0.004,0-0.005,0c-47.216-0.002-94.833-36.308-110.765-84.446c-8.992-27.162-6.663-54.792,6.387-75.807
					c11.525-18.559,30.395-30.539,53.135-33.735c4.049-0.569,8.218-0.857,12.391-0.857c47.213,0,94.831,36.305,110.766,84.447
					c8.991,27.163,6.663,54.794-6.388,75.807c-11.525,18.559-30.396,30.538-53.136,33.735
					C535.646,508.477,531.479,508.765,527.31,508.765z M488.453,315.468c-4.1,0-8.196,0.283-12.175,0.843
					c-22.276,3.131-40.755,14.857-52.035,33.019c-12.807,20.623-15.079,47.778-6.233,74.502
					c15.732,47.534,62.717,83.381,109.295,83.384c0.001,0,0.004,0,0.005,0c4.097,0,8.192-0.282,12.17-0.843
					c22.277-3.131,40.756-14.856,52.034-33.017c12.81-20.622,15.08-47.777,6.233-74.503
					C582.015,351.315,535.027,315.468,488.453,315.468z"/>
			</g>
			<path style="fill:none;" d="M684.626,594.32c-12.94,12.519-25.881,25.039-38.82,37.557
				c-25.78,24.941-59.866,41.969-100.405,47.666c-120.47,16.932-252.322-72.608-294.483-199.986
				c-27.974-84.521-9.438-164.458,41.393-213.635c12.936-12.52,25.877-25.039,38.817-37.556
				c-50.828,49.173-69.363,129.114-41.389,213.635c42.16,127.375,174.012,216.917,294.483,199.987
				C624.76,636.291,658.846,619.264,684.626,594.32z"/>
			<g>
				<g>
					
						<linearGradient id="SVGID_00000000922651872468329890000007244148801129411456_" gradientUnits="userSpaceOnUse" x1="519.8485" y1="640.1688" x2="428.3129" y2="465.899">
						<stop  offset="0" style="stop-color:#F3B35F"/>
						<stop  offset="0.5" style="stop-color:#EC6324"/>
						<stop  offset="1" style="stop-color:#B5232A"/>
					</linearGradient>
					<path style="fill:url(#SVGID_00000000922651872468329890000007244148801129411456_);" d="M684.626,594.32l-38.82,37.557
						c-25.78,24.941-59.866,41.969-100.405,47.666c-120.47,16.932-252.322-72.608-294.483-199.986
						c-27.974-84.521-9.438-164.458,41.393-213.635l38.817-37.556c-50.828,49.173-69.363,129.114-41.389,213.635
						c42.16,127.375,174.012,216.917,294.483,199.987C624.76,636.291,658.846,619.264,684.626,594.32"/>
					<path style="fill:#FFFFFF;" d="M515.696,682.373c-54.525,0-111.421-20.349-160.225-57.306
						c-49.229-37.279-86.623-88.87-105.29-145.267c-13.543-40.922-16.614-82.579-8.879-120.47
						c7.511-36.797,24.963-69.29,50.469-93.965l38.817-37.556l1.077,1.114c-52.158,50.459-67.942,132.013-41.192,212.834
						c38.025,114.879,151.547,201.508,264.065,201.51h0.001c9.957,0,19.906-0.688,29.574-2.047
						c38.976-5.479,73.546-21.888,99.975-47.457l1.076,1.113l-38.82,37.557c-26.666,25.799-61.532,42.354-100.836,47.877
						c-9.731,1.367-19.755,2.062-29.792,2.063C515.712,682.373,515.699,682.373,515.696,682.373z M315.246,244.808l-22.397,21.671
						c-52.159,50.462-67.945,132.015-41.197,212.834c38.026,114.883,151.538,201.51,264.044,201.512c0.007,0,0.014,0,0.019,0
						c9.964-0.002,19.915-0.69,29.577-2.048c38.975-5.478,73.546-21.89,99.975-47.457l22.467-21.737
						c-23.74,17.426-52.173,28.783-83.406,33.172c-9.737,1.369-19.761,2.062-29.789,2.062c-0.001,0-0.001,0-0.001,0
						c-113.155-0.001-227.311-87.087-265.535-202.572c-13.543-40.922-16.615-82.58-8.88-120.472
						C286.015,292.902,298.026,266.683,315.246,244.808z"/>
				</g>
			</g>
			<g>
				<g>
					
						<linearGradient id="SVGID_00000032640813898379003550000005156165463563889818_" gradientUnits="userSpaceOnUse" x1="276.7024" y1="411.3426" x2="739.0556" y2="411.3426">
						<stop  offset="0" style="stop-color:#F3B35F"/>
						<stop  offset="0.5" style="stop-color:#EC6324"/>
						<stop  offset="1" style="stop-color:#B5232A"/>
					</linearGradient>
					<path style="fill:url(#SVGID_00000032640813898379003550000005156165463563889818_);" d="M431.538,180.698
						c120.473-16.933,252.319,72.599,294.483,199.985c42.16,127.377-21.33,244.374-141.8,261.306
						c-120.471,16.93-252.323-72.612-294.483-199.987C247.574,314.611,311.068,197.63,431.538,180.698z M569.342,597.035
						c96.847-13.613,148.057-107.979,114.164-210.377c-33.895-102.396-140.245-174.63-237.091-161.018
						c-96.847,13.609-148.05,107.987-114.162,210.385C366.147,538.422,472.495,610.643,569.342,597.035"/>
					<path style="fill:#FFFFFF;" d="M554.538,644.816c-54.53,0-111.439-20.352-160.246-57.309
						c-49.23-37.279-86.624-88.867-105.29-145.263c-21.573-65.177-16.044-131.38,15.167-181.637
						c27.554-44.363,72.749-73.015,127.261-80.677c9.741-1.369,19.766-2.063,29.797-2.063c54.527,0,111.437,20.353,160.24,57.309
						c49.23,37.278,86.622,88.867,105.288,145.263c21.572,65.174,16.043,131.379-15.171,181.639
						c-27.554,44.364-72.748,73.016-127.257,80.677C574.591,644.124,564.567,644.816,554.538,644.816z M461.227,179.417
						c-9.96,0-19.913,0.689-29.582,2.048c-54.049,7.597-98.852,35.995-126.16,79.961c-30.968,49.864-36.44,115.593-15.013,180.331
						c38.025,114.88,151.548,201.51,264.065,201.51c9.957,0,19.907-0.688,29.575-2.047c54.045-7.596,98.848-35.993,126.155-79.96
						c30.971-49.867,36.444-115.598,15.018-180.334C687.261,266.048,573.741,179.417,461.227,179.417z M545.555,599.457
						c-0.006,0-0.011,0-0.015,0c-91.222-0.01-183.23-70.164-214.022-163.188c-17.359-52.452-12.869-105.793,12.319-146.349
						c22.228-35.784,58.619-58.886,102.47-65.047c7.813-1.098,15.858-1.655,23.911-1.655c91.216,0,183.227,70.159,214.023,163.196
						c17.358,52.446,12.871,105.781-12.315,146.332c-22.226,35.787-58.619,58.89-102.478,65.055
						C561.636,598.9,553.596,599.457,545.555,599.457z M470.218,224.767c-7.979,0-15.952,0.553-23.696,1.64
						c-43.389,6.096-79.39,28.944-101.369,64.33c-24.945,40.164-29.379,93.03-12.165,145.045
						c30.593,92.417,121.969,162.116,212.552,162.125c0.004,0,0.009,0,0.015,0c7.969,0,15.935-0.552,23.679-1.64
						c43.396-6.099,79.397-28.947,101.378-64.338c24.941-40.159,29.373-93.019,12.16-145.028
						C652.174,294.469,560.797,224.767,470.218,224.767z"/>
				</g>
			</g>
		</g>
		<path style="fill:none;" d="M295.922,565.339l-6.397-12.794c18.401,68.108,72.019,118.725,148.43,129.093
			c120.543,16.352,252.125-73.663,293.884-201.043c40.817-124.514-19.294-238.621-134.584-258.984l13.902,7.582L295.922,565.339z"/>
		<g>
			
				<linearGradient id="SVGID_00000034049356869731672760000015095433116999474083_" gradientUnits="userSpaceOnUse" x1="419.3301" y1="450.9796" x2="974.0386" y2="450.9795" gradientTransform="matrix(-1 0 0 1 1208.9258 0)">
				<stop  offset="0" style="stop-color:#1A171B"/>
				<stop  offset="0.12" style="stop-color:#ECEDED"/>
				<stop  offset="0.29" style="stop-color:#1A171B"/>
				<stop  offset="0.34" style="stop-color:#C6C7C8"/>
				<stop  offset="0.45" style="stop-color:#FFFFFF"/>
				<stop  offset="0.55" style="stop-color:#A3A4A6"/>
				<stop  offset="0.69" style="stop-color:#ECEDED"/>
				<stop  offset="0.84" style="stop-color:#E1E2E3"/>
				<stop  offset="1" style="stop-color:#C6C7C8"/>
			</linearGradient>
			<path style="fill:url(#SVGID_00000034049356869731672760000015095433116999474083_);" d="M603.917,175.377
				c-34.566-4.689-69.924-2.007-104.391,6.856c0,0,21.657,2.223,42.956,10.816c29.432,11.876,59.121,29.691,59.121,29.691
				c115.291,20.363,171.053,133.341,130.235,257.854C690.08,607.975,558.498,697.99,437.955,681.638
				C361.544,671.269,312,629.834,293.599,561.726c0,0-23.491-33.961-36.404-66.093c-11.101-27.626-14.974-51.378-14.974-51.378
				c-32.539,140.912,45.951,264.004,181.003,282.323c143.808,19.512,301.326-88.242,351.145-240.214
				C824.188,334.396,747.728,194.886,603.917,175.377z"/>
			<path style="fill:#FFFFFF;" d="M457.364,729.636c-0.009,0,0.007,0-0.002,0c-11.524,0-23.045-0.771-34.243-2.291
				c-62.655-8.498-115.859-40.248-149.813-89.398c-37.024-53.598-48.332-122.448-31.84-193.865l0.886-3.835l0.633,3.885
				c0.038,0.236,3.989,23.991,14.928,51.213c12.732,31.681,36.088,65.602,36.322,65.941l0.111,0.237
				C312.665,629.331,362.361,670.6,438.06,680.87c9.35,1.268,18.967,1.91,28.581,1.91c112.937-0.005,226.633-87.03,264.463-202.426
				c21.192-64.651,16.583-129.724-12.649-178.535c-24.899-41.576-66.444-69.39-116.985-78.316l-0.263-0.099
				c-0.296-0.178-29.979-17.92-59.015-29.637c-20.953-8.455-42.53-10.742-42.744-10.764l-4.308-0.442l4.192-1.079
				c23.631-6.077,47.354-9.157,70.512-9.157c11.506,0,23.005,0.768,34.178,2.284c65.051,8.824,119.101,42.782,152.198,95.62
				c37.47,59.819,44.353,138.685,18.885,216.374C729.689,625.148,593.079,729.636,457.364,729.636z M242.154,448.095
				c-15.177,69.675-3.713,136.652,32.428,188.971c33.703,48.788,86.529,80.307,148.747,88.746
				c11.128,1.51,22.578,2.275,34.034,2.275c135.085,0,271.051-104.022,316.27-241.965c25.325-77.25,18.5-155.64-18.725-215.069
				c-32.847-52.441-86.508-86.146-151.093-94.909c-11.104-1.506-22.533-2.268-33.97-2.268c-21.741,0-43.987,2.73-66.186,8.123
				c7.308,1.082,23.387,3.986,39.114,10.332c28.193,11.378,56.978,28.404,59.106,29.671c50.924,9.033,92.793,37.093,117.904,79.022
				c29.463,49.195,34.125,114.733,12.792,179.811C694.547,596.841,580.218,684.323,466.641,684.33c-9.684,0-19.37-0.647-28.79-1.926
				c-76.318-10.354-126.442-51.968-144.965-120.35c-1.491-2.174-23.977-35.198-36.41-66.133
				C248.015,474.867,243.71,455.865,242.154,448.095z"/>
		</g>
	</g>
</g>
</svg>
