<?xml version="1.0" encoding="utf-8"?>
<!-- Generator: Adobe Illustrator 27.5.0, SVG Export Plug-In . SVG Version: 6.00 Build 0)  -->
<svg version="1.1" id="Capa_1" xmlns="http://www.w3.org/2000/svg" xmlns:xlink="http://www.w3.org/1999/xlink" x="0px" y="0px"
	 viewBox="0 0 2122 2122" style="enable-background:new 0 0 2122 2122;" xml:space="preserve">
<path style="fill:#321C27;" d="M1911.366,760.419c1.107-25.086,0.882-53.74-12.876-75.787c-5.798-9.29-13.815-16.095-23.69-20.398
	c-0.142-13.401-0.218-26.804-0.37-40.205c-0.041-3.559-2.345-6.019-5.494-7.216c-14.287-5.433-28.573-10.867-42.86-16.3
	c-1.232-0.469-2.357-0.579-3.378-0.452c0.022-10.189,0.044-20.379,0.065-30.568c0.005-2.387-1.375-5.453-3.706-6.462
	c-26.191-11.333-52.383-22.666-78.575-33.998c-1.41-0.61-2.781-0.751-4.068-0.603c0.277-13.433,0.535-26.866,0.817-40.299
	c0.688-1.986,0.689-4.293-0.196-6.3c-0.865-3.292-3.83-4.979-6.894-5.035c-90.358-34.881-183.652-63.749-278.461-83.67
	c-89.683-18.844-185.635-32.903-274.597-3.534c-28.873,9.532-56.762,23.48-79.047,44.467c-3.778,3.558-7.297,7.349-10.693,11.242
	c-0.436-0.248-0.9-0.47-1.391-0.664c-15.64-6.173-34.038-4.519-48.631,3.737c-32.969-39.089-82.583-58.602-131.405-68.998
	c-35.888-7.642-72.856-7.849-109.316-5.18c-43.322,3.171-86.353,10.336-128.819,19.322c-85.92,18.18-170.443,43.827-252.789,74.259
	c-7.965,2.943-15.901,5.963-23.823,9.02c-3.068,0.056-6.034,1.745-6.891,5.05c-0.877,2.002-0.875,4.301-0.193,6.281
	c0.283,13.432,0.515,26.865,0.793,40.298c-1.28-0.143-2.641,0-4.042,0.607c-26.192,11.333-52.383,22.666-78.575,33.998
	c-2.331,1.009-3.711,4.075-3.707,6.462c0.022,10.189,0.044,20.378,0.066,30.566c-1.021-0.125-2.145-0.014-3.378,0.455
	c-14.286,5.433-28.573,10.867-42.86,16.3c-3.155,1.199-5.454,3.69-5.494,7.216c-0.152,13.408-0.238,26.815-0.38,40.223
	c-21.184,9.35-31.286,30.448-34.789,52.715c-4.571,29.046-1.015,59.01,0.032,88.201c2.645,73.752,3.734,147.553,3.928,221.35
	c0.386,147.665-2.819,295.306-4.373,442.957c-0.384,36.5-0.667,73.001-0.77,109.503c-0.054,19.079-0.059,38.158-0.003,57.237
	c0.049,16.953-1.23,34.621,0.666,51.48c2.375,21.12,16.129,36.651,36.347,42.673c19.73,5.877,38.891,1.56,58.536-2.103
	c114.144-21.283,229.374-38.508,345.44-44.365c113.491-5.728,231.288-2.188,340.272,33.04c11.472,3.708,22.796,7.845,33.986,12.333
	c15.586,15.236,37.5,28.508,56.952,11.835c2.471-2.117,4.615-4.542,6.722-7.012c0.749-0.879,1.472-1.782,2.24-2.643
	c0.566-0.635,3.414-3.068,1.557-1.847c11.002-7.235,25.072-11.95,37.305-16.71c56.498-21.982,116.772-32.86,177.078-37.095
	c129.043-9.063,258.714,9.419,385.633,31.093c31.014,5.295,61.979,10.869,92.948,16.42c14.865,2.665,29.731,5.325,44.605,7.937
	c9.138,1.604,18.219,2.602,27.5,1.752c20.816-1.906,40.794-11.359,48.706-31.888c5.669-14.711,3.615-32.044,3.691-47.481
	c0.098-19.908,0.125-39.815,0.097-59.724c-0.229-158.459-4.053-316.883-4.998-475.335c-0.474-79.605-0.222-159.221,1.581-238.81
	C1908.299,839.969,1909.612,800.185,1911.366,760.419z"/>
<path style="fill:#5265AD;" d="M1059.387,456.26c-0.806,0.135-1.611,0.274-2.411,0.445c-1.642,0.351-3.266,0.783-4.865,1.297
	c-0.914,0.293-1.809,0.632-2.712,0.958c-0.279,0.112-0.349,0.139-0.453,0.18l-1.061,0.484c-0.494,0.234-0.95,0.539-1.435,0.791
	c5.777,8.403,10.708,17.316,14.507,26.723c4.483-10.411,10.069-20.303,16.636-29.53c-2.096-0.622-4.221-1.133-6.387-1.448
	c-0.405-0.03-1.722-0.172-1.906-0.185c-0.718-0.051-1.436-0.087-2.156-0.109c-1.918-0.057-3.841-0.003-5.753,0.158
	C1061.166,456.042,1059.354,456.286,1059.387,456.26z"/>
<path style="fill:#9CD0EB;" d="M1044.509,1650.583c-1.235-2.318-2.554-4.715-3.954-7.19c-0.574-0.465-1.121-1-1.595-1.692
	c-29.025-42.302-68.986-75.751-114.105-99.801c-85.422-45.531-184.746-57.056-279.948-46.233
	c-116.231,13.213-226.519,56.507-334.684,98.769c-4.63,1.81-9.464-2.768-9.473-7.216c-0.16-74.417-0.32-148.834-0.48-223.251
	c-0.286-132.62-0.571-265.241-0.857-397.862c-0.252-116.981-0.504-233.963-0.756-350.945c-12.281,4.671-24.564,9.342-36.844,14.013
	c-0.851,75.494-1.555,150.988-2.086,226.484c-0.964,136.988-1.4,273.979-1.308,410.97c0.089,133.488,0.702,266.975,1.791,400.458
	c60.76-21.402,122.863-38.777,185.597-53.369c26.13-6.078,52.374-11.637,78.678-16.902c32.431-6.491,64.957-12.506,97.545-18.146
	c31.993-5.538,64.261-11.537,96.685-15.691c28.478-3.649,57.078-5.88,85.724-5.066c90.928,2.58,177.599,43.028,243.547,104.782
	C1046.887,1658.641,1045.719,1654.606,1044.509,1650.583z"/>
<path style="fill:#5265AD;" d="M1054.817,1690.462c-35.348-37.299-77.881-67.758-124.852-88.682
	c-48.903-21.784-101.445-30.836-154.817-28.69c-59.521,2.393-118.77,14.47-177.278,24.969
	c-116.194,20.852-231.854,46.703-343.09,86.754c-1.107,0.399-2.216,0.438-3.269,0.236c-0.095-0.018-0.191-0.03-0.285-0.052
	c-3.261-0.776-5.891-4.028-5.919-7.4c-0.645-77.21-1.126-154.422-1.437-231.635c-0.552-136.99-0.577-273.982-0.074-410.972
	c0.433-117.958,1.339-235.913,2.553-353.866c-5.842,3.981-10.23,9.676-13.444,16.214c-10.898,22.167-8.569,49.17-7.551,73.025
	c1.52,35.626,2.655,71.267,3.477,106.915c1.664,72.125,2.045,144.273,1.761,216.415c-0.568,144.352-3.811,288.676-4.827,433.023
	c-0.254,36.084-0.369,72.169-0.268,108.255c0.047,16.84-1.185,34.352,0.498,51.114c0.913,9.09,4.906,17.674,12.22,23.329
	c12.401,9.591,30.759,10.618,45.519,7.88c26.088-4.84,52.161-9.722,78.315-14.198c114.374-19.575,230.134-34.367,346.292-36.034
	c108.692-1.56,221.804,7.294,323.463,48.566c1.185,0.291,2.361,0.896,3.441,1.978c6.142,6.156,15.184,15.344,24.863,16.59v-41.452
	C1058.316,1692.832,1056.449,1692.183,1054.817,1690.462z"/>
<path style="fill:#9CD0EB;" d="M819.099,1488.048c39.391,8.494,77.914,22.189,113.341,41.223
	c-30.966-19.177-68.63-34.442-114.073-41.365C818.611,1487.959,818.855,1487.996,819.099,1488.048z"/>
<path style="fill:#BFE5FB;" d="M314.005,792.744c0.285,132.62,0.571,265.241,0.857,397.861
	c0.277,128.57,0.554,257.142,0.831,385.713c60.002-23.419,120.208-46.554,182.036-64.749
	c103.833-30.556,213.628-46.557,320.639-23.661c45.443,6.923,83.107,22.187,114.073,41.365
	c35.226,18.926,67.321,43.204,94.153,72.978c-11.164-24.888-25.083-48.481-42.311-69.828
	c-59.53-73.761-149.556-109.956-242.167-118.553c-53.474-4.964-107.59-2.346-160.41,7.162
	c-57.822,10.409-115.15,25.164-171.173,42.821c-4.722,1.489-9.407-2.515-9.473-7.216c-0.999-71.314-2.053-142.626-3.163-213.938
	c-1.961-126.04-4.095-252.077-6.401-378.11c-1.96-107.083-4.114-214.162-6.323-321.239c-23.88,10.333-47.759,20.665-71.639,30.998
	C313.691,647.145,313.847,719.945,314.005,792.744z"/>
<path style="fill:#BFE5FB;" d="M1042.684,1644.631c-0.751-0.265-1.461-0.695-2.13-1.238c1.399,2.476,2.719,4.872,3.954,7.19
	C1043.91,1648.595,1043.311,1646.609,1042.684,1644.631z"/>
<path style="fill:#DDF1FD;" d="M1060.109,1343.762v-21.451c-4.312,1.129-9.639-1.162-9.593-6.923
	c0.113-14.547,0.227-29.094,0.341-43.641c0.913-116.792,1.825-233.584,2.737-350.377c0.916-117.208,1.835-234.416,2.746-351.623
	c0.21-26.934,0.687-54.751-10.305-79.938c-9.128-20.917-24.268-38.813-42.07-52.911c-19.994-15.834-43.698-26.606-67.9-34.225
	c-19.651-6.186-40.02-10.972-60.532-13.141c-37.304-3.944-75.202-1.561-112.346,2.887c-43.345,5.191-86.285,13.798-128.719,23.95
	c-79.915,19.121-158.652,43.941-235.378,73.369c1.458,69.395,2.869,138.791,4.223,208.188c2.46,126.031,4.745,252.065,6.859,378.102
	c2.07,123.505,3.961,247.014,5.701,370.523c60.936-18.86,123.572-34.826,186.662-44.019c99.929-14.561,210.66-6.704,300.511,42.743
	c40.98,22.553,76.363,54.052,103.622,92.045c19.665,27.408,34.624,57.8,45.825,89.554c-0.696-82.986-1.391-165.972-2.086-248.958
	c-0.049-5.821,5.371-8.096,9.703-6.893v-12.309C1050.569,1358.631,1050.585,1343.845,1060.109,1343.762z"/>
<path style="fill:#BFE5FB;" d="M1862.556,1034.989c-0.497-135.275-1.521-270.548-3.044-405.815
	c-12.282-4.671-24.565-9.342-36.847-14.014c-0.127,59.194-0.255,118.389-0.382,177.583c-0.285,132.62-0.571,265.241-0.857,397.861
	c-0.285,132.204-0.57,264.409-0.855,396.614c-0.009,4.448-4.842,9.026-9.473,7.216c-61.326-23.961-122.783-47.869-185.897-66.775
	c-101.876-30.516-209.959-47.821-315.362-25.95c-89.102,18.489-175.079,63.622-227.479,139.99c-0.916,1.336-2.055,2.199-3.277,2.727
	c-0.273,0.486-0.551,0.976-0.816,1.456c-1.741,5.542-3.344,11.128-4.864,16.738c32.196-30.151,69.298-55.327,109.491-73.36
	c49.249-22.096,101.992-32.695,155.959-31.377c23.48,0.573,46.926,2.779,70.302,5.858c37.306,4.915,74.435,12.085,111.24,18.627
	c23.011,4.09,46.001,8.377,68.944,12.915c92.019,18.201,183.245,40.616,271.77,71.792c0.602-73.703,1.075-147.409,1.372-221.115
	C1863.034,1308.972,1863.059,1171.98,1862.556,1034.989z"/>
<path style="fill:#3A3C8A;" d="M1890.66,1071.3c-0.15-77.115,0.536-154.238,2.804-231.323c0.561-19.065,1.219-38.127,1.985-57.185
	c0.613-15.255,1.804-30.564,1.162-45.835c-0.807-19.204-4.514-44.426-21.656-55.863c0.599,58.187,1.198,116.375,1.607,174.564
	c0.963,136.988,1.401,273.979,1.308,410.97c-0.092,136.991-0.715,273.982-1.859,410.968c-0.031,3.743-3.271,7.298-7.021,7.519
	c-0.036,0.002-0.072,0.007-0.108,0.009c-0.771,0.031-1.554-0.027-2.343-0.311c-62.625-22.548-126.742-40.673-191.529-55.852
	c-57.163-13.393-114.83-24.54-172.66-34.635c-58.738-10.255-118.272-22.177-178.14-21.585
	c-98.05,0.969-190.84,47.164-257.707,117.722c-1.802,1.902-3.888,2.476-5.845,2.209c-0.183,0.025-0.363,0.062-0.548,0.072v41.452
	c1.462,0.188,2.937,0.206,4.42-0.006c5.466-0.782,9.5-5.077,13.365-9.526c5.112-5.885,9.481-8.978,16.682-12.409
	c26.064-12.416,53.294-22.336,81.129-29.968c57.66-15.808,117.686-22.263,177.344-23.477
	c125.478-2.555,250.489,17.133,373.702,38.765c29.894,5.248,59.757,10.676,89.64,15.989c19.138,3.404,39.072,8.434,57.985,0.68
	c7.987-3.275,14.798-9.045,18.219-17.107c2.696-6.354,2.954-13.072,3.007-19.863c0.073-9.538,0.131-19.077,0.172-28.616
	c0.165-38.158,0.078-76.317-0.17-114.474C1894.6,1379.881,1890.959,1225.607,1890.66,1071.3z"/>
<path style="fill:#DDF1FD;" d="M1736.111,543.333c-1.063,51.531-2.131,103.061-3.136,154.593
	c-2.458,126.031-4.745,252.065-6.858,378.102c-2.127,126.867-4.078,253.736-5.856,380.607c-0.066,4.702-4.751,8.705-9.473,7.216
	c-62.24-19.616-126.27-36.171-190.81-46.112c-52.044-8.016-106.116-8.642-158.345-1.936c-46.248,5.937-92.13,18.847-133.288,41.027
	c-39.694,21.391-74.451,51.365-100.768,88.045c-12.796,17.834-23.436,36.917-32.412,56.764
	c25.254-27.987,55.349-51.358,88.459-69.705c0.971-0.538,1.904-1.135,2.88-1.664c37.344-20.253,77.413-34.239,118.689-42.81
	c54.573-11.332,111.261-13.173,166.613-7.269c116.028,12.376,225.842,53.983,333.823,96.125
	c0.152-70.783,0.305-141.566,0.457-212.349c0.285-132.62,0.571-265.241,0.857-397.862c0.281-130.586,0.563-261.173,0.844-391.76
	C1783.895,564.009,1760.002,553.671,1736.111,543.333z"/>
<path style="fill:#DDF1FD;" d="M1078.692,1644.617c-0.135,0.425-0.292,0.842-0.425,1.267c0.266-0.48,0.543-0.97,0.816-1.456
	C1078.951,1644.485,1078.826,1644.569,1078.692,1644.617z"/>
<path style="fill:#EEF8FE;" d="M1584.721,442.884c-48.196-14.484-96.962-27.246-146.295-37.24
	c-45.036-9.123-90.745-16.166-136.728-17.73c-90.86-3.091-206.178,24.803-233.593,123.93c0.092,0.505,0.228,0.997,0.313,1.505
	c4.748,27.956,2.884,56.852,2.664,85.076c-0.931,119.286-1.863,238.571-2.795,357.858c-0.935,119.701-1.87,239.403-2.805,359.105
	c-0.03,3.876-2.475,6.164-5.374,6.923v21.451c0.027,0,0.049-0.007,0.076-0.007c9.646,0,9.63,14.967,0,14.967
	c-0.027,0-0.049-0.008-0.076-0.008v12.309c2.849,0.791,5.232,3.074,5.264,6.893c0.706,84.288,1.413,168.574,2.119,252.862
	c13.341-38.809,32.265-75.543,58.05-107.806c61.287-76.68,154.735-114.28,250.441-123.762c54.615-5.411,109.96-2.746,163.967,6.74
	c55.867,9.813,111.268,23.862,165.491,40.601c0.957-67.951,1.956-135.903,3.013-203.853c1.961-126.04,4.094-252.077,6.401-378.11
	c2.286-124.947,4.751-249.891,7.377-374.83C1677.006,472.426,1631.104,456.822,1584.721,442.884z"/>
<path style="fill:#321C27;" d="M502.385,602.733c1.079-7.057,9.085-8.744,15.294-8.4c10.383,0.575,20.033,5.567,30.626,5.01
	c17.152-0.901,26.978-14.454,39.189-24.469c4.991-4.093,10.453-7.022,17.031-5.504c7.812,1.802,14.399,7.324,21.542,10.723
	c7.192,3.422,14.959,5.451,22.729,2.692c9.117-3.236,13.69-12.398,22.226-16.503c7.615-3.662,16.893-3.961,24.769-0.926
	c8.159,3.145,13.162,10.932,21.17,14.317c8.982,3.797,17.295,0.216,23.744-6.418c6.171-6.349,11.485-11.533,20.604-13.145
	c8.171-1.444,16.632,0.348,23.374,5.197c7.323,5.265,13.543,11.985,23.318,11.71c8.964-0.252,15.797-6.375,21.857-12.299
	c5.938-5.804,11.741-10.339,20.331-11.054c9.767-0.813,18.397,2.97,24.794,10.239c7.77,8.829,15.541,13.241,27.524,10.177
	c5.584-1.428,10.52-3.43,16.406-2.962c5.338,0.425,10.477,2.41,15.138,4.965c10.167,5.569,18.609,13.686,26.668,21.899
	c6.758,6.886,17.338-3.699,10.583-10.583c-14.175-14.445-31.174-29.832-52.389-31.248c-4.847-0.323-9.728,0.4-14.396,1.682
	c-5.033,1.382-10.143,4.279-14.598,0.307c-3.58-3.19-6.164-7.225-9.957-10.239c-3.664-2.913-7.689-5.1-12.082-6.712
	c-8.305-3.046-17.755-3.355-26.3-1.163c-9.031,2.316-15.773,7.724-22.305,14.109c-2.843,2.779-6.123,6.64-10.141,7.678
	c-4.326,1.116-8.052-2.426-11.161-4.926c-7.315-5.886-14.667-10.257-24.114-11.626c-9.318-1.35-18.653,0.035-27.19,4.01
	c-3.901,1.817-7.493,4.302-10.674,7.2c-3.03,2.76-5.689,7.522-9.439,9.309c-3.883,1.851-7.408-2.081-10.144-4.458
	c-3.866-3.359-7.749-6.522-12.433-8.675c-8.531-3.921-17.859-5.059-27.111-3.618c-9.222,1.435-17.546,5.751-24.225,12.238
	c-3.029,2.942-5.939,7.13-10.378,7.85c-3.705,0.602-7.59-1.354-10.771-3.01c-15.062-7.841-29.19-17.35-46.075-7.951
	c-7.931,4.415-14.046,11.446-20.719,17.447c-7.895,7.099-15.329,10.114-26.064,7.86c-10.773-2.263-21.057-5.778-32.088-2.868
	c-8.884,2.344-17.139,8.633-18.595,18.162C486.512,608.177,500.932,612.239,502.385,602.733z"/>
<path style="fill:#321C27;" d="M918.912,649.779c-4.847-0.324-9.728,0.4-14.396,1.682c-5.033,1.382-10.143,4.279-14.598,0.307
	c-3.58-3.191-6.164-7.225-9.957-10.24c-3.664-2.913-7.689-5.1-12.082-6.712c-8.305-3.047-17.755-3.355-26.3-1.164
	c-9.031,2.316-15.773,7.725-22.305,14.11c-2.843,2.778-6.123,6.64-10.141,7.677c-4.326,1.117-8.052-2.426-11.161-4.926
	c-7.315-5.885-14.667-10.257-24.114-11.626c-9.318-1.35-18.653,0.035-27.19,4.01c-3.901,1.817-7.493,4.301-10.674,7.199
	c-3.03,2.761-5.689,7.521-9.439,9.309c-3.883,1.851-7.408-2.08-10.144-4.458c-3.866-3.359-7.749-6.522-12.433-8.675
	c-8.531-3.921-17.859-5.059-27.111-3.618c-9.222,1.435-17.546,5.751-24.225,12.237c-3.029,2.943-5.939,7.13-10.378,7.85
	c-3.705,0.601-7.59-1.354-10.771-3.01c-15.062-7.841-29.19-17.35-46.075-7.95c-7.931,4.415-14.046,11.446-20.719,17.447
	c-7.895,7.099-15.329,10.114-26.064,7.86c-10.773-2.263-21.057-5.778-32.088-2.868c-8.884,2.344-17.139,8.633-18.595,18.162
	c-1.441,9.423,12.979,13.485,14.432,3.979c1.079-7.057,9.085-8.744,15.294-8.401c10.383,0.575,20.033,5.567,30.626,5.01
	c17.152-0.901,26.978-14.454,39.189-24.469c4.991-4.093,10.453-7.022,17.031-5.504c7.812,1.802,14.399,7.324,21.542,10.723
	c7.192,3.423,14.959,5.451,22.729,2.693c9.117-3.236,13.69-12.398,22.226-16.503c7.615-3.663,16.893-3.961,24.769-0.927
	c8.159,3.145,13.162,10.932,21.17,14.318c8.982,3.797,17.295,0.215,23.744-6.418c6.171-6.349,11.485-11.534,20.604-13.145
	c8.171-1.444,16.632,0.349,23.374,5.197c7.323,5.266,13.543,11.985,23.318,11.71c8.964-0.252,15.797-6.375,21.857-12.298
	c5.938-5.805,11.741-10.339,20.331-11.055c9.767-0.813,18.397,2.97,24.794,10.239c7.77,8.829,15.541,13.241,27.524,10.178
	c5.584-1.428,10.52-3.43,16.406-2.962c5.338,0.425,10.477,2.41,15.138,4.964c10.167,5.57,18.609,13.686,26.668,21.9
	c6.758,6.886,17.338-3.7,10.583-10.584C957.127,666.581,940.128,651.194,918.912,649.779z"/>
<path style="fill:#321C27;" d="M918.912,743.406c-4.847-0.323-9.728,0.4-14.396,1.682c-5.033,1.382-10.143,4.279-14.598,0.307
	c-3.58-3.191-6.164-7.225-9.957-10.24c-3.664-2.913-7.689-5.1-12.082-6.712c-8.305-3.047-17.755-3.355-26.3-1.164
	c-9.031,2.315-15.773,7.725-22.305,14.109c-2.843,2.778-6.123,6.64-10.141,7.678c-4.326,1.117-8.052-2.426-11.161-4.927
	c-7.315-5.885-14.667-10.257-24.114-11.625c-9.318-1.351-18.653,0.034-27.19,4.01c-3.901,1.817-7.493,4.302-10.674,7.199
	c-3.03,2.761-5.689,7.522-9.439,9.309c-3.883,1.852-7.408-2.08-10.144-4.458c-3.866-3.359-7.749-6.522-12.433-8.674
	c-8.531-3.921-17.859-5.059-27.111-3.618c-9.222,1.436-17.546,5.751-24.225,12.237c-3.029,2.942-5.939,7.129-10.378,7.85
	c-3.705,0.601-7.59-1.354-10.771-3.01c-15.062-7.84-29.19-17.35-46.075-7.95c-7.931,4.415-14.046,11.447-20.719,17.447
	c-7.895,7.099-15.329,10.114-26.064,7.859c-10.773-2.262-21.057-5.778-32.088-2.868c-8.884,2.344-17.139,8.633-18.595,18.162
	c-1.441,9.423,12.979,13.485,14.432,3.979c1.079-7.057,9.085-8.745,15.294-8.401c10.383,0.575,20.033,5.567,30.626,5.01
	c17.152-0.901,26.978-14.453,39.189-24.469c4.991-4.093,10.453-7.022,17.031-5.504c7.812,1.802,14.399,7.324,21.542,10.723
	c7.192,3.423,14.959,5.451,22.729,2.693c9.117-3.236,13.69-12.398,22.226-16.503c7.615-3.663,16.893-3.962,24.769-0.927
	c8.159,3.144,13.162,10.932,21.17,14.317c8.982,3.797,17.295,0.216,23.744-6.418c6.171-6.349,11.485-11.534,20.604-13.145
	c8.171-1.444,16.632,0.349,23.374,5.197c7.323,5.266,13.543,11.985,23.318,11.71c8.964-0.252,15.797-6.376,21.857-12.299
	c5.938-5.804,11.741-10.339,20.331-11.054c9.767-0.813,18.397,2.97,24.794,10.239c7.77,8.829,15.541,13.241,27.524,10.177
	c5.584-1.428,10.52-3.43,16.406-2.962c5.338,0.424,10.477,2.41,15.138,4.964c10.167,5.57,18.609,13.686,26.668,21.9
	c6.758,6.886,17.338-3.7,10.583-10.584C957.127,760.209,940.128,744.822,918.912,743.406z"/>
<path style="fill:#321C27;" d="M918.912,837.035c-4.847-0.323-9.728,0.4-14.396,1.681c-5.033,1.382-10.143,4.279-14.598,0.307
	c-3.58-3.19-6.164-7.225-9.957-10.24c-3.664-2.913-7.689-5.1-12.082-6.711c-8.305-3.047-17.755-3.355-26.3-1.164
	c-9.031,2.316-15.773,7.725-22.305,14.109c-2.843,2.778-6.123,6.64-10.141,7.678c-4.326,1.117-8.052-2.426-11.161-4.926
	c-7.315-5.885-14.667-10.257-24.114-11.626c-9.318-1.35-18.653,0.035-27.19,4.01c-3.901,1.816-7.493,4.301-10.674,7.199
	c-3.03,2.76-5.689,7.521-9.439,9.308c-3.883,1.851-7.408-2.08-10.144-4.458c-3.866-3.359-7.749-6.521-12.433-8.674
	c-8.531-3.921-17.859-5.059-27.111-3.619c-9.222,1.436-17.546,5.751-24.225,12.238c-3.029,2.943-5.939,7.13-10.378,7.85
	c-3.705,0.601-7.59-1.354-10.771-3.01c-15.062-7.841-29.19-17.35-46.075-7.951c-7.931,4.415-14.046,11.447-20.719,17.447
	c-7.895,7.099-15.329,10.114-26.064,7.86c-10.773-2.263-21.057-5.778-32.088-2.868c-8.884,2.344-17.139,8.633-18.595,18.162
	c-1.441,9.423,12.979,13.485,14.432,3.979c1.079-7.057,9.085-8.745,15.294-8.401c10.383,0.575,20.033,5.566,30.626,5.01
	c17.152-0.901,26.978-14.453,39.189-24.469c4.991-4.093,10.453-7.022,17.031-5.504c7.812,1.802,14.399,7.324,21.542,10.723
	c7.192,3.422,14.959,5.45,22.729,2.692c9.117-3.236,13.69-12.398,22.226-16.503c7.615-3.663,16.893-3.962,24.769-0.927
	c8.159,3.144,13.162,10.932,21.17,14.317c8.982,3.797,17.295,0.216,23.744-6.418c6.171-6.349,11.485-11.534,20.604-13.145
	c8.171-1.443,16.632,0.349,23.374,5.198c7.323,5.266,13.543,11.985,23.318,11.71c8.964-0.252,15.797-6.376,21.857-12.299
	c5.938-5.804,11.741-10.339,20.331-11.054c9.767-0.813,18.397,2.97,24.794,10.239c7.77,8.829,15.541,13.241,27.524,10.177
	c5.584-1.428,10.52-3.43,16.406-2.961c5.338,0.425,10.477,2.41,15.138,4.964c10.167,5.569,18.609,13.686,26.668,21.899
	c6.758,6.886,17.338-3.7,10.583-10.583C957.127,853.837,940.128,838.45,918.912,837.035z"/>
<path style="fill:#321C27;" d="M918.912,930.662c-4.847-0.323-9.728,0.4-14.396,1.681c-5.033,1.382-10.143,4.279-14.598,0.307
	c-3.58-3.19-6.164-7.225-9.957-10.239c-3.664-2.913-7.689-5.1-12.082-6.712c-8.305-3.047-17.755-3.355-26.3-1.164
	c-9.031,2.316-15.773,7.725-22.305,14.109c-2.843,2.779-6.123,6.64-10.141,7.678c-4.326,1.116-8.052-2.427-11.161-4.927
	c-7.315-5.885-14.667-10.257-24.114-11.626c-9.318-1.35-18.653,0.035-27.19,4.01c-3.901,1.817-7.493,4.301-10.674,7.199
	c-3.03,2.76-5.689,7.521-9.439,9.309c-3.883,1.851-7.408-2.08-10.144-4.458c-3.866-3.359-7.749-6.522-12.433-8.674
	c-8.531-3.921-17.859-5.059-27.111-3.619c-9.222,1.436-17.546,5.751-24.225,12.238c-3.029,2.942-5.939,7.129-10.378,7.85
	c-3.705,0.601-7.59-1.355-10.771-3.01c-15.062-7.841-29.19-17.35-46.075-7.951c-7.931,4.415-14.046,11.447-20.719,17.447
	c-7.895,7.099-15.329,10.114-26.064,7.86c-10.773-2.262-21.057-5.778-32.088-2.868c-8.884,2.344-17.139,8.634-18.595,18.162
	c-1.441,9.423,12.979,13.485,14.432,3.979c1.079-7.057,9.085-8.744,15.294-8.401c10.383,0.575,20.033,5.567,30.626,5.01
	c17.152-0.9,26.978-14.453,39.189-24.469c4.991-4.092,10.453-7.022,17.031-5.504c7.812,1.802,14.399,7.324,21.542,10.723
	c7.192,3.422,14.959,5.451,22.729,2.693c9.117-3.236,13.69-12.398,22.226-16.503c7.615-3.663,16.893-3.962,24.769-0.927
	c8.159,3.145,13.162,10.932,21.17,14.318c8.982,3.797,17.295,0.215,23.744-6.418c6.171-6.349,11.485-11.533,20.604-13.145
	c8.171-1.444,16.632,0.349,23.374,5.197c7.323,5.266,13.543,11.985,23.318,11.71c8.964-0.253,15.797-6.376,21.857-12.299
	c5.938-5.805,11.741-10.339,20.331-11.054c9.767-0.813,18.397,2.97,24.794,10.239c7.77,8.829,15.541,13.241,27.524,10.178
	c5.584-1.428,10.52-3.43,16.406-2.962c5.338,0.424,10.477,2.41,15.138,4.964c10.167,5.57,18.609,13.686,26.668,21.899
	c6.758,6.886,17.338-3.7,10.583-10.583C957.127,947.464,940.128,932.077,918.912,930.662z"/>
<path style="fill:#321C27;" d="M918.912,1024.29c-4.847-0.323-9.728,0.4-14.396,1.682c-5.033,1.381-10.143,4.279-14.598,0.307
	c-3.58-3.191-6.164-7.225-9.957-10.239c-3.664-2.913-7.689-5.1-12.082-6.712c-8.305-3.047-17.755-3.355-26.3-1.163
	c-9.031,2.316-15.773,7.724-22.305,14.109c-2.843,2.779-6.123,6.64-10.141,7.678c-4.326,1.116-8.052-2.426-11.161-4.926
	c-7.315-5.886-14.667-10.257-24.114-11.626c-9.318-1.35-18.653,0.035-27.19,4.01c-3.901,1.817-7.493,4.301-10.674,7.199
	c-3.03,2.761-5.689,7.522-9.439,9.309c-3.883,1.851-7.408-2.081-10.144-4.458c-3.866-3.36-7.749-6.522-12.433-8.675
	c-8.531-3.921-17.859-5.059-27.111-3.619c-9.222,1.436-17.546,5.751-24.225,12.238c-3.029,2.943-5.939,7.129-10.378,7.85
	c-3.705,0.602-7.59-1.354-10.771-3.01c-15.062-7.841-29.19-17.351-46.075-7.951c-7.931,4.415-14.046,11.446-20.719,17.447
	c-7.895,7.1-15.329,10.115-26.064,7.86c-10.773-2.263-21.057-5.779-32.088-2.868c-8.884,2.344-17.139,8.633-18.595,18.162
	c-1.441,9.422,12.979,13.484,14.432,3.978c1.079-7.057,9.085-8.744,15.294-8.4c10.383,0.575,20.033,5.566,30.626,5.01
	c17.152-0.901,26.978-14.454,39.189-24.469c4.991-4.093,10.453-7.021,17.031-5.504c7.812,1.802,14.399,7.324,21.542,10.723
	c7.192,3.422,14.959,5.45,22.729,2.693c9.117-3.236,13.69-12.398,22.226-16.503c7.615-3.662,16.893-3.961,24.769-0.927
	c8.159,3.145,13.162,10.932,21.17,14.318c8.982,3.797,17.295,0.215,23.744-6.418c6.171-6.349,11.485-11.534,20.604-13.145
	c8.171-1.444,16.632,0.349,23.374,5.197c7.323,5.266,13.543,11.985,23.318,11.71c8.964-0.252,15.797-6.376,21.857-12.299
	c5.938-5.805,11.741-10.339,20.331-11.054c9.767-0.813,18.397,2.97,24.794,10.239c7.77,8.829,15.541,13.241,27.524,10.177
	c5.584-1.428,10.52-3.43,16.406-2.962c5.338,0.425,10.477,2.41,15.138,4.965c10.167,5.569,18.609,13.686,26.668,21.899
	c6.758,6.887,17.338-3.699,10.583-10.583C957.127,1041.092,940.128,1025.705,918.912,1024.29z"/>
<path style="fill:#321C27;" d="M685.451,1110.477c-10.516,0.614-20.384,5.178-29.032,10.96c-7.54,5.042-13.004,10.981-22.4,7.105
	c-7.496-3.092-13.946-8.159-21.661-10.879c-19.547-6.89-33.403,5.89-46.529,18.408c-5.525,5.27-11.669,10.076-18.422,9.82
	c-6.448-0.245-12.832-1.999-19.181-3.03c-16.034-2.606-37.008-2.641-40.274,17.66c-1.517,9.422,12.904,13.478,14.432,3.979
	c0.825-5.13,2.665-7.395,7.897-8.056c6.279-0.794,12.917,0.622,19.066,1.742c14.231,2.594,26.258,4.715,38.763-4.467
	c11.098-8.149,21.642-26.427,37.576-22.459c14.592,3.635,25.241,17.323,41.662,12.879c10.195-2.758,17.679-11.643,27.336-15.821
	c11.571-5.005,22.147-2.962,31.375,5.557c7.069,6.525,17.68-4.033,10.584-10.583
	C708.028,1115.339,697.474,1109.775,685.451,1110.477z"/>
<path style="fill:#321C27;" d="M1595.334,581.436c-9.665,2.292-18.884,5.056-27.881-0.59c-6.687-4.197-11.866-10.447-17.787-15.592
	c-5.752-4.999-12.156-9.479-19.804-10.834c-8.668-1.536-16.78,1.239-24.391,5.232c-6.24,3.274-14.345,10.372-21.86,9.531
	c-4.325-0.484-7.239-4.351-10.107-7.216c-3.405-3.401-7.191-6.455-11.518-8.608c-17.739-8.828-37.516-5.307-52.242,7.345
	c-2.678,2.3-6.379,6.661-10.272,5.331c-3.966-1.355-7.008-6.818-10.011-9.566c-6.675-6.109-15.079-9.931-24.008-11.212
	c-8.989-1.29-18.108-0.112-26.364,3.737c-4.029,1.879-7.473,4.526-10.908,7.318c-3.242,2.635-7.285,6.68-11.859,5.5
	c-3.755-0.969-6.851-4.466-9.512-7.061c-3.348-3.264-6.65-6.54-10.519-9.198c-7.227-4.965-16.513-7.285-25.229-6.922
	c-10.368,0.432-20.526,4.283-28.127,11.435c-3.302,3.107-6.353,9.22-11.062,10.135c-5.326,1.036-12.349-3.05-17.74-3.743
	c-24.083-3.101-44.359,15.021-59.98,30.94c-6.752,6.88,3.824,17.473,10.583,10.583c12.618-12.859,30.324-30.707,50.236-26.253
	c10.036,2.245,18.988,6.304,28.285-0.623c7.155-5.33,10.901-13.122,19.882-16.03c7.417-2.401,15.804-2.032,22.74,1.655
	c7.598,4.039,12.358,11.857,19.66,16.402c7.75,4.824,16.713,4.985,24.576,0.303c7.639-4.548,12.876-11.213,21.964-13.138
	c8.005-1.696,16.744-0.162,23.606,4.324c6.923,4.526,10.782,12.601,18.87,15.566c9.392,3.442,17.457-1.722,24.368-7.668
	c6.88-5.92,14.01-9.5,23.32-9.182c9.543,0.325,16.198,4.862,22.746,11.329c6.564,6.482,14.018,10.548,23.434,9.119
	c7.932-1.203,14.825-5.751,21.689-9.611c6.05-3.403,12.763-6.94,19.771-4.328c7.394,2.756,12.976,9.563,18.606,14.791
	c6.122,5.683,12.858,11.171,21.04,13.497c12.049,3.425,23.352-1.519,35.118-3.43c6.742-1.096,17.161-0.209,18.42,8.028
	c1.451,9.491,15.875,5.46,14.432-3.979C1634.489,579.051,1610.433,577.855,1595.334,581.436z"/>
<path style="fill:#321C27;" d="M1595.334,675.064c-9.665,2.292-18.884,5.056-27.881-0.59c-6.687-4.197-11.866-10.448-17.787-15.593
	c-5.752-4.999-12.156-9.479-19.804-10.834c-8.668-1.536-16.78,1.239-24.391,5.233c-6.24,3.274-14.345,10.372-21.86,9.531
	c-4.325-0.484-7.239-4.351-10.107-7.216c-3.405-3.401-7.191-6.455-11.518-8.608c-17.739-8.828-37.516-5.307-52.242,7.345
	c-2.678,2.301-6.379,6.661-10.272,5.331c-3.966-1.354-7.008-6.818-10.011-9.566c-6.675-6.109-15.079-9.931-24.008-11.212
	c-8.989-1.289-18.108-0.112-26.364,3.737c-4.029,1.879-7.473,4.526-10.908,7.318c-3.242,2.635-7.285,6.68-11.859,5.499
	c-3.755-0.969-6.851-4.466-9.512-7.06c-3.348-3.265-6.65-6.541-10.519-9.199c-7.227-4.964-16.513-7.285-25.229-6.922
	c-10.368,0.432-20.526,4.282-28.127,11.435c-3.302,3.107-6.353,9.22-11.062,10.135c-5.326,1.036-12.349-3.05-17.74-3.744
	c-24.083-3.1-44.359,15.021-59.98,30.94c-6.752,6.881,3.824,17.473,10.583,10.584c12.618-12.86,30.324-30.708,50.236-26.254
	c10.036,2.245,18.988,6.304,28.285-0.623c7.155-5.331,10.901-13.123,19.882-16.031c7.417-2.401,15.804-2.032,22.74,1.655
	c7.598,4.039,12.358,11.856,19.66,16.402c7.75,4.824,16.713,4.985,24.576,0.303c7.639-4.547,12.876-11.213,21.964-13.138
	c8.005-1.695,16.744-0.162,23.606,4.324c6.923,4.526,10.782,12.602,18.87,15.566c9.392,3.442,17.457-1.722,24.368-7.668
	c6.88-5.92,14.01-9.5,23.32-9.182c9.543,0.325,16.198,4.862,22.746,11.33c6.564,6.482,14.018,10.548,23.434,9.12
	c7.932-1.203,14.825-5.751,21.689-9.611c6.05-3.402,12.763-6.94,19.771-4.328c7.394,2.756,12.976,9.564,18.606,14.791
	c6.122,5.684,12.858,11.171,21.04,13.497c12.049,3.425,23.352-1.519,35.118-3.43c6.742-1.096,17.161-0.209,18.42,8.028
	c1.451,9.491,15.875,5.459,14.432-3.979C1634.489,672.679,1610.433,671.483,1595.334,675.064z"/>
<path style="fill:#321C27;" d="M1595.334,768.691c-9.665,2.292-18.884,5.056-27.881-0.59c-6.687-4.197-11.866-10.448-17.787-15.593
	c-5.752-4.998-12.156-9.479-19.804-10.834c-8.668-1.536-16.78,1.239-24.391,5.233c-6.24,3.274-14.345,10.372-21.86,9.531
	c-4.325-0.484-7.239-4.351-10.107-7.217c-3.405-3.401-7.191-6.455-11.518-8.608c-17.739-8.828-37.516-5.307-52.242,7.346
	c-2.678,2.3-6.379,6.661-10.272,5.331c-3.966-1.355-7.008-6.818-10.011-9.567c-6.675-6.108-15.079-9.931-24.008-11.211
	c-8.989-1.29-18.108-0.113-26.364,3.737c-4.029,1.878-7.473,4.526-10.908,7.318c-3.242,2.635-7.285,6.68-11.859,5.499
	c-3.755-0.969-6.851-4.466-9.512-7.061c-3.348-3.265-6.65-6.541-10.519-9.199c-7.227-4.964-16.513-7.285-25.229-6.922
	c-10.368,0.433-20.526,4.283-28.127,11.435c-3.302,3.107-6.353,9.22-11.062,10.135c-5.326,1.036-12.349-3.05-17.74-3.744
	c-24.083-3.1-44.359,15.021-59.98,30.94c-6.752,6.881,3.824,17.473,10.583,10.584c12.618-12.859,30.324-30.707,50.236-26.253
	c10.036,2.245,18.988,6.304,28.285-0.623c7.155-5.33,10.901-13.123,19.882-16.03c7.417-2.401,15.804-2.032,22.74,1.655
	c7.598,4.04,12.358,11.857,19.66,16.403c7.75,4.824,16.713,4.985,24.576,0.303c7.639-4.548,12.876-11.213,21.964-13.139
	c8.005-1.695,16.744-0.162,23.606,4.324c6.923,4.526,10.782,12.602,18.87,15.566c9.392,3.443,17.457-1.722,24.368-7.668
	c6.88-5.919,14.01-9.5,23.32-9.182c9.543,0.325,16.198,4.862,22.746,11.33c6.564,6.482,14.018,10.548,23.434,9.119
	c7.932-1.203,14.825-5.751,21.689-9.611c6.05-3.403,12.763-6.94,19.771-4.328c7.394,2.756,12.976,9.564,18.606,14.792
	c6.122,5.683,12.858,11.171,21.04,13.497c12.049,3.425,23.352-1.518,35.118-3.43c6.742-1.096,17.161-0.209,18.42,8.029
	c1.451,9.491,15.875,5.459,14.432-3.979C1634.489,766.307,1610.433,765.111,1595.334,768.691z"/>
<path style="fill:#321C27;" d="M1595.334,862.319c-9.665,2.292-18.884,5.056-27.881-0.59c-6.687-4.196-11.866-10.447-17.787-15.593
	c-5.752-4.998-12.156-9.479-19.804-10.834c-8.668-1.536-16.78,1.239-24.391,5.232c-6.24,3.275-14.345,10.372-21.86,9.531
	c-4.325-0.484-7.239-4.351-10.107-7.216c-3.405-3.401-7.191-6.455-11.518-8.608c-17.739-8.828-37.516-5.307-52.242,7.346
	c-2.678,2.301-6.379,6.661-10.272,5.331c-3.966-1.355-7.008-6.818-10.011-9.566c-6.675-6.108-15.079-9.931-24.008-11.212
	c-8.989-1.29-18.108-0.113-26.364,3.737c-4.029,1.879-7.473,4.526-10.908,7.318c-3.242,2.635-7.285,6.68-11.859,5.499
	c-3.755-0.969-6.851-4.466-9.512-7.06c-3.348-3.265-6.65-6.541-10.519-9.199c-7.227-4.965-16.513-7.286-25.229-6.922
	c-10.368,0.432-20.526,4.282-28.127,11.435c-3.302,3.107-6.353,9.22-11.062,10.136c-5.326,1.035-12.349-3.05-17.74-3.744
	c-24.083-3.1-44.359,15.021-59.98,30.941c-6.752,6.881,3.824,17.473,10.583,10.583c12.618-12.859,30.324-30.707,50.236-26.253
	c10.036,2.245,18.988,6.304,28.285-0.623c7.155-5.331,10.901-13.123,19.882-16.031c7.417-2.401,15.804-2.032,22.74,1.655
	c7.598,4.039,12.358,11.857,19.66,16.402c7.75,4.824,16.713,4.985,24.576,0.303c7.639-4.548,12.876-11.213,21.964-13.138
	c8.005-1.696,16.744-0.162,23.606,4.324c6.923,4.526,10.782,12.601,18.87,15.565c9.392,3.443,17.457-1.722,24.368-7.668
	c6.88-5.92,14.01-9.5,23.32-9.183c9.543,0.325,16.198,4.863,22.746,11.33c6.564,6.482,14.018,10.548,23.434,9.12
	c7.932-1.203,14.825-5.752,21.689-9.612c6.05-3.402,12.763-6.939,19.771-4.327c7.394,2.756,12.976,9.563,18.606,14.791
	c6.122,5.684,12.858,11.171,21.04,13.497c12.049,3.424,23.352-1.519,35.118-3.431c6.742-1.096,17.161-0.209,18.42,8.029
	c1.451,9.491,15.875,5.459,14.432-3.979C1634.489,859.934,1610.433,858.738,1595.334,862.319z"/>
<path style="fill:#321C27;" d="M1595.334,955.947c-9.665,2.292-18.884,5.056-27.881-0.59c-6.687-4.196-11.866-10.447-17.787-15.592
	c-5.752-4.999-12.156-9.479-19.804-10.834c-8.668-1.536-16.78,1.239-24.391,5.233c-6.24,3.274-14.345,10.372-21.86,9.531
	c-4.325-0.484-7.239-4.35-10.107-7.216c-3.405-3.401-7.191-6.455-11.518-8.608c-17.739-8.828-37.516-5.307-52.242,7.346
	c-2.678,2.3-6.379,6.661-10.272,5.331c-3.966-1.355-7.008-6.818-10.011-9.566c-6.675-6.108-15.079-9.931-24.008-11.212
	c-8.989-1.29-18.108-0.113-26.364,3.737c-4.029,1.878-7.473,4.526-10.908,7.318c-3.242,2.636-7.285,6.68-11.859,5.5
	c-3.755-0.97-6.851-4.466-9.512-7.061c-3.348-3.265-6.65-6.541-10.519-9.199c-7.227-4.965-16.513-7.285-25.229-6.922
	c-10.368,0.433-20.526,4.283-28.127,11.435c-3.302,3.107-6.353,9.22-11.062,10.136c-5.326,1.036-12.349-3.05-17.74-3.744
	c-24.083-3.1-44.359,15.021-59.98,30.94c-6.752,6.881,3.824,17.473,10.583,10.583c12.618-12.859,30.324-30.707,50.236-26.253
	c10.036,2.245,18.988,6.304,28.285-0.623c7.155-5.331,10.901-13.123,19.882-16.03c7.417-2.402,15.804-2.033,22.74,1.655
	c7.598,4.039,12.358,11.856,19.66,16.402c7.75,4.824,16.713,4.985,24.576,0.303c7.639-4.549,12.876-11.213,21.964-13.139
	c8.005-1.696,16.744-0.162,23.606,4.324c6.923,4.526,10.782,12.602,18.87,15.566c9.392,3.443,17.457-1.722,24.368-7.668
	c6.88-5.92,14.01-9.5,23.32-9.182c9.543,0.325,16.198,4.862,22.746,11.329c6.564,6.482,14.018,10.548,23.434,9.12
	c7.932-1.203,14.825-5.751,21.689-9.611c6.05-3.402,12.763-6.94,19.771-4.328c7.394,2.756,12.976,9.563,18.606,14.791
	c6.122,5.683,12.858,11.172,21.04,13.497c12.049,3.425,23.352-1.518,35.118-3.43c6.742-1.096,17.161-0.209,18.42,8.028
	c1.451,9.491,15.875,5.459,14.432-3.979C1634.489,953.562,1610.433,952.366,1595.334,955.947z"/>
<path style="fill:#321C27;" d="M1595.334,1049.575c-9.665,2.292-18.884,5.056-27.881-0.59c-6.687-4.197-11.866-10.448-17.787-15.593
	c-5.752-4.999-12.156-9.479-19.804-10.834c-8.668-1.536-16.78,1.239-24.391,5.233c-6.24,3.274-14.345,10.372-21.86,9.531
	c-4.325-0.484-7.239-4.35-10.107-7.216c-3.405-3.401-7.191-6.455-11.518-8.608c-17.739-8.828-37.516-5.307-52.242,7.346
	c-2.678,2.3-6.379,6.661-10.272,5.331c-3.966-1.355-7.008-6.818-10.011-9.567c-6.675-6.108-15.079-9.931-24.008-11.211
	c-8.989-1.29-18.108-0.113-26.364,3.737c-4.029,1.879-7.473,4.526-10.908,7.318c-3.242,2.636-7.285,6.68-11.859,5.5
	c-3.755-0.969-6.851-4.466-9.512-7.061c-3.348-3.265-6.65-6.541-10.519-9.198c-7.227-4.965-16.513-7.286-25.229-6.922
	c-10.368,0.433-20.526,4.283-28.127,11.435c-3.302,3.107-6.353,9.22-11.062,10.135c-5.326,1.036-12.349-3.05-17.74-3.744
	c-24.083-3.1-44.359,15.021-59.98,30.941c-6.752,6.88,3.824,17.472,10.583,10.583c12.618-12.859,30.324-30.707,50.236-26.253
	c10.036,2.245,18.988,6.304,28.285-0.623c7.155-5.33,10.901-13.123,19.882-16.03c7.417-2.401,15.804-2.033,22.74,1.655
	c7.598,4.039,12.358,11.856,19.66,16.402c7.75,4.824,16.713,4.985,24.576,0.303c7.639-4.548,12.876-11.213,21.964-13.138
	c8.005-1.696,16.744-0.161,23.606,4.324c6.923,4.525,10.782,12.601,18.87,15.566c9.392,3.442,17.457-1.723,24.368-7.669
	c6.88-5.92,14.01-9.499,23.32-9.182c9.543,0.325,16.198,4.862,22.746,11.329c6.564,6.482,14.018,10.548,23.434,9.12
	c7.932-1.203,14.825-5.751,21.689-9.611c6.05-3.403,12.763-6.94,19.771-4.328c7.394,2.755,12.976,9.563,18.606,14.791
	c6.122,5.683,12.858,11.172,21.04,13.497c12.049,3.425,23.352-1.518,35.118-3.43c6.742-1.096,17.161-0.209,18.42,8.028
	c1.451,9.491,15.875,5.46,14.432-3.978C1634.489,1047.19,1610.433,1045.994,1595.334,1049.575z"/>
<path style="fill:#321C27;" d="M1352.002,1110.477c-10.516,0.614-20.384,5.178-29.032,10.96c-7.541,5.042-13.004,10.981-22.4,7.105
	c-7.497-3.092-13.946-8.159-21.66-10.879c-19.547-6.89-33.404,5.89-46.529,18.408c-5.525,5.271-11.669,10.076-18.422,9.82
	c-6.448-0.245-12.832-1.999-19.181-3.03c-16.034-2.606-37.008-2.641-40.275,17.66c-1.516,9.422,12.904,13.478,14.433,3.979
	c0.825-5.13,2.665-7.395,7.896-8.056c6.28-0.794,12.917,0.622,19.067,1.742c14.231,2.594,26.258,4.715,38.762-4.467
	c11.098-8.149,21.643-26.427,37.576-22.459c14.592,3.635,25.241,17.323,41.662,12.879c10.194-2.759,17.679-11.643,27.336-15.821
	c11.571-5.006,22.146-2.962,31.375,5.557c7.069,6.525,17.68-4.033,10.583-10.583
	C1374.579,1115.338,1364.024,1109.775,1352.002,1110.477z"/>
<path style="fill:#321C27;" d="M1060.184,1343.755c-0.027,0-0.049,0.007-0.076,0.007c-9.524,0.083-9.54,14.869,0,14.952
	c0.027,0,0.049,0.008,0.076,0.008C1069.815,1358.722,1069.83,1343.755,1060.184,1343.755z"/>
</svg>
